# MagicaVoxel @ Ephtracy

# material
mtllib Magnet.mtl
usemtl palette

# normals
vn -1 0 0
vn 1 0 0
vn 0 0 1
vn 0 0 -1
vn 0 -1 0
vn 0 1 0

# texcoords
vt 0.853516 0.5
vt 0.931641 0.5
vt 0.974609 0.5

# verts
v -6 4 0.5
v -6 4 -0.5
v -6 10 0.5
v -6 10 -0.5
v -5 2 0.5
v -5 2 -0.5
v -5 4 0.5
v -5 4 -0.5
v -5 10 0.5
v -5 10 -0.5
v -5 11 0.5
v -5 11 -0.5
v -5 12 0.5
v -5 12 -0.5
v -4 1 0.5
v -4 1 -0.5
v -4 2 0.5
v -4 2 -0.5
v -3 0 0.5
v -3 0 -0.5
v -3 1 0.5
v -3 1 -0.5
v 1 3 0.5
v 1 3 -0.5
v 1 4 0.5
v 1 4 -0.5
v 2 4 0.5
v 2 4 -0.5
v 2 5 0.5
v 2 5 -0.5
v 2 8 0.5
v 2 8 -0.5
v 2 11 0.5
v 2 11 -0.5
v 2 12 0.5
v 2 12 -0.5
v 3 5 0.5
v 3 5 -0.5
v 3 8 0.5
v 3 8 -0.5
v -3 5 0.5
v -3 5 -0.5
v -3 8 0.5
v -3 8 -0.5
v -2 4 0.5
v -2 4 -0.5
v -2 5 0.5
v -2 5 -0.5
v -2 8 0.5
v -2 8 -0.5
v -2 11 0.5
v -2 11 -0.5
v -2 12 0.5
v -2 12 -0.5
v -1 3 0.5
v -1 3 -0.5
v -1 4 0.5
v -1 4 -0.5
v 3 0 0.5
v 3 0 -0.5
v 3 1 0.5
v 3 1 -0.5
v 4 1 0.5
v 4 1 -0.5
v 4 2 0.5
v 4 2 -0.5
v 5 2 0.5
v 5 2 -0.5
v 5 4 0.5
v 5 4 -0.5
v 5 10 0.5
v 5 10 -0.5
v 5 11 0.5
v 5 11 -0.5
v 5 12 0.5
v 5 12 -0.5
v 6 4 0.5
v 6 4 -0.5
v 6 10 0.5
v 6 10 -0.5
v -6 4 0.5
v -6 10 0.5
v -5 2 0.5
v -5 4 0.5
v -5 10 0.5
v -5 11 0.5
v -5 12 0.5
v -4 1 0.5
v -4 2 0.5
v -3 0 0.5
v -3 1 0.5
v -3 5 0.5
v -3 8 0.5
v -2 4 0.5
v -2 5 0.5
v -2 8 0.5
v -2 11 0.5
v -2 12 0.5
v -1 3 0.5
v -1 4 0.5
v 0 0 0.5
v 0 3 0.5
v 1 3 0.5
v 1 4 0.5
v 2 4 0.5
v 2 5 0.5
v 2 8 0.5
v 2 11 0.5
v 2 12 0.5
v 3 0 0.5
v 3 1 0.5
v 3 5 0.5
v 3 8 0.5
v 4 1 0.5
v 4 2 0.5
v 5 2 0.5
v 5 4 0.5
v 5 10 0.5
v 5 11 0.5
v 5 12 0.5
v 6 4 0.5
v 6 10 0.5
v -6 4 -0.5
v -6 10 -0.5
v -5 2 -0.5
v -5 4 -0.5
v -5 10 -0.5
v -5 11 -0.5
v -5 12 -0.5
v -4 1 -0.5
v -4 2 -0.5
v -3 0 -0.5
v -3 1 -0.5
v -3 5 -0.5
v -3 8 -0.5
v -2 4 -0.5
v -2 5 -0.5
v -2 8 -0.5
v -2 11 -0.5
v -2 12 -0.5
v -1 3 -0.5
v -1 4 -0.5
v 0 0 -0.5
v 0 3 -0.5
v 1 3 -0.5
v 1 4 -0.5
v 2 4 -0.5
v 2 5 -0.5
v 2 8 -0.5
v 2 11 -0.5
v 2 12 -0.5
v 3 0 -0.5
v 3 1 -0.5
v 3 5 -0.5
v 3 8 -0.5
v 4 1 -0.5
v 4 2 -0.5
v 5 2 -0.5
v 5 4 -0.5
v 5 10 -0.5
v 5 11 -0.5
v 5 12 -0.5
v 6 4 -0.5
v 6 10 -0.5
v -3 0 0.5
v 0 0 0.5
v 3 0 0.5
v -3 0 -0.5
v 0 0 -0.5
v 3 0 -0.5
v -4 1 0.5
v -3 1 0.5
v 3 1 0.5
v 4 1 0.5
v -4 1 -0.5
v -3 1 -0.5
v 3 1 -0.5
v 4 1 -0.5
v -5 2 0.5
v -4 2 0.5
v 4 2 0.5
v 5 2 0.5
v -5 2 -0.5
v -4 2 -0.5
v 4 2 -0.5
v 5 2 -0.5
v -6 4 0.5
v -5 4 0.5
v 5 4 0.5
v 6 4 0.5
v -6 4 -0.5
v -5 4 -0.5
v 5 4 -0.5
v 6 4 -0.5
v -3 8 0.5
v -2 8 0.5
v 2 8 0.5
v 3 8 0.5
v -3 8 -0.5
v -2 8 -0.5
v 2 8 -0.5
v 3 8 -0.5
v -1 3 0.5
v 0 3 0.5
v 1 3 0.5
v -1 3 -0.5
v 0 3 -0.5
v 1 3 -0.5
v -2 4 0.5
v -1 4 0.5
v 1 4 0.5
v 2 4 0.5
v -2 4 -0.5
v -1 4 -0.5
v 1 4 -0.5
v 2 4 -0.5
v -3 5 0.5
v -2 5 0.5
v 2 5 0.5
v 3 5 0.5
v -3 5 -0.5
v -2 5 -0.5
v 2 5 -0.5
v 3 5 -0.5
v -6 10 0.5
v -5 10 0.5
v 5 10 0.5
v 6 10 0.5
v -6 10 -0.5
v -5 10 -0.5
v 5 10 -0.5
v 6 10 -0.5
v -5 12 0.5
v -2 12 0.5
v 2 12 0.5
v 5 12 0.5
v -5 12 -0.5
v -2 12 -0.5
v 2 12 -0.5
v 5 12 -0.5

# faces
f 3/2/1 2/2/1 1/2/1
f 4/2/1 2/2/1 3/2/1
f 7/2/1 6/2/1 5/2/1
f 8/2/1 6/2/1 7/2/1
f 11/2/1 10/2/1 9/2/1
f 12/2/1 10/2/1 11/2/1
f 13/3/1 12/3/1 11/3/1
f 14/3/1 12/3/1 13/3/1
f 17/2/1 16/2/1 15/2/1
f 18/2/1 16/2/1 17/2/1
f 21/2/1 20/2/1 19/2/1
f 22/2/1 20/2/1 21/2/1
f 25/1/1 24/1/1 23/1/1
f 26/1/1 24/1/1 25/1/1
f 29/1/1 28/1/1 27/1/1
f 30/1/1 28/1/1 29/1/1
f 33/1/1 32/1/1 31/1/1
f 34/1/1 32/1/1 33/1/1
f 35/3/1 34/3/1 33/3/1
f 36/3/1 34/3/1 35/3/1
f 39/1/1 38/1/1 37/1/1
f 40/1/1 38/1/1 39/1/1
f 41/2/2 42/2/2 43/2/2
f 43/2/2 42/2/2 44/2/2
f 45/2/2 46/2/2 47/2/2
f 47/2/2 46/2/2 48/2/2
f 49/2/2 50/2/2 51/2/2
f 51/2/2 50/2/2 52/2/2
f 51/3/2 52/3/2 53/3/2
f 53/3/2 52/3/2 54/3/2
f 55/2/2 56/2/2 57/2/2
f 57/2/2 56/2/2 58/2/2
f 59/1/2 60/1/2 61/1/2
f 61/1/2 60/1/2 62/1/2
f 63/1/2 64/1/2 65/1/2
f 65/1/2 64/1/2 66/1/2
f 67/1/2 68/1/2 69/1/2
f 69/1/2 68/1/2 70/1/2
f 71/1/2 72/1/2 73/1/2
f 73/1/2 72/1/2 74/1/2
f 73/3/2 74/3/2 75/3/2
f 75/3/2 74/3/2 76/3/2
f 77/1/2 78/1/2 79/1/2
f 79/1/2 78/1/2 80/1/2
f 84/2/3 82/2/3 81/2/3
f 85/2/3 82/2/3 84/2/3
f 89/2/3 84/2/3 83/2/3
f 89/2/3 85/2/3 84/2/3
f 89/2/3 86/2/3 85/2/3
f 91/2/3 89/2/3 88/2/3
f 92/2/3 86/2/3 89/2/3
f 92/2/3 89/2/3 91/2/3
f 93/2/3 86/2/3 92/2/3
f 94/2/3 91/2/3 90/2/3
f 94/2/3 92/2/3 91/2/3
f 95/2/3 92/2/3 94/2/3
f 96/2/3 86/2/3 93/2/3
f 97/3/3 87/3/3 86/3/3
f 97/2/3 86/2/3 96/2/3
f 98/3/3 87/3/3 97/3/3
f 99/2/3 94/2/3 90/2/3
f 100/2/3 94/2/3 99/2/3
f 101/2/3 99/2/3 90/2/3
f 102/2/3 99/2/3 101/2/3
f 103/1/3 102/1/3 101/1/3
f 105/1/3 104/1/3 103/1/3
f 110/1/3 105/1/3 103/1/3
f 110/1/3 103/1/3 101/1/3
f 110/1/3 106/1/3 105/1/3
f 111/1/3 106/1/3 110/1/3
f 112/1/3 106/1/3 111/1/3
f 113/1/3 108/1/3 107/1/3
f 114/1/3 112/1/3 111/1/3
f 114/1/3 113/1/3 112/1/3
f 115/1/3 113/1/3 114/1/3
f 116/1/3 113/1/3 115/1/3
f 117/1/3 113/1/3 116/1/3
f 118/1/3 108/1/3 113/1/3
f 118/1/3 113/1/3 117/1/3
f 119/3/3 109/3/3 108/3/3
f 119/1/3 108/1/3 118/1/3
f 120/3/3 109/3/3 119/3/3
f 121/1/3 118/1/3 117/1/3
f 122/1/3 118/1/3 121/1/3
f 123/2/4 124/2/4 126/2/4
f 126/2/4 124/2/4 127/2/4
f 125/2/4 126/2/4 131/2/4
f 126/2/4 127/2/4 131/2/4
f 127/2/4 128/2/4 131/2/4
f 130/2/4 131/2/4 133/2/4
f 131/2/4 128/2/4 134/2/4
f 133/2/4 131/2/4 134/2/4
f 134/2/4 128/2/4 135/2/4
f 132/2/4 133/2/4 136/2/4
f 133/2/4 134/2/4 136/2/4
f 136/2/4 134/2/4 137/2/4
f 135/2/4 128/2/4 138/2/4
f 128/3/4 129/3/4 139/3/4
f 138/2/4 128/2/4 139/2/4
f 139/3/4 129/3/4 140/3/4
f 132/2/4 136/2/4 141/2/4
f 141/2/4 136/2/4 142/2/4
f 132/2/4 141/2/4 143/2/4
f 143/2/4 141/2/4 144/2/4
f 143/1/4 144/1/4 145/1/4
f 145/1/4 146/1/4 147/1/4
f 145/1/4 147/1/4 152/1/4
f 143/1/4 145/1/4 152/1/4
f 147/1/4 148/1/4 152/1/4
f 152/1/4 148/1/4 153/1/4
f 153/1/4 148/1/4 154/1/4
f 149/1/4 150/1/4 155/1/4
f 153/1/4 154/1/4 156/1/4
f 154/1/4 155/1/4 156/1/4
f 156/1/4 155/1/4 157/1/4
f 157/1/4 155/1/4 158/1/4
f 158/1/4 155/1/4 159/1/4
f 155/1/4 150/1/4 160/1/4
f 159/1/4 155/1/4 160/1/4
f 150/3/4 151/3/4 161/3/4
f 160/1/4 150/1/4 161/1/4
f 161/3/4 151/3/4 162/3/4
f 159/1/4 160/1/4 163/1/4
f 163/1/4 160/1/4 164/1/4
f 168/2/5 166/2/5 165/2/5
f 169/1/5 167/1/5 166/1/5
f 169/2/5 166/2/5 168/2/5
f 170/1/5 167/1/5 169/1/5
f 175/2/5 172/2/5 171/2/5
f 176/2/5 172/2/5 175/2/5
f 177/1/5 174/1/5 173/1/5
f 178/1/5 174/1/5 177/1/5
f 183/2/5 180/2/5 179/2/5
f 184/2/5 180/2/5 183/2/5
f 185/1/5 182/1/5 181/1/5
f 186/1/5 182/1/5 185/1/5
f 191/2/5 188/2/5 187/2/5
f 192/2/5 188/2/5 191/2/5
f 193/1/5 190/1/5 189/1/5
f 194/1/5 190/1/5 193/1/5
f 199/2/5 196/2/5 195/2/5
f 200/2/5 196/2/5 199/2/5
f 201/1/5 198/1/5 197/1/5
f 202/1/5 198/1/5 201/1/5
f 203/2/6 204/2/6 206/2/6
f 204/1/6 205/1/6 207/1/6
f 206/2/6 204/2/6 207/2/6
f 207/1/6 205/1/6 208/1/6
f 209/2/6 210/2/6 213/2/6
f 213/2/6 210/2/6 214/2/6
f 211/1/6 212/1/6 215/1/6
f 215/1/6 212/1/6 216/1/6
f 217/2/6 218/2/6 221/2/6
f 221/2/6 218/2/6 222/2/6
f 219/1/6 220/1/6 223/1/6
f 223/1/6 220/1/6 224/1/6
f 225/2/6 226/2/6 229/2/6
f 229/2/6 226/2/6 230/2/6
f 227/1/6 228/1/6 231/1/6
f 231/1/6 228/1/6 232/1/6
f 233/3/6 234/3/6 237/3/6
f 237/3/6 234/3/6 238/3/6
f 235/3/6 236/3/6 239/3/6
f 239/3/6 236/3/6 240/3/6
