# MagicaVoxel @ Ephtracy

# material
mtllib PandaAgent.mtl
usemtl palette

# normals
vn -1 0 0
vn 1 0 0
vn 0 0 1
vn 0 0 -1
vn 0 -1 0
vn 0 1 0

# texcoords
vt 0.275391 0.5
vt 0.587891 0.5
vt 0.841797 0.5
vt 0.955078 0.5
vt 0.958984 0.5
vt 0.986328 0.5
vt 0.994141 0.5

# verts
v -7 8 -0
v -7 8 -1
v -7 10 -0
v -7 10 -1
v -5 17 -0
v -5 17 -1
v -5 19 -0
v -5 19 -1
v -4 11 1
v -4 11 -2
v -4 12 2
v -4 12 1
v -4 12 -2
v -4 12 -3
v -4 14 2
v -4 14 1
v -4 17 2
v -4 17 1
v -4 17 -0
v -4 17 -1
v -4 18 2
v -4 18 -0
v -4 18 -1
v -4 18 -3
v -3 0 1
v -3 0 -1
v -3 1 1
v -3 1 -0
v -3 1 -1
v -3 5 2
v -3 5 -0
v -3 5 -1
v -3 5 -3
v -3 8 -0
v -3 8 -1
v -3 9 2
v -3 9 1
v -3 9 -2
v -3 9 -3
v -3 10 1
v -3 10 -0
v -3 10 -1
v -3 10 -2
v -2 5 3
v -2 5 2
v -2 9 3
v -2 9 2
v -2 9 1
v -2 9 -2
v -2 9 -3
v -2 10 2
v -2 10 1
v -2 10 -2
v -2 10 -3
v -2 11 2
v -2 11 1
v -2 11 -2
v -2 11 -3
v -2 12 2
v -2 12 1
v -2 12 -2
v -2 12 -3
v -2 13 3
v -2 13 2
v -2 14 2
v -2 15 3
v -2 15 2
v -1 10 1
v -1 10 -2
v -1 11 1
v -1 11 -2
v -1 12 3
v -1 12 2
v -1 13 3
v -1 13 2
v 1 0 1
v 1 0 -1
v 1 1 1
v 1 1 -0
v 1 1 -1
v 1 5 -0
v 1 5 -1
v 3 18 -0
v 3 18 -1
v 3 19 -0
v 3 19 -1
v -3 18 -0
v -3 18 -1
v -3 19 -0
v -3 19 -1
v -1 0 1
v -1 0 -1
v -1 1 1
v -1 1 -0
v -1 1 -1
v -1 5 -0
v -1 5 -1
v 1 10 1
v 1 10 -2
v 1 11 1
v 1 11 -2
v 1 12 3
v 1 12 2
v 1 13 3
v 1 13 2
v 2 5 3
v 2 5 2
v 2 9 3
v 2 9 2
v 2 9 1
v 2 9 -2
v 2 9 -3
v 2 10 2
v 2 10 1
v 2 10 -2
v 2 10 -3
v 2 11 2
v 2 11 1
v 2 11 -2
v 2 11 -3
v 2 12 2
v 2 12 1
v 2 12 -2
v 2 12 -3
v 2 13 3
v 2 13 2
v 2 14 2
v 2 15 3
v 2 15 2
v 3 0 1
v 3 0 -1
v 3 1 1
v 3 1 -0
v 3 1 -1
v 3 5 2
v 3 5 -0
v 3 5 -1
v 3 5 -3
v 3 8 -0
v 3 8 -1
v 3 9 2
v 3 9 1
v 3 9 -2
v 3 9 -3
v 3 10 1
v 3 10 -0
v 3 10 -1
v 3 10 -2
v 4 11 1
v 4 11 -2
v 4 12 2
v 4 12 1
v 4 12 -2
v 4 12 -3
v 4 14 2
v 4 14 1
v 4 17 2
v 4 17 1
v 4 17 -0
v 4 17 -1
v 4 18 2
v 4 18 -0
v 4 18 -1
v 4 18 -3
v 5 17 -0
v 5 17 -1
v 5 19 -0
v 5 19 -1
v 7 8 -0
v 7 8 -1
v 7 10 -0
v 7 10 -1
v -2 5 3
v -2 9 3
v -2 13 3
v -2 15 3
v -1 6 3
v -1 9 3
v -1 12 3
v -1 13 3
v -1 14 3
v -1 15 3
v 1 6 3
v 1 9 3
v 1 12 3
v 1 13 3
v 1 14 3
v 1 15 3
v 2 5 3
v 2 9 3
v 2 13 3
v 2 15 3
v -4 12 2
v -4 14 2
v -4 17 2
v -4 18 2
v -3 5 2
v -3 9 2
v -3 15 2
v -3 16 2
v -2 5 2
v -2 9 2
v -2 10 2
v -2 11 2
v -2 12 2
v -2 13 2
v -2 14 2
v -2 15 2
v -2 16 2
v -1 9 2
v -1 10 2
v -1 12 2
v -1 13 2
v -1 15 2
v -1 17 2
v 1 9 2
v 1 10 2
v 1 12 2
v 1 13 2
v 1 15 2
v 1 17 2
v 2 5 2
v 2 9 2
v 2 10 2
v 2 11 2
v 2 12 2
v 2 13 2
v 2 14 2
v 2 15 2
v 2 16 2
v 3 5 2
v 3 9 2
v 3 15 2
v 3 16 2
v 4 12 2
v 4 14 2
v 4 17 2
v 4 18 2
v -4 11 1
v -4 12 1
v -3 0 1
v -3 1 1
v -3 9 1
v -3 10 1
v -2 9 1
v -2 10 1
v -2 11 1
v -2 12 1
v -1 0 1
v -1 1 1
v -1 10 1
v -1 11 1
v 1 0 1
v 1 1 1
v 1 10 1
v 1 11 1
v 2 9 1
v 2 10 1
v 2 11 1
v 2 12 1
v 3 0 1
v 3 1 1
v 3 9 1
v 3 10 1
v 4 11 1
v 4 12 1
v -7 8 -0
v -7 10 -0
v -6 8 -0
v -6 10 -0
v -5 17 -0
v -5 19 -0
v -4 17 -0
v -4 18 -0
v -3 1 -0
v -3 5 -0
v -3 8 -0
v -3 10 -0
v -3 18 -0
v -3 19 -0
v -1 1 -0
v -1 5 -0
v 1 1 -0
v 1 5 -0
v 3 1 -0
v 3 5 -0
v 3 8 -0
v 3 10 -0
v 3 18 -0
v 3 19 -0
v 4 17 -0
v 4 18 -0
v 5 17 -0
v 5 19 -0
v 6 8 -0
v 6 10 -0
v 7 8 -0
v 7 10 -0
v -7 8 -1
v -7 10 -1
v -6 8 -1
v -6 10 -1
v -5 17 -1
v -5 19 -1
v -4 17 -1
v -4 18 -1
v -3 0 -1
v -3 1 -1
v -3 5 -1
v -3 8 -1
v -3 10 -1
v -3 18 -1
v -3 19 -1
v -1 0 -1
v -1 1 -1
v -1 5 -1
v 1 0 -1
v 1 1 -1
v 1 5 -1
v 3 0 -1
v 3 1 -1
v 3 5 -1
v 3 8 -1
v 3 10 -1
v 3 18 -1
v 3 19 -1
v 4 17 -1
v 4 18 -1
v 5 17 -1
v 5 19 -1
v 6 8 -1
v 6 10 -1
v 7 8 -1
v 7 10 -1
v -4 11 -2
v -4 12 -2
v -3 9 -2
v -3 10 -2
v -2 9 -2
v -2 10 -2
v -2 11 -2
v -2 12 -2
v -1 10 -2
v -1 11 -2
v 1 10 -2
v 1 11 -2
v 2 9 -2
v 2 10 -2
v 2 11 -2
v 2 12 -2
v 3 9 -2
v 3 10 -2
v 4 11 -2
v 4 12 -2
v -4 12 -3
v -4 18 -3
v -3 5 -3
v -3 9 -3
v -2 9 -3
v -2 10 -3
v -2 11 -3
v -2 12 -3
v 2 9 -3
v 2 10 -3
v 2 11 -3
v 2 12 -3
v 3 5 -3
v 3 9 -3
v 4 12 -3
v 4 18 -3
v -3 0 1
v -1 0 1
v 1 0 1
v 3 0 1
v -3 0 -1
v -1 0 -1
v 1 0 -1
v 3 0 -1
v -2 5 3
v 2 5 3
v -3 5 2
v -2 5 2
v 2 5 2
v 3 5 2
v -3 5 -0
v -1 5 -0
v 1 5 -0
v 3 5 -0
v -3 5 -1
v -1 5 -1
v 1 5 -1
v 3 5 -1
v -3 5 -3
v 3 5 -3
v -7 8 -0
v -6 8 -0
v -3 8 -0
v 3 8 -0
v 6 8 -0
v 7 8 -0
v -7 8 -1
v -6 8 -1
v -3 8 -1
v 3 8 -1
v 6 8 -1
v 7 8 -1
v -2 11 2
v 2 11 2
v -4 11 1
v -2 11 1
v -1 11 1
v 1 11 1
v 2 11 1
v 4 11 1
v -4 11 -2
v -2 11 -2
v -1 11 -2
v 1 11 -2
v 2 11 -2
v 4 11 -2
v -2 11 -3
v 2 11 -3
v -1 12 3
v 1 12 3
v -4 12 2
v -2 12 2
v -1 12 2
v 1 12 2
v 2 12 2
v 4 12 2
v -4 12 1
v -2 12 1
v 2 12 1
v 4 12 1
v -4 12 -2
v -2 12 -2
v 2 12 -2
v 4 12 -2
v -4 12 -3
v -2 12 -3
v 2 12 -3
v 4 12 -3
v -2 13 3
v -1 13 3
v 1 13 3
v 2 13 3
v -2 13 2
v -1 13 2
v 1 13 2
v 2 13 2
v -5 17 -0
v -4 17 -0
v 4 17 -0
v 5 17 -0
v -5 17 -1
v -4 17 -1
v 4 17 -1
v 5 17 -1
v -3 1 1
v -1 1 1
v 1 1 1
v 3 1 1
v -3 1 -0
v -1 1 -0
v 1 1 -0
v 3 1 -0
v -2 9 3
v -1 9 3
v 1 9 3
v 2 9 3
v -3 9 2
v -2 9 2
v -1 9 2
v 1 9 2
v 2 9 2
v 3 9 2
v -3 9 1
v -2 9 1
v 2 9 1
v 3 9 1
v -3 9 -2
v -2 9 -2
v 2 9 -2
v 3 9 -2
v -3 9 -3
v -2 9 -3
v 2 9 -3
v 3 9 -3
v -2 10 2
v -1 10 2
v 1 10 2
v 2 10 2
v -3 10 1
v -2 10 1
v -1 10 1
v 1 10 1
v 2 10 1
v 3 10 1
v -7 10 -0
v -6 10 -0
v -3 10 -0
v 3 10 -0
v 6 10 -0
v 7 10 -0
v -7 10 -1
v -6 10 -1
v -3 10 -1
v 3 10 -1
v 6 10 -1
v 7 10 -1
v -3 10 -2
v -2 10 -2
v -1 10 -2
v 1 10 -2
v 2 10 -2
v 3 10 -2
v -2 10 -3
v 2 10 -3
v -2 15 3
v -1 15 3
v 1 15 3
v 2 15 3
v -2 15 2
v -1 15 2
v 1 15 2
v 2 15 2
v -4 18 2
v 4 18 2
v -4 18 -0
v -3 18 -0
v 3 18 -0
v 4 18 -0
v -4 18 -1
v -3 18 -1
v 3 18 -1
v 4 18 -1
v -4 18 -3
v 4 18 -3
v -5 19 -0
v -3 19 -0
v 3 19 -0
v 5 19 -0
v -5 19 -1
v -3 19 -1
v 3 19 -1
v 5 19 -1

# faces
f 3/7/1 2/7/1 1/7/1
f 4/7/1 2/7/1 3/7/1
f 7/7/1 6/7/1 5/7/1
f 8/7/1 6/7/1 7/7/1
f 12/5/1 10/5/1 9/5/1
f 13/5/1 10/5/1 12/5/1
f 15/5/1 12/5/1 11/5/1
f 15/5/1 14/5/1 13/5/1
f 15/5/1 13/5/1 12/5/1
f 16/5/1 14/5/1 15/5/1
f 17/7/1 16/7/1 15/7/1
f 18/5/1 14/5/1 16/5/1
f 18/7/1 16/7/1 17/7/1
f 19/5/1 14/5/1 18/5/1
f 20/5/1 14/5/1 19/5/1
f 21/5/1 18/5/1 17/5/1
f 21/5/1 19/5/1 18/5/1
f 22/5/1 19/5/1 21/5/1
f 23/5/1 14/5/1 20/5/1
f 24/5/1 14/5/1 23/5/1
f 27/7/1 26/7/1 25/7/1
f 28/7/1 26/7/1 27/7/1
f 29/7/1 26/7/1 28/7/1
f 31/6/1 29/6/1 28/6/1
f 32/6/1 29/6/1 31/6/1
f 34/6/1 32/6/1 31/6/1
f 34/6/1 33/6/1 32/6/1
f 34/6/1 31/6/1 30/6/1
f 35/6/1 33/6/1 34/6/1
f 36/6/1 34/6/1 30/6/1
f 37/6/1 34/6/1 36/6/1
f 38/6/1 33/6/1 35/6/1
f 39/6/1 33/6/1 38/6/1
f 40/6/1 34/6/1 37/6/1
f 41/6/1 34/6/1 40/6/1
f 42/6/1 38/6/1 35/6/1
f 43/6/1 38/6/1 42/6/1
f 46/6/1 45/6/1 44/6/1
f 47/6/1 45/6/1 46/6/1
f 51/6/1 48/6/1 47/6/1
f 52/6/1 48/6/1 51/6/1
f 53/6/1 50/6/1 49/6/1
f 54/6/1 50/6/1 53/6/1
f 59/5/1 56/5/1 55/5/1
f 60/5/1 56/5/1 59/5/1
f 61/5/1 58/5/1 57/5/1
f 62/5/1 58/5/1 61/5/1
f 65/5/1 64/5/1 63/5/1
f 66/5/1 65/5/1 63/5/1
f 67/5/1 65/5/1 66/5/1
f 70/5/1 69/5/1 68/5/1
f 71/5/1 69/5/1 70/5/1
f 74/5/1 73/5/1 72/5/1
f 75/5/1 73/5/1 74/5/1
f 78/7/1 77/7/1 76/7/1
f 79/7/1 77/7/1 78/7/1
f 80/7/1 77/7/1 79/7/1
f 81/6/1 80/6/1 79/6/1
f 82/6/1 80/6/1 81/6/1
f 85/7/1 84/7/1 83/7/1
f 86/7/1 84/7/1 85/7/1
f 87/7/2 88/7/2 89/7/2
f 89/7/2 88/7/2 90/7/2
f 91/7/2 92/7/2 93/7/2
f 93/7/2 92/7/2 94/7/2
f 94/7/2 92/7/2 95/7/2
f 94/6/2 95/6/2 96/6/2
f 96/6/2 95/6/2 97/6/2
f 98/5/2 99/5/2 100/5/2
f 100/5/2 99/5/2 101/5/2
f 102/5/2 103/5/2 104/5/2
f 104/5/2 103/5/2 105/5/2
f 106/6/2 107/6/2 108/6/2
f 108/6/2 107/6/2 109/6/2
f 109/6/2 110/6/2 113/6/2
f 113/6/2 110/6/2 114/6/2
f 111/6/2 112/6/2 115/6/2
f 115/6/2 112/6/2 116/6/2
f 117/5/2 118/5/2 121/5/2
f 121/5/2 118/5/2 122/5/2
f 119/5/2 120/5/2 123/5/2
f 123/5/2 120/5/2 124/5/2
f 125/5/2 126/5/2 127/5/2
f 125/5/2 127/5/2 128/5/2
f 128/5/2 127/5/2 129/5/2
f 130/7/2 131/7/2 132/7/2
f 132/7/2 131/7/2 133/7/2
f 133/7/2 131/7/2 134/7/2
f 133/6/2 134/6/2 136/6/2
f 136/6/2 134/6/2 137/6/2
f 136/6/2 137/6/2 139/6/2
f 137/6/2 138/6/2 139/6/2
f 135/6/2 136/6/2 139/6/2
f 139/6/2 138/6/2 140/6/2
f 135/6/2 139/6/2 141/6/2
f 141/6/2 139/6/2 142/6/2
f 140/6/2 138/6/2 143/6/2
f 143/6/2 138/6/2 144/6/2
f 142/6/2 139/6/2 145/6/2
f 145/6/2 139/6/2 146/6/2
f 140/6/2 143/6/2 147/6/2
f 147/6/2 143/6/2 148/6/2
f 149/5/2 150/5/2 152/5/2
f 152/5/2 150/5/2 153/5/2
f 151/5/2 152/5/2 155/5/2
f 153/5/2 154/5/2 155/5/2
f 152/5/2 153/5/2 155/5/2
f 155/5/2 154/5/2 156/5/2
f 155/7/2 156/7/2 157/7/2
f 156/5/2 154/5/2 158/5/2
f 157/7/2 156/7/2 158/7/2
f 158/5/2 154/5/2 159/5/2
f 159/5/2 154/5/2 160/5/2
f 157/5/2 158/5/2 161/5/2
f 158/5/2 159/5/2 161/5/2
f 161/5/2 159/5/2 162/5/2
f 160/5/2 154/5/2 163/5/2
f 163/5/2 154/5/2 164/5/2
f 165/7/2 166/7/2 167/7/2
f 167/7/2 166/7/2 168/7/2
f 169/7/2 170/7/2 171/7/2
f 171/7/2 170/7/2 172/7/2
f 177/6/3 174/6/3 173/6/3
f 178/6/3 174/6/3 177/6/3
f 180/5/3 176/5/3 175/5/3
f 181/5/3 176/5/3 180/5/3
f 182/5/3 176/5/3 181/5/3
f 183/5/3 178/5/3 177/5/3
f 183/6/3 177/6/3 173/6/3
f 184/5/3 178/5/3 183/5/3
f 185/5/3 180/5/3 179/5/3
f 185/5/3 181/5/3 180/5/3
f 186/5/3 181/5/3 185/5/3
f 187/7/3 182/7/3 181/7/3
f 187/5/3 181/5/3 186/5/3
f 188/7/3 182/7/3 187/7/3
f 189/6/3 184/6/3 183/6/3
f 189/6/3 183/6/3 173/6/3
f 190/6/3 184/6/3 189/6/3
f 191/5/3 188/5/3 187/5/3
f 191/5/3 187/5/3 186/5/3
f 192/5/3 188/5/3 191/5/3
f 199/7/3 195/7/3 194/7/3
f 200/7/3 195/7/3 199/7/3
f 201/6/3 198/6/3 197/6/3
f 202/6/3 198/6/3 201/6/3
f 205/5/3 194/5/3 193/5/3
f 206/5/3 194/5/3 205/5/3
f 207/7/3 199/7/3 194/7/3
f 207/5/3 194/5/3 206/5/3
f 208/4/3 200/4/3 199/4/3
f 208/7/3 199/7/3 207/7/3
f 209/7/3 195/7/3 200/7/3
f 209/4/3 200/4/3 208/4/3
f 210/6/3 203/6/3 202/6/3
f 211/6/3 203/6/3 210/6/3
f 212/5/3 206/5/3 205/5/3
f 212/5/3 205/5/3 204/5/3
f 213/5/3 206/5/3 212/5/3
f 214/7/3 209/7/3 208/7/3
f 215/7/3 195/7/3 209/7/3
f 215/7/3 209/7/3 214/7/3
f 215/5/3 196/5/3 195/5/3
f 216/7/3 211/7/3 210/7/3
f 217/7/3 211/7/3 216/7/3
f 218/5/3 212/5/3 204/5/3
f 220/5/3 215/5/3 214/5/3
f 221/5/3 196/5/3 215/5/3
f 221/5/3 215/5/3 220/5/3
f 223/6/3 217/6/3 216/6/3
f 224/6/3 217/6/3 223/6/3
f 225/5/3 219/5/3 218/5/3
f 225/5/3 218/5/3 204/5/3
f 226/5/3 219/5/3 225/5/3
f 227/5/3 219/5/3 226/5/3
f 229/7/3 221/7/3 220/7/3
f 230/7/3 221/7/3 229/7/3
f 231/6/3 223/6/3 222/6/3
f 232/6/3 223/6/3 231/6/3
f 233/4/3 230/4/3 229/4/3
f 233/7/3 229/7/3 228/7/3
f 234/7/3 221/7/3 230/7/3
f 234/4/3 230/4/3 233/4/3
f 235/5/3 228/5/3 227/5/3
f 235/5/3 227/5/3 226/5/3
f 236/7/3 233/7/3 228/7/3
f 236/5/3 228/5/3 235/5/3
f 236/7/3 234/7/3 233/7/3
f 237/5/3 196/5/3 221/5/3
f 237/7/3 234/7/3 236/7/3
f 237/7/3 221/7/3 234/7/3
f 238/5/3 196/5/3 237/5/3
f 245/6/3 244/6/3 243/6/3
f 246/6/3 244/6/3 245/6/3
f 247/5/3 240/5/3 239/5/3
f 248/5/3 240/5/3 247/5/3
f 249/7/3 242/7/3 241/7/3
f 250/7/3 242/7/3 249/7/3
f 255/5/3 252/5/3 251/5/3
f 256/5/3 252/5/3 255/5/3
f 261/7/3 254/7/3 253/7/3
f 262/7/3 254/7/3 261/7/3
f 263/6/3 258/6/3 257/6/3
f 264/6/3 258/6/3 263/6/3
f 265/5/3 260/5/3 259/5/3
f 266/5/3 260/5/3 265/5/3
f 269/7/3 268/7/3 267/7/3
f 270/7/3 268/7/3 269/7/3
f 273/7/3 272/7/3 271/7/3
f 274/7/3 272/7/3 273/7/3
f 277/6/3 270/6/3 269/6/3
f 278/6/3 270/6/3 277/6/3
f 279/7/3 272/7/3 274/7/3
f 280/7/3 272/7/3 279/7/3
f 281/6/3 276/6/3 275/6/3
f 282/6/3 276/6/3 281/6/3
f 285/6/3 284/6/3 283/6/3
f 286/6/3 284/6/3 285/6/3
f 292/7/3 290/7/3 289/7/3
f 293/7/3 292/7/3 291/7/3
f 294/7/3 290/7/3 292/7/3
f 294/7/3 292/7/3 293/7/3
f 295/6/3 288/6/3 287/6/3
f 296/6/3 288/6/3 295/6/3
f 297/7/3 296/7/3 295/7/3
f 298/7/3 296/7/3 297/7/3
f 299/7/4 300/7/4 301/7/4
f 301/7/4 300/7/4 302/7/4
f 303/7/4 304/7/4 305/7/4
f 305/7/4 304/7/4 306/7/4
f 301/6/4 302/6/4 310/6/4
f 310/6/4 302/6/4 311/6/4
f 306/7/4 304/7/4 312/7/4
f 312/7/4 304/7/4 313/7/4
f 307/7/4 308/7/4 314/7/4
f 308/6/4 309/6/4 315/6/4
f 314/7/4 308/7/4 315/7/4
f 315/6/4 309/6/4 316/6/4
f 317/7/4 318/7/4 320/7/4
f 318/6/4 319/6/4 321/6/4
f 320/7/4 318/7/4 321/7/4
f 321/6/4 319/6/4 322/6/4
f 325/7/4 326/7/4 328/7/4
f 327/7/4 328/7/4 329/7/4
f 328/7/4 326/7/4 330/7/4
f 329/7/4 328/7/4 330/7/4
f 323/6/4 324/6/4 331/6/4
f 331/6/4 324/6/4 332/6/4
f 331/7/4 332/7/4 333/7/4
f 333/7/4 332/7/4 334/7/4
f 337/6/4 338/6/4 339/6/4
f 339/6/4 338/6/4 340/6/4
f 335/5/4 336/5/4 341/5/4
f 341/5/4 336/5/4 342/5/4
f 343/5/4 344/5/4 345/5/4
f 345/5/4 344/5/4 346/5/4
f 347/6/4 348/6/4 351/6/4
f 351/6/4 348/6/4 352/6/4
f 349/5/4 350/5/4 353/5/4
f 353/5/4 350/5/4 354/5/4
f 357/6/4 358/6/4 359/6/4
f 355/5/4 356/5/4 362/5/4
f 359/6/4 360/6/4 363/6/4
f 357/6/4 359/6/4 363/6/4
f 363/6/4 360/6/4 364/6/4
f 361/5/4 362/5/4 365/5/4
f 362/5/4 356/5/4 366/5/4
f 365/5/4 362/5/4 366/5/4
f 357/6/4 363/6/4 367/6/4
f 367/6/4 363/6/4 368/6/4
f 366/5/4 356/5/4 369/5/4
f 369/5/4 356/5/4 370/5/4
f 375/7/5 372/7/5 371/7/5
f 376/7/5 372/7/5 375/7/5
f 377/7/5 374/7/5 373/7/5
f 378/7/5 374/7/5 377/7/5
f 382/6/5 380/6/5 379/6/5
f 383/6/5 380/6/5 382/6/5
f 385/6/5 382/6/5 381/6/5
f 385/6/5 384/6/5 383/6/5
f 385/6/5 383/6/5 382/6/5
f 386/6/5 384/6/5 385/6/5
f 387/6/5 384/6/5 386/6/5
f 388/6/5 384/6/5 387/6/5
f 390/6/5 387/6/5 386/6/5
f 391/6/5 387/6/5 390/6/5
f 393/6/5 390/6/5 389/6/5
f 393/6/5 392/6/5 391/6/5
f 393/6/5 391/6/5 390/6/5
f 394/6/5 392/6/5 393/6/5
f 401/7/5 396/7/5 395/7/5
f 402/6/5 397/6/5 396/6/5
f 402/7/5 396/7/5 401/7/5
f 403/6/5 397/6/5 402/6/5
f 404/6/5 399/6/5 398/6/5
f 405/7/5 400/7/5 399/7/5
f 405/6/5 399/6/5 404/6/5
f 406/7/5 400/7/5 405/7/5
f 410/5/5 408/5/5 407/5/5
f 411/5/5 408/5/5 410/5/5
f 412/5/5 408/5/5 411/5/5
f 413/5/5 408/5/5 412/5/5
f 415/5/5 410/5/5 409/5/5
f 415/5/5 411/5/5 410/5/5
f 416/5/5 411/5/5 415/5/5
f 417/5/5 411/5/5 416/5/5
f 418/5/5 414/5/5 413/5/5
f 418/5/5 413/5/5 412/5/5
f 419/5/5 414/5/5 418/5/5
f 420/5/5 414/5/5 419/5/5
f 421/5/5 417/5/5 416/5/5
f 421/5/5 419/5/5 418/5/5
f 421/5/5 418/5/5 417/5/5
f 422/5/5 419/5/5 421/5/5
f 427/5/5 424/5/5 423/5/5
f 428/5/5 424/5/5 427/5/5
f 431/5/5 426/5/5 425/5/5
f 432/5/5 426/5/5 431/5/5
f 433/5/5 430/5/5 429/5/5
f 434/5/5 430/5/5 433/5/5
f 439/5/5 436/5/5 435/5/5
f 440/5/5 436/5/5 439/5/5
f 441/5/5 438/5/5 437/5/5
f 442/5/5 438/5/5 441/5/5
f 447/5/5 444/5/5 443/5/5
f 448/5/5 444/5/5 447/5/5
f 449/5/5 446/5/5 445/5/5
f 450/5/5 446/5/5 449/5/5
f 455/7/5 452/7/5 451/7/5
f 456/7/5 452/7/5 455/7/5
f 457/7/5 454/7/5 453/7/5
f 458/7/5 454/7/5 457/7/5
f 459/7/6 460/7/6 463/7/6
f 463/7/6 460/7/6 464/7/6
f 461/7/6 462/7/6 465/7/6
f 465/7/6 462/7/6 466/7/6
f 467/6/6 468/6/6 472/6/6
f 468/5/6 469/5/6 473/5/6
f 472/6/6 468/6/6 473/6/6
f 469/6/6 470/6/6 474/6/6
f 473/5/6 469/5/6 474/5/6
f 474/6/6 470/6/6 475/6/6
f 471/6/6 472/6/6 477/6/6
f 477/6/6 472/6/6 478/6/6
f 475/6/6 476/6/6 479/6/6
f 479/6/6 476/6/6 480/6/6
f 481/6/6 482/6/6 485/6/6
f 485/6/6 482/6/6 486/6/6
f 483/6/6 484/6/6 487/6/6
f 487/6/6 484/6/6 488/6/6
f 489/6/6 490/6/6 494/6/6
f 490/7/6 491/7/6 495/7/6
f 494/6/6 490/6/6 495/6/6
f 491/6/6 492/6/6 496/6/6
f 495/7/6 491/7/6 496/7/6
f 496/6/6 492/6/6 497/6/6
f 494/6/6 495/6/6 501/6/6
f 493/6/6 494/6/6 501/6/6
f 496/6/6 497/6/6 502/6/6
f 497/6/6 498/6/6 502/6/6
f 499/7/6 500/7/6 505/7/6
f 500/6/6 501/6/6 506/6/6
f 505/7/6 500/7/6 506/7/6
f 501/6/6 495/6/6 507/6/6
f 506/6/6 501/6/6 507/6/6
f 496/6/6 502/6/6 508/6/6
f 502/6/6 503/6/6 508/6/6
f 503/7/6 504/7/6 509/7/6
f 508/6/6 503/6/6 509/6/6
f 509/7/6 504/7/6 510/7/6
f 507/6/6 495/6/6 511/6/6
f 511/6/6 495/6/6 512/6/6
f 512/6/6 495/6/6 513/6/6
f 496/6/6 508/6/6 514/6/6
f 514/6/6 508/6/6 515/6/6
f 515/6/6 508/6/6 516/6/6
f 512/6/6 513/6/6 517/6/6
f 514/6/6 515/6/6 517/6/6
f 513/6/6 514/6/6 517/6/6
f 517/6/6 515/6/6 518/6/6
f 519/5/6 520/5/6 523/5/6
f 520/7/6 521/7/6 524/7/6
f 523/5/6 520/5/6 524/5/6
f 521/5/6 522/5/6 525/5/6
f 524/7/6 521/7/6 525/7/6
f 525/5/6 522/5/6 526/5/6
f 527/5/6 528/5/6 529/5/6
f 529/5/6 528/5/6 530/5/6
f 530/5/6 528/5/6 531/5/6
f 531/5/6 528/5/6 532/5/6
f 530/5/6 531/5/6 534/5/6
f 534/5/6 531/5/6 535/5/6
f 533/5/6 534/5/6 537/5/6
f 535/5/6 536/5/6 537/5/6
f 534/5/6 535/5/6 537/5/6
f 537/5/6 536/5/6 538/5/6
f 539/7/6 540/7/6 543/7/6
f 543/7/6 540/7/6 544/7/6
f 541/7/6 542/7/6 545/7/6
f 545/7/6 542/7/6 546/7/6
