# MagicaVoxel @ Ephtracy

# material
mtllib Car2.mtl
usemtl palette

# normals
vn -1 0 0
vn 1 0 0
vn 0 0 1
vn 0 0 -1
vn 0 -1 0
vn 0 1 0

# texcoords
vt 0.0214844 0.5
vt 0.0878906 0.5
vt 0.0917969 0.5
vt 0.798828 0.5
vt 0.849609 0.5
vt 0.958984 0.5
vt 0.962891 0.5
vt 0.970703 0.5
vt 0.974609 0.5
vt 0.978516 0.5
vt 0.982422 0.5
vt 0.986328 0.5
vt 0.990234 0.5
vt 0.994141 0.5

# verts
v -5.5 0 9.5
v -5.5 0 5.5
v -5.5 0 -6.5
v -5.5 0 -10.5
v -5.5 1 12.5
v -5.5 1 9.5
v -5.5 1 8.5
v -5.5 1 6.5
v -5.5 1 5.5
v -5.5 1 -6.5
v -5.5 1 -7.5
v -5.5 1 -9.5
v -5.5 1 -10.5
v -5.5 1 -12.5
v -5.5 2 12.5
v -5.5 2 10.5
v -5.5 2 9.5
v -5.5 2 5.5
v -5.5 2 -6.5
v -5.5 2 -10.5
v -5.5 2 -11.5
v -5.5 2 -12.5
v -5.5 3 12.5
v -5.5 3 10.5
v -5.5 3 8.5
v -5.5 3 6.5
v -5.5 3 -7.5
v -5.5 3 -9.5
v -5.5 3 -11.5
v -5.5 3 -12.5
v -5.5 4 9.5
v -5.5 4 5.5
v -5.5 4 2.5
v -5.5 4 1.5
v -5.5 4 0.5
v -5.5 4 -0.5
v -5.5 4 -1.5
v -5.5 4 -2.5
v -5.5 4 -3.5
v -5.5 4 -4.5
v -5.5 4 -6.5
v -5.5 4 -10.5
v -5.5 4 -11.5
v -5.5 4 -12.5
v -5.5 5 3.5
v -5.5 5 2.5
v -5.5 5 1.5
v -5.5 5 0.5
v -5.5 5 -0.5
v -5.5 5 -1.5
v -5.5 5 -2.5
v -5.5 5 -3.5
v -5.5 5 -4.5
v -5.5 5 -5.5
v -5.5 5 -11.5
v -5.5 5 -12.5
v -5.5 6 12.5
v -5.5 6 5.5
v -5.5 6 3.5
v -5.5 6 2.5
v -5.5 6 1.5
v -5.5 6 0.5
v -5.5 6 -0.5
v -5.5 6 -1.5
v -5.5 6 -2.5
v -5.5 6 -3.5
v -5.5 6 -4.5
v -5.5 6 -5.5
v -5.5 6 -10.5
v -5.5 6 -12.5
v -5.5 7 4.5
v -5.5 7 -0.5
v -5.5 7 -1.5
v -5.5 7 -6.5
v -5.5 7 -7.5
v -5.5 7 -9.5
v -5.5 8 -8.5
v -5.5 8 -9.5
v -5.5 9 -9.5
v -5.5 9 -10.5
v -5.5 10 4.5
v -5.5 10 -0.5
v -5.5 10 -1.5
v -5.5 10 -6.5
v -5.5 10 -7.5
v -5.5 10 -8.5
v -5.5 10 -9.5
v -5.5 11 5.5
v -5.5 11 -8.5
v -3.5 11 3.5
v -3.5 11 2.5
v -3.5 12 3.5
v -3.5 12 2.5
v -2.5 11 2.5
v -2.5 11 1.5
v -2.5 12 3.5
v -2.5 12 2.5
v -2.5 12 1.5
v -2.5 13 3.5
v -2.5 13 2.5
v 4.5 0 9.5
v 4.5 0 5.5
v 4.5 0 -6.5
v 4.5 0 -10.5
v 4.5 1 9.5
v 4.5 1 5.5
v 4.5 1 -6.5
v 4.5 1 -10.5
v -4.5 0 9.5
v -4.5 0 5.5
v -4.5 0 -6.5
v -4.5 0 -10.5
v -4.5 1 9.5
v -4.5 1 5.5
v -4.5 1 -6.5
v -4.5 1 -10.5
v 2.5 11 2.5
v 2.5 11 1.5
v 2.5 12 3.5
v 2.5 12 2.5
v 2.5 12 1.5
v 2.5 13 3.5
v 2.5 13 2.5
v 3.5 11 3.5
v 3.5 11 2.5
v 3.5 12 3.5
v 3.5 12 2.5
v 5.5 0 9.5
v 5.5 0 5.5
v 5.5 0 -6.5
v 5.5 0 -10.5
v 5.5 1 12.5
v 5.5 1 9.5
v 5.5 1 8.5
v 5.5 1 6.5
v 5.5 1 5.5
v 5.5 1 -6.5
v 5.5 1 -7.5
v 5.5 1 -9.5
v 5.5 1 -10.5
v 5.5 1 -12.5
v 5.5 2 12.5
v 5.5 2 10.5
v 5.5 2 9.5
v 5.5 2 5.5
v 5.5 2 -6.5
v 5.5 2 -10.5
v 5.5 2 -11.5
v 5.5 2 -12.5
v 5.5 3 12.5
v 5.5 3 10.5
v 5.5 3 8.5
v 5.5 3 6.5
v 5.5 3 -7.5
v 5.5 3 -9.5
v 5.5 3 -11.5
v 5.5 3 -12.5
v 5.5 4 9.5
v 5.5 4 5.5
v 5.5 4 2.5
v 5.5 4 1.5
v 5.5 4 0.5
v 5.5 4 -0.5
v 5.5 4 -1.5
v 5.5 4 -2.5
v 5.5 4 -3.5
v 5.5 4 -4.5
v 5.5 4 -6.5
v 5.5 4 -10.5
v 5.5 4 -11.5
v 5.5 4 -12.5
v 5.5 5 3.5
v 5.5 5 2.5
v 5.5 5 1.5
v 5.5 5 0.5
v 5.5 5 -0.5
v 5.5 5 -1.5
v 5.5 5 -2.5
v 5.5 5 -3.5
v 5.5 5 -4.5
v 5.5 5 -5.5
v 5.5 5 -11.5
v 5.5 5 -12.5
v 5.5 6 12.5
v 5.5 6 5.5
v 5.5 6 3.5
v 5.5 6 2.5
v 5.5 6 1.5
v 5.5 6 0.5
v 5.5 6 -0.5
v 5.5 6 -1.5
v 5.5 6 -2.5
v 5.5 6 -3.5
v 5.5 6 -4.5
v 5.5 6 -5.5
v 5.5 6 -10.5
v 5.5 6 -12.5
v 5.5 7 4.5
v 5.5 7 -0.5
v 5.5 7 -1.5
v 5.5 7 -6.5
v 5.5 7 -7.5
v 5.5 7 -9.5
v 5.5 8 -8.5
v 5.5 8 -9.5
v 5.5 9 -9.5
v 5.5 9 -10.5
v 5.5 10 4.5
v 5.5 10 -0.5
v 5.5 10 -1.5
v 5.5 10 -6.5
v 5.5 10 -7.5
v 5.5 10 -8.5
v 5.5 10 -9.5
v 5.5 11 5.5
v 5.5 11 -8.5
v -5.5 1 12.5
v -5.5 2 12.5
v -5.5 3 12.5
v -5.5 6 12.5
v -4.5 3 12.5
v -4.5 4 12.5
v -4.5 5 12.5
v -3.5 3 12.5
v -3.5 4 12.5
v -3.5 5 12.5
v -1.5 2 12.5
v -1.5 3 12.5
v 1.5 2 12.5
v 1.5 3 12.5
v 3.5 3 12.5
v 3.5 4 12.5
v 3.5 5 12.5
v 4.5 3 12.5
v 4.5 4 12.5
v 4.5 5 12.5
v 5.5 1 12.5
v 5.5 2 12.5
v 5.5 3 12.5
v 5.5 6 12.5
v -5.5 0 9.5
v -5.5 1 9.5
v -4.5 0 9.5
v -4.5 1 9.5
v 4.5 0 9.5
v 4.5 1 9.5
v 5.5 0 9.5
v 5.5 1 9.5
v -5.5 6 5.5
v -5.5 11 5.5
v -4.5 6 5.5
v -4.5 10 5.5
v -3.5 8 5.5
v -3.5 9 5.5
v -2.5 8 5.5
v -2.5 9 5.5
v 4.5 6 5.5
v 4.5 10 5.5
v 5.5 6 5.5
v 5.5 11 5.5
v -3.5 11 3.5
v -3.5 12 3.5
v -2.5 11 3.5
v -2.5 12 3.5
v -2.5 13 3.5
v -1.5 11 3.5
v -1.5 12 3.5
v -1.5 13 3.5
v -0.5 11 3.5
v -0.5 12 3.5
v -0.5 13 3.5
v 0.5 11 3.5
v 0.5 12 3.5
v 0.5 13 3.5
v 1.5 11 3.5
v 1.5 12 3.5
v 1.5 13 3.5
v 2.5 11 3.5
v 2.5 12 3.5
v 2.5 13 3.5
v 3.5 11 3.5
v 3.5 12 3.5
v -5.5 0 -6.5
v -5.5 1 -6.5
v -4.5 0 -6.5
v -4.5 1 -6.5
v 4.5 0 -6.5
v 4.5 1 -6.5
v 5.5 0 -6.5
v 5.5 1 -6.5
v -5.5 0 5.5
v -5.5 1 5.5
v -4.5 0 5.5
v -4.5 1 5.5
v 4.5 0 5.5
v 4.5 1 5.5
v 5.5 0 5.5
v 5.5 1 5.5
v -3.5 11 2.5
v -3.5 12 2.5
v -2.5 11 2.5
v -2.5 12 2.5
v -2.5 13 2.5
v -1.5 12 2.5
v -1.5 13 2.5
v -0.5 12 2.5
v -0.5 13 2.5
v 0.5 12 2.5
v 0.5 13 2.5
v 1.5 12 2.5
v 1.5 13 2.5
v 2.5 11 2.5
v 2.5 12 2.5
v 2.5 13 2.5
v 3.5 11 2.5
v 3.5 12 2.5
v -2.5 11 1.5
v -2.5 12 1.5
v 2.5 11 1.5
v 2.5 12 1.5
v -5.5 10 -8.5
v -5.5 11 -8.5
v -4.5 10 -8.5
v 4.5 10 -8.5
v 5.5 10 -8.5
v 5.5 11 -8.5
v -5.5 9 -9.5
v -5.5 10 -9.5
v -4.5 9 -9.5
v -4.5 10 -9.5
v 4.5 9 -9.5
v 4.5 10 -9.5
v 5.5 9 -9.5
v 5.5 10 -9.5
v -5.5 0 -10.5
v -5.5 1 -10.5
v -5.5 6 -10.5
v -5.5 9 -10.5
v -4.5 0 -10.5
v -4.5 1 -10.5
v -4.5 7 -10.5
v -4.5 9 -10.5
v 4.5 0 -10.5
v 4.5 1 -10.5
v 4.5 7 -10.5
v 4.5 9 -10.5
v 5.5 0 -10.5
v 5.5 1 -10.5
v 5.5 6 -10.5
v 5.5 9 -10.5
v -5.5 1 -12.5
v -5.5 2 -12.5
v -5.5 3 -12.5
v -5.5 4 -12.5
v -5.5 5 -12.5
v -5.5 6 -12.5
v -4.5 4 -12.5
v -4.5 5 -12.5
v 4.5 4 -12.5
v 4.5 5 -12.5
v 5.5 1 -12.5
v 5.5 2 -12.5
v 5.5 3 -12.5
v 5.5 4 -12.5
v 5.5 5 -12.5
v 5.5 6 -12.5
v -5.5 0 9.5
v -4.5 0 9.5
v 4.5 0 9.5
v 5.5 0 9.5
v -5.5 0 5.5
v -4.5 0 5.5
v 4.5 0 5.5
v 5.5 0 5.5
v -5.5 0 -6.5
v -4.5 0 -6.5
v 4.5 0 -6.5
v 5.5 0 -6.5
v -5.5 0 -10.5
v -4.5 0 -10.5
v 4.5 0 -10.5
v 5.5 0 -10.5
v -5.5 1 12.5
v 5.5 1 12.5
v -4.5 1 11.5
v 4.5 1 11.5
v -5.5 1 9.5
v -4.5 1 9.5
v 4.5 1 9.5
v 5.5 1 9.5
v -5.5 1 5.5
v -4.5 1 5.5
v 4.5 1 5.5
v 5.5 1 5.5
v -5.5 1 -6.5
v -4.5 1 -6.5
v 4.5 1 -6.5
v 5.5 1 -6.5
v -5.5 1 -10.5
v -4.5 1 -10.5
v 4.5 1 -10.5
v 5.5 1 -10.5
v -4.5 1 -11.5
v 4.5 1 -11.5
v -5.5 1 -12.5
v 5.5 1 -12.5
v -5.5 6 12.5
v 5.5 6 12.5
v -3.5 6 8.5
v -2.5 6 8.5
v -1.5 6 8.5
v -0.5 6 8.5
v 0.5 6 8.5
v 1.5 6 8.5
v 2.5 6 8.5
v 3.5 6 8.5
v -4.5 6 7.5
v -3.5 6 7.5
v -2.5 6 7.5
v -1.5 6 7.5
v -0.5 6 7.5
v 0.5 6 7.5
v 1.5 6 7.5
v 2.5 6 7.5
v 3.5 6 7.5
v 4.5 6 7.5
v -4.5 6 6.5
v -3.5 6 6.5
v -2.5 6 6.5
v -1.5 6 6.5
v -0.5 6 6.5
v 0.5 6 6.5
v 1.5 6 6.5
v 2.5 6 6.5
v 3.5 6 6.5
v 4.5 6 6.5
v -5.5 6 5.5
v -4.5 6 5.5
v 4.5 6 5.5
v 5.5 6 5.5
v -5.5 6 -10.5
v 5.5 6 -10.5
v -5.5 6 -12.5
v 5.5 6 -12.5
v -5.5 9 -9.5
v -4.5 9 -9.5
v 4.5 9 -9.5
v 5.5 9 -9.5
v -5.5 9 -10.5
v -4.5 9 -10.5
v 4.5 9 -10.5
v 5.5 9 -10.5
v -5.5 10 -8.5
v -4.5 10 -8.5
v 4.5 10 -8.5
v 5.5 10 -8.5
v -5.5 10 -9.5
v -4.5 10 -9.5
v 4.5 10 -9.5
v 5.5 10 -9.5
v -5.5 11 5.5
v 5.5 11 5.5
v -3.5 11 3.5
v -2.5 11 3.5
v -1.5 11 3.5
v -0.5 11 3.5
v 0.5 11 3.5
v 1.5 11 3.5
v 2.5 11 3.5
v 3.5 11 3.5
v -3.5 11 2.5
v -2.5 11 2.5
v 2.5 11 2.5
v 3.5 11 2.5
v -2.5 11 1.5
v 2.5 11 1.5
v -5.5 11 -8.5
v 5.5 11 -8.5
v -3.5 12 3.5
v -2.5 12 3.5
v 2.5 12 3.5
v 3.5 12 3.5
v -3.5 12 2.5
v -2.5 12 2.5
v -1.5 12 2.5
v -0.5 12 2.5
v 0.5 12 2.5
v 1.5 12 2.5
v 2.5 12 2.5
v 3.5 12 2.5
v -2.5 12 1.5
v 2.5 12 1.5
v -2.5 13 3.5
v -1.5 13 3.5
v -0.5 13 3.5
v 0.5 13 3.5
v 1.5 13 3.5
v 2.5 13 3.5
v -2.5 13 2.5
v -1.5 13 2.5
v -0.5 13 2.5
v 0.5 13 2.5
v 1.5 13 2.5
v 2.5 13 2.5

# faces
f 6/14/1 2/14/1 1/14/1
f 7/14/1 2/14/1 6/14/1
f 8/14/1 2/14/1 7/14/1
f 9/14/1 2/14/1 8/14/1
f 10/14/1 4/14/1 3/14/1
f 11/14/1 4/14/1 10/14/1
f 12/14/1 4/14/1 11/14/1
f 13/14/1 4/14/1 12/14/1
f 15/9/1 6/9/1 5/9/1
f 16/9/1 6/9/1 15/9/1
f 17/14/1 7/14/1 6/14/1
f 17/9/1 6/9/1 16/9/1
f 18/14/1 9/14/1 8/14/1
f 18/9/1 10/9/1 9/9/1
f 19/14/1 11/14/1 10/14/1
f 19/9/1 10/9/1 18/9/1
f 20/9/1 14/9/1 13/9/1
f 20/14/1 13/14/1 12/14/1
f 21/9/1 14/9/1 20/9/1
f 22/9/1 14/9/1 21/9/1
f 23/8/1 16/8/1 15/8/1
f 24/1/1 17/1/1 16/1/1
f 24/8/1 16/8/1 23/8/1
f 25/14/1 7/14/1 17/14/1
f 25/11/1 8/11/1 7/11/1
f 26/14/1 18/14/1 8/14/1
f 26/11/1 8/11/1 25/11/1
f 27/14/1 11/14/1 19/14/1
f 27/11/1 12/11/1 11/11/1
f 28/14/1 20/14/1 12/14/1
f 28/11/1 12/11/1 27/11/1
f 29/1/1 21/1/1 20/1/1
f 29/8/1 22/8/1 21/8/1
f 30/8/1 22/8/1 29/8/1
f 31/1/1 17/1/1 24/1/1
f 31/1/1 24/1/1 23/1/1
f 31/14/1 25/14/1 17/14/1
f 31/14/1 26/14/1 25/14/1
f 32/14/1 18/14/1 26/14/1
f 32/14/1 26/14/1 31/14/1
f 32/1/1 19/1/1 18/1/1
f 33/1/1 19/1/1 32/1/1
f 34/1/1 19/1/1 33/1/1
f 35/1/1 19/1/1 34/1/1
f 36/1/1 19/1/1 35/1/1
f 37/1/1 19/1/1 36/1/1
f 38/1/1 19/1/1 37/1/1
f 39/1/1 19/1/1 38/1/1
f 40/1/1 19/1/1 39/1/1
f 41/14/1 28/14/1 27/14/1
f 41/1/1 19/1/1 40/1/1
f 41/14/1 27/14/1 19/14/1
f 42/1/1 30/1/1 29/1/1
f 42/14/1 28/14/1 41/14/1
f 42/1/1 29/1/1 20/1/1
f 42/14/1 20/14/1 28/14/1
f 43/1/1 30/1/1 42/1/1
f 44/1/1 30/1/1 43/1/1
f 45/1/1 32/1/1 31/1/1
f 45/1/1 33/1/1 32/1/1
f 46/14/1 34/14/1 33/14/1
f 46/1/1 33/1/1 45/1/1
f 47/1/1 35/1/1 34/1/1
f 47/14/1 34/14/1 46/14/1
f 48/14/1 36/14/1 35/14/1
f 48/1/1 35/1/1 47/1/1
f 49/1/1 37/1/1 36/1/1
f 49/14/1 36/14/1 48/14/1
f 50/14/1 38/14/1 37/14/1
f 50/1/1 37/1/1 49/1/1
f 51/1/1 39/1/1 38/1/1
f 51/14/1 38/14/1 50/14/1
f 52/14/1 40/14/1 39/14/1
f 52/1/1 39/1/1 51/1/1
f 53/1/1 41/1/1 40/1/1
f 53/14/1 40/14/1 52/14/1
f 53/1/1 42/1/1 41/1/1
f 53/1/1 43/1/1 42/1/1
f 54/1/1 43/1/1 53/1/1
f 55/5/1 44/5/1 43/5/1
f 55/1/1 43/1/1 54/1/1
f 56/5/1 44/5/1 55/5/1
f 57/1/1 31/1/1 23/1/1
f 57/1/1 45/1/1 31/1/1
f 58/1/1 45/1/1 57/1/1
f 59/14/1 46/14/1 45/14/1
f 59/1/1 45/1/1 58/1/1
f 60/1/1 47/1/1 46/1/1
f 60/14/1 46/14/1 59/14/1
f 61/14/1 48/14/1 47/14/1
f 61/1/1 47/1/1 60/1/1
f 62/1/1 49/1/1 48/1/1
f 62/14/1 48/14/1 61/14/1
f 63/14/1 50/14/1 49/14/1
f 63/1/1 49/1/1 62/1/1
f 64/1/1 51/1/1 50/1/1
f 64/14/1 50/14/1 63/14/1
f 65/14/1 52/14/1 51/14/1
f 65/1/1 51/1/1 64/1/1
f 66/1/1 53/1/1 52/1/1
f 66/14/1 52/14/1 65/14/1
f 67/14/1 54/14/1 53/14/1
f 67/1/1 53/1/1 66/1/1
f 68/1/1 56/1/1 55/1/1
f 68/14/1 54/14/1 67/14/1
f 68/1/1 55/1/1 54/1/1
f 69/1/1 56/1/1 68/1/1
f 70/1/1 56/1/1 69/1/1
f 71/1/1 64/1/1 63/1/1
f 71/1/1 61/1/1 60/1/1
f 71/1/1 69/1/1 68/1/1
f 71/1/1 68/1/1 67/1/1
f 71/1/1 63/1/1 62/1/1
f 71/1/1 65/1/1 64/1/1
f 71/1/1 59/1/1 58/1/1
f 71/1/1 67/1/1 66/1/1
f 71/1/1 66/1/1 65/1/1
f 71/1/1 60/1/1 59/1/1
f 71/1/1 62/1/1 61/1/1
f 72/1/1 69/1/1 71/1/1
f 73/1/1 69/1/1 72/1/1
f 74/1/1 69/1/1 73/1/1
f 75/1/1 69/1/1 74/1/1
f 76/1/1 69/1/1 75/1/1
f 77/13/1 76/13/1 75/13/1
f 78/1/1 69/1/1 76/1/1
f 78/13/1 76/13/1 77/13/1
f 79/1/1 78/1/1 77/1/1
f 79/1/1 69/1/1 78/1/1
f 80/1/1 69/1/1 79/1/1
f 81/1/1 71/1/1 58/1/1
f 81/13/1 72/13/1 71/13/1
f 82/1/1 73/1/1 72/1/1
f 82/13/1 72/13/1 81/13/1
f 83/13/1 74/13/1 73/13/1
f 83/1/1 73/1/1 82/1/1
f 84/1/1 75/1/1 74/1/1
f 84/13/1 74/13/1 83/13/1
f 85/13/1 77/13/1 75/13/1
f 85/1/1 75/1/1 84/1/1
f 86/1/1 79/1/1 77/1/1
f 86/13/1 77/13/1 85/13/1
f 87/1/1 79/1/1 86/1/1
f 88/1/1 85/1/1 84/1/1
f 88/1/1 81/1/1 58/1/1
f 88/1/1 86/1/1 85/1/1
f 88/1/1 84/1/1 83/1/1
f 88/1/1 83/1/1 82/1/1
f 88/1/1 82/1/1 81/1/1
f 89/1/1 86/1/1 88/1/1
f 92/14/1 91/14/1 90/14/1
f 93/14/1 91/14/1 92/14/1
f 97/3/1 95/3/1 94/3/1
f 98/3/1 95/3/1 97/3/1
f 99/14/1 97/14/1 96/14/1
f 100/14/1 97/14/1 99/14/1
f 105/14/1 102/14/1 101/14/1
f 106/14/1 102/14/1 105/14/1
f 107/14/1 104/14/1 103/14/1
f 108/14/1 104/14/1 107/14/1
f 109/14/2 110/14/2 113/14/2
f 113/14/2 110/14/2 114/14/2
f 111/14/2 112/14/2 115/14/2
f 115/14/2 112/14/2 116/14/2
f 117/3/2 118/3/2 120/3/2
f 120/3/2 118/3/2 121/3/2
f 119/14/2 120/14/2 122/14/2
f 122/14/2 120/14/2 123/14/2
f 124/14/2 125/14/2 126/14/2
f 126/14/2 125/14/2 127/14/2
f 128/14/2 129/14/2 133/14/2
f 133/14/2 129/14/2 134/14/2
f 134/14/2 129/14/2 135/14/2
f 135/14/2 129/14/2 136/14/2
f 130/14/2 131/14/2 137/14/2
f 137/14/2 131/14/2 138/14/2
f 138/14/2 131/14/2 139/14/2
f 139/14/2 131/14/2 140/14/2
f 132/9/2 133/9/2 142/9/2
f 142/9/2 133/9/2 143/9/2
f 133/14/2 134/14/2 144/14/2
f 143/9/2 133/9/2 144/9/2
f 135/14/2 136/14/2 145/14/2
f 136/9/2 137/9/2 145/9/2
f 137/14/2 138/14/2 146/14/2
f 145/9/2 137/9/2 146/9/2
f 140/9/2 141/9/2 147/9/2
f 139/14/2 140/14/2 147/14/2
f 147/9/2 141/9/2 148/9/2
f 148/9/2 141/9/2 149/9/2
f 142/8/2 143/8/2 150/8/2
f 143/1/2 144/1/2 151/1/2
f 150/8/2 143/8/2 151/8/2
f 144/14/2 134/14/2 152/14/2
f 134/11/2 135/11/2 152/11/2
f 135/14/2 145/14/2 153/14/2
f 152/11/2 135/11/2 153/11/2
f 146/14/2 138/14/2 154/14/2
f 138/11/2 139/11/2 154/11/2
f 139/14/2 147/14/2 155/14/2
f 154/11/2 139/11/2 155/11/2
f 147/1/2 148/1/2 156/1/2
f 148/8/2 149/8/2 156/8/2
f 156/8/2 149/8/2 157/8/2
f 151/1/2 144/1/2 158/1/2
f 150/1/2 151/1/2 158/1/2
f 144/14/2 152/14/2 158/14/2
f 152/14/2 153/14/2 158/14/2
f 153/14/2 145/14/2 159/14/2
f 158/14/2 153/14/2 159/14/2
f 145/1/2 146/1/2 159/1/2
f 159/1/2 146/1/2 160/1/2
f 160/1/2 146/1/2 161/1/2
f 161/1/2 146/1/2 162/1/2
f 162/1/2 146/1/2 163/1/2
f 163/1/2 146/1/2 164/1/2
f 164/1/2 146/1/2 165/1/2
f 165/1/2 146/1/2 166/1/2
f 166/1/2 146/1/2 167/1/2
f 154/14/2 155/14/2 168/14/2
f 167/1/2 146/1/2 168/1/2
f 146/14/2 154/14/2 168/14/2
f 156/1/2 157/1/2 169/1/2
f 168/14/2 155/14/2 169/14/2
f 147/1/2 156/1/2 169/1/2
f 155/14/2 147/14/2 169/14/2
f 169/1/2 157/1/2 170/1/2
f 170/1/2 157/1/2 171/1/2
f 158/1/2 159/1/2 172/1/2
f 159/1/2 160/1/2 172/1/2
f 160/14/2 161/14/2 173/14/2
f 172/1/2 160/1/2 173/1/2
f 161/1/2 162/1/2 174/1/2
f 173/14/2 161/14/2 174/14/2
f 162/14/2 163/14/2 175/14/2
f 174/1/2 162/1/2 175/1/2
f 163/1/2 164/1/2 176/1/2
f 175/14/2 163/14/2 176/14/2
f 164/14/2 165/14/2 177/14/2
f 176/1/2 164/1/2 177/1/2
f 165/1/2 166/1/2 178/1/2
f 177/14/2 165/14/2 178/14/2
f 166/14/2 167/14/2 179/14/2
f 178/1/2 166/1/2 179/1/2
f 167/1/2 168/1/2 180/1/2
f 179/14/2 167/14/2 180/14/2
f 168/1/2 169/1/2 180/1/2
f 169/1/2 170/1/2 180/1/2
f 180/1/2 170/1/2 181/1/2
f 170/5/2 171/5/2 182/5/2
f 181/1/2 170/1/2 182/1/2
f 182/5/2 171/5/2 183/5/2
f 150/1/2 158/1/2 184/1/2
f 158/1/2 172/1/2 184/1/2
f 184/1/2 172/1/2 185/1/2
f 172/14/2 173/14/2 186/14/2
f 185/1/2 172/1/2 186/1/2
f 173/1/2 174/1/2 187/1/2
f 186/14/2 173/14/2 187/14/2
f 174/14/2 175/14/2 188/14/2
f 187/1/2 174/1/2 188/1/2
f 175/1/2 176/1/2 189/1/2
f 188/14/2 175/14/2 189/14/2
f 176/14/2 177/14/2 190/14/2
f 189/1/2 176/1/2 190/1/2
f 177/1/2 178/1/2 191/1/2
f 190/14/2 177/14/2 191/14/2
f 178/14/2 179/14/2 192/14/2
f 191/1/2 178/1/2 192/1/2
f 179/1/2 180/1/2 193/1/2
f 192/14/2 179/14/2 193/14/2
f 180/14/2 181/14/2 194/14/2
f 193/1/2 180/1/2 194/1/2
f 182/1/2 183/1/2 195/1/2
f 194/14/2 181/14/2 195/14/2
f 181/1/2 182/1/2 195/1/2
f 195/1/2 183/1/2 196/1/2
f 196/1/2 183/1/2 197/1/2
f 190/1/2 191/1/2 198/1/2
f 187/1/2 188/1/2 198/1/2
f 195/1/2 196/1/2 198/1/2
f 194/1/2 195/1/2 198/1/2
f 189/1/2 190/1/2 198/1/2
f 191/1/2 192/1/2 198/1/2
f 185/1/2 186/1/2 198/1/2
f 193/1/2 194/1/2 198/1/2
f 192/1/2 193/1/2 198/1/2
f 186/1/2 187/1/2 198/1/2
f 188/1/2 189/1/2 198/1/2
f 198/1/2 196/1/2 199/1/2
f 199/1/2 196/1/2 200/1/2
f 200/1/2 196/1/2 201/1/2
f 201/1/2 196/1/2 202/1/2
f 202/1/2 196/1/2 203/1/2
f 202/13/2 203/13/2 204/13/2
f 203/1/2 196/1/2 205/1/2
f 204/13/2 203/13/2 205/13/2
f 204/1/2 205/1/2 206/1/2
f 205/1/2 196/1/2 206/1/2
f 206/1/2 196/1/2 207/1/2
f 185/1/2 198/1/2 208/1/2
f 198/13/2 199/13/2 208/13/2
f 199/1/2 200/1/2 209/1/2
f 208/13/2 199/13/2 209/13/2
f 200/13/2 201/13/2 210/13/2
f 209/1/2 200/1/2 210/1/2
f 201/1/2 202/1/2 211/1/2
f 210/13/2 201/13/2 211/13/2
f 202/13/2 204/13/2 212/13/2
f 211/1/2 202/1/2 212/1/2
f 204/1/2 206/1/2 213/1/2
f 212/13/2 204/13/2 213/13/2
f 213/1/2 206/1/2 214/1/2
f 211/1/2 212/1/2 215/1/2
f 185/1/2 208/1/2 215/1/2
f 212/1/2 213/1/2 215/1/2
f 210/1/2 211/1/2 215/1/2
f 209/1/2 210/1/2 215/1/2
f 208/1/2 209/1/2 215/1/2
f 215/1/2 213/1/2 216/1/2
f 221/8/3 219/8/3 218/8/3
f 221/1/3 220/1/3 219/1/3
f 222/1/3 220/1/3 221/1/3
f 223/1/3 220/1/3 222/1/3
f 224/8/3 221/8/3 218/8/3
f 224/6/3 222/6/3 221/6/3
f 225/2/3 223/2/3 222/2/3
f 225/6/3 222/6/3 224/6/3
f 226/1/3 220/1/3 223/1/3
f 226/2/3 223/2/3 225/2/3
f 227/9/3 218/9/3 217/9/3
f 227/8/3 224/8/3 218/8/3
f 228/12/3 225/12/3 224/12/3
f 228/8/3 224/8/3 227/8/3
f 229/9/3 227/9/3 217/9/3
f 229/6/3 228/6/3 227/6/3
f 230/12/3 225/12/3 228/12/3
f 230/6/3 228/6/3 229/6/3
f 231/8/3 230/8/3 229/8/3
f 231/12/3 225/12/3 230/12/3
f 232/11/3 226/11/3 225/11/3
f 232/12/3 225/12/3 231/12/3
f 233/1/3 220/1/3 226/1/3
f 233/11/3 226/11/3 232/11/3
f 234/6/3 232/6/3 231/6/3
f 234/8/3 231/8/3 229/8/3
f 235/2/3 233/2/3 232/2/3
f 235/6/3 232/6/3 234/6/3
f 236/1/3 220/1/3 233/1/3
f 236/2/3 233/2/3 235/2/3
f 237/9/3 229/9/3 217/9/3
f 238/8/3 234/8/3 229/8/3
f 238/9/3 229/9/3 237/9/3
f 239/1/3 235/1/3 234/1/3
f 239/8/3 234/8/3 238/8/3
f 239/1/3 236/1/3 235/1/3
f 240/1/3 220/1/3 236/1/3
f 240/1/3 236/1/3 239/1/3
f 243/14/3 242/14/3 241/14/3
f 244/14/3 242/14/3 243/14/3
f 247/14/3 246/14/3 245/14/3
f 248/14/3 246/14/3 247/14/3
f 251/1/3 250/1/3 249/1/3
f 252/1/3 250/1/3 251/1/3
f 253/13/3 252/13/3 251/13/3
f 254/13/3 252/13/3 253/13/3
f 255/13/3 253/13/3 251/13/3
f 255/7/3 254/7/3 253/7/3
f 256/13/3 252/13/3 254/13/3
f 256/7/3 254/7/3 255/7/3
f 257/13/3 255/13/3 251/13/3
f 257/13/3 256/13/3 255/13/3
f 258/1/3 250/1/3 252/1/3
f 258/13/3 256/13/3 257/13/3
f 258/13/3 252/13/3 256/13/3
f 259/1/3 258/1/3 257/1/3
f 260/1/3 250/1/3 258/1/3
f 260/1/3 258/1/3 259/1/3
f 263/14/3 262/14/3 261/14/3
f 264/14/3 262/14/3 263/14/3
f 266/3/3 264/3/3 263/3/3
f 267/14/3 265/14/3 264/14/3
f 267/3/3 264/3/3 266/3/3
f 268/14/3 265/14/3 267/14/3
f 269/14/3 267/14/3 266/14/3
f 270/3/3 268/3/3 267/3/3
f 270/14/3 267/14/3 269/14/3
f 271/3/3 268/3/3 270/3/3
f 272/3/3 270/3/3 269/3/3
f 273/14/3 271/14/3 270/14/3
f 273/3/3 270/3/3 272/3/3
f 274/14/3 271/14/3 273/14/3
f 275/14/3 273/14/3 272/14/3
f 276/3/3 274/3/3 273/3/3
f 276/14/3 273/14/3 275/14/3
f 277/3/3 274/3/3 276/3/3
f 278/3/3 276/3/3 275/3/3
f 279/14/3 277/14/3 276/14/3
f 279/3/3 276/3/3 278/3/3
f 280/14/3 277/14/3 279/14/3
f 281/14/3 279/14/3 278/14/3
f 282/14/3 279/14/3 281/14/3
f 285/14/3 284/14/3 283/14/3
f 286/14/3 284/14/3 285/14/3
f 289/14/3 288/14/3 287/14/3
f 290/14/3 288/14/3 289/14/3
f 291/14/4 292/14/4 293/14/4
f 293/14/4 292/14/4 294/14/4
f 295/14/4 296/14/4 297/14/4
f 297/14/4 296/14/4 298/14/4
f 299/14/4 300/14/4 301/14/4
f 301/14/4 300/14/4 302/14/4
f 302/14/4 303/14/4 304/14/4
f 304/14/4 303/14/4 305/14/4
f 304/3/4 305/3/4 306/3/4
f 306/3/4 305/3/4 307/3/4
f 306/14/4 307/14/4 308/14/4
f 308/14/4 307/14/4 309/14/4
f 308/3/4 309/3/4 310/3/4
f 310/3/4 309/3/4 311/3/4
f 310/14/4 311/14/4 313/14/4
f 313/14/4 311/14/4 314/14/4
f 312/14/4 313/14/4 315/14/4
f 315/14/4 313/14/4 316/14/4
f 317/3/4 318/3/4 319/3/4
f 319/3/4 318/3/4 320/3/4
f 321/1/4 322/1/4 323/1/4
f 323/1/4 322/1/4 324/1/4
f 324/1/4 322/1/4 325/1/4
f 325/1/4 322/1/4 326/1/4
f 327/1/4 328/1/4 329/1/4
f 329/1/4 328/1/4 330/1/4
f 329/13/4 330/13/4 331/13/4
f 331/13/4 330/13/4 332/13/4
f 331/1/4 332/1/4 333/1/4
f 333/1/4 332/1/4 334/1/4
f 335/14/4 336/14/4 339/14/4
f 339/14/4 336/14/4 340/14/4
f 337/1/4 338/1/4 341/1/4
f 341/1/4 338/1/4 342/1/4
f 337/1/4 341/1/4 345/1/4
f 341/13/4 342/13/4 345/13/4
f 345/13/4 342/13/4 346/13/4
f 343/14/4 344/14/4 347/14/4
f 347/14/4 344/14/4 348/14/4
f 337/1/4 345/1/4 349/1/4
f 345/1/4 346/1/4 349/1/4
f 349/1/4 346/1/4 350/1/4
f 353/1/4 354/1/4 357/1/4
f 354/5/4 355/5/4 357/5/4
f 355/1/4 356/1/4 358/1/4
f 357/5/4 355/5/4 358/5/4
f 353/1/4 357/1/4 359/1/4
f 357/1/4 358/1/4 359/1/4
f 358/1/4 356/1/4 360/1/4
f 359/1/4 358/1/4 360/1/4
f 351/9/4 352/9/4 361/9/4
f 352/8/4 353/8/4 362/8/4
f 361/9/4 352/9/4 362/9/4
f 353/1/4 359/1/4 363/1/4
f 362/8/4 353/8/4 363/8/4
f 359/5/4 360/5/4 364/5/4
f 363/1/4 359/1/4 364/1/4
f 360/1/4 356/1/4 365/1/4
f 364/5/4 360/5/4 365/5/4
f 365/1/4 356/1/4 366/1/4
f 371/14/5 368/14/5 367/14/5
f 372/14/5 368/14/5 371/14/5
f 373/14/5 370/14/5 369/14/5
f 374/14/5 370/14/5 373/14/5
f 379/14/5 376/14/5 375/14/5
f 380/14/5 376/14/5 379/14/5
f 381/14/5 378/14/5 377/14/5
f 382/14/5 378/14/5 381/14/5
f 385/9/5 384/9/5 383/9/5
f 386/9/5 384/9/5 385/9/5
f 387/9/5 385/9/5 383/9/5
f 388/10/5 386/10/5 385/10/5
f 388/9/5 385/9/5 387/9/5
f 389/9/5 384/9/5 386/9/5
f 389/10/5 386/10/5 388/10/5
f 390/9/5 384/9/5 389/9/5
f 392/10/5 389/10/5 388/10/5
f 393/10/5 389/10/5 392/10/5
f 395/9/5 392/9/5 391/9/5
f 396/10/5 393/10/5 392/10/5
f 396/9/5 392/9/5 395/9/5
f 397/9/5 394/9/5 393/9/5
f 397/10/5 393/10/5 396/10/5
f 398/9/5 394/9/5 397/9/5
f 400/10/5 397/10/5 396/10/5
f 401/10/5 397/10/5 400/10/5
f 403/9/5 400/9/5 399/9/5
f 403/10/5 401/10/5 400/10/5
f 404/9/5 402/9/5 401/9/5
f 404/10/5 401/10/5 403/10/5
f 405/9/5 403/9/5 399/9/5
f 405/9/5 404/9/5 403/9/5
f 406/9/5 402/9/5 404/9/5
f 406/9/5 404/9/5 405/9/5
f 407/1/6 408/1/6 409/1/6
f 409/1/6 408/1/6 410/1/6
f 410/1/6 408/1/6 411/1/6
f 411/1/6 408/1/6 412/1/6
f 412/1/6 408/1/6 413/1/6
f 413/1/6 408/1/6 414/1/6
f 414/1/6 408/1/6 415/1/6
f 415/1/6 408/1/6 416/1/6
f 407/1/6 409/1/6 417/1/6
f 409/14/6 410/14/6 418/14/6
f 417/1/6 409/1/6 418/1/6
f 410/1/6 411/1/6 419/1/6
f 418/14/6 410/14/6 419/14/6
f 411/14/6 412/14/6 420/14/6
f 419/1/6 411/1/6 420/1/6
f 412/1/6 413/1/6 421/1/6
f 420/14/6 412/14/6 421/14/6
f 413/14/6 414/14/6 422/14/6
f 421/1/6 413/1/6 422/1/6
f 414/1/6 415/1/6 423/1/6
f 422/14/6 414/14/6 423/14/6
f 415/14/6 416/14/6 424/14/6
f 423/1/6 415/1/6 424/1/6
f 416/1/6 408/1/6 425/1/6
f 424/14/6 416/14/6 425/14/6
f 425/1/6 408/1/6 426/1/6
f 407/1/6 417/1/6 427/1/6
f 417/14/6 418/14/6 427/14/6
f 418/1/6 419/1/6 428/1/6
f 427/14/6 418/14/6 428/14/6
f 419/14/6 420/14/6 429/14/6
f 428/1/6 419/1/6 429/1/6
f 420/1/6 421/1/6 430/1/6
f 429/14/6 420/14/6 430/14/6
f 421/14/6 422/14/6 431/14/6
f 430/1/6 421/1/6 431/1/6
f 422/1/6 423/1/6 432/1/6
f 431/14/6 422/14/6 432/14/6
f 423/14/6 424/14/6 433/14/6
f 432/1/6 423/1/6 433/1/6
f 424/1/6 425/1/6 434/1/6
f 433/14/6 424/14/6 434/14/6
f 425/14/6 426/14/6 435/14/6
f 434/1/6 425/1/6 435/1/6
f 426/1/6 408/1/6 436/1/6
f 435/14/6 426/14/6 436/14/6
f 431/1/6 432/1/6 437/1/6
f 434/1/6 435/1/6 437/1/6
f 435/1/6 436/1/6 437/1/6
f 432/1/6 433/1/6 437/1/6
f 430/1/6 431/1/6 437/1/6
f 429/1/6 430/1/6 437/1/6
f 428/1/6 429/1/6 437/1/6
f 427/1/6 428/1/6 437/1/6
f 407/1/6 427/1/6 437/1/6
f 433/1/6 434/1/6 437/1/6
f 437/1/6 436/1/6 438/1/6
f 436/1/6 408/1/6 439/1/6
f 438/1/6 436/1/6 439/1/6
f 439/1/6 408/1/6 440/1/6
f 441/1/6 442/1/6 443/1/6
f 443/1/6 442/1/6 444/1/6
f 445/1/6 446/1/6 449/1/6
f 446/13/6 447/13/6 450/13/6
f 449/1/6 446/1/6 450/1/6
f 447/1/6 448/1/6 451/1/6
f 450/13/6 447/13/6 451/13/6
f 451/1/6 448/1/6 452/1/6
f 453/1/6 454/1/6 457/1/6
f 454/13/6 455/13/6 458/13/6
f 457/1/6 454/1/6 458/1/6
f 455/1/6 456/1/6 459/1/6
f 458/13/6 455/13/6 459/13/6
f 459/1/6 456/1/6 460/1/6
f 461/1/6 462/1/6 463/1/6
f 463/1/6 462/1/6 464/1/6
f 464/1/6 462/1/6 465/1/6
f 465/1/6 462/1/6 466/1/6
f 466/1/6 462/1/6 467/1/6
f 467/1/6 462/1/6 468/1/6
f 468/1/6 462/1/6 469/1/6
f 469/1/6 462/1/6 470/1/6
f 461/1/6 463/1/6 471/1/6
f 470/1/6 462/1/6 474/1/6
f 471/1/6 472/1/6 475/1/6
f 473/1/6 474/1/6 476/1/6
f 471/1/6 475/1/6 477/1/6
f 475/1/6 476/1/6 477/1/6
f 461/1/6 471/1/6 477/1/6
f 476/1/6 474/1/6 478/1/6
f 477/1/6 476/1/6 478/1/6
f 474/1/6 462/1/6 478/1/6
f 479/14/6 480/14/6 483/14/6
f 483/14/6 480/14/6 484/14/6
f 481/14/6 482/14/6 489/14/6
f 489/14/6 482/14/6 490/14/6
f 487/3/6 488/3/6 491/3/6
f 488/3/6 489/3/6 491/3/6
f 484/3/6 485/3/6 491/3/6
f 486/3/6 487/3/6 491/3/6
f 485/3/6 486/3/6 491/3/6
f 491/3/6 489/3/6 492/3/6
f 493/14/6 494/14/6 499/14/6
f 494/3/6 495/3/6 500/3/6
f 499/14/6 494/14/6 500/14/6
f 495/14/6 496/14/6 501/14/6
f 500/3/6 495/3/6 501/3/6
f 496/3/6 497/3/6 502/3/6
f 501/14/6 496/14/6 502/14/6
f 497/14/6 498/14/6 503/14/6
f 502/3/6 497/3/6 503/3/6
f 503/14/6 498/14/6 504/14/6
