# MagicaVoxel @ Ephtracy

# material
mtllib Car3.mtl
usemtl palette

# normals
vn -1 0 0
vn 1 0 0
vn 0 0 1
vn 0 0 -1
vn 0 -1 0
vn 0 1 0

# texcoords
vt 0.0449219 0.5
vt 0.0878906 0.5
vt 0.798828 0.5
vt 0.822266 0.5
vt 0.841797 0.5
vt 0.849609 0.5
vt 0.919922 0.5
vt 0.931641 0.5
vt 0.958984 0.5
vt 0.962891 0.5
vt 0.970703 0.5
vt 0.974609 0.5
vt 0.978516 0.5
vt 0.982422 0.5
vt 0.986328 0.5
vt 0.990234 0.5
vt 0.994141 0.5

# verts
v -5.5 0 9.5
v -5.5 0 5.5
v -5.5 0 -6.5
v -5.5 0 -10.5
v -5.5 1 12.5
v -5.5 1 9.5
v -5.5 1 8.5
v -5.5 1 6.5
v -5.5 1 5.5
v -5.5 1 -6.5
v -5.5 1 -7.5
v -5.5 1 -9.5
v -5.5 1 -10.5
v -5.5 1 -12.5
v -5.5 2 12.5
v -5.5 2 10.5
v -5.5 2 9.5
v -5.5 2 5.5
v -5.5 2 -6.5
v -5.5 2 -10.5
v -5.5 2 -11.5
v -5.5 2 -12.5
v -5.5 3 12.5
v -5.5 3 10.5
v -5.5 3 8.5
v -5.5 3 6.5
v -5.5 3 4.5
v -5.5 3 2.5
v -5.5 3 0.5
v -5.5 3 -3.5
v -5.5 3 -7.5
v -5.5 3 -9.5
v -5.5 3 -11.5
v -5.5 3 -12.5
v -5.5 4 9.5
v -5.5 4 5.5
v -5.5 4 -3.5
v -5.5 4 -5.5
v -5.5 4 -6.5
v -5.5 4 -10.5
v -5.5 4 -11.5
v -5.5 4 -12.5
v -5.5 5 4.5
v -5.5 5 2.5
v -5.5 5 0.5
v -5.5 5 -5.5
v -5.5 5 -11.5
v -5.5 5 -12.5
v -5.5 6 12.5
v -5.5 6 5.5
v -5.5 6 -10.5
v -5.5 6 -12.5
v -5.5 7 4.5
v -5.5 7 -0.5
v -5.5 7 -1.5
v -5.5 7 -6.5
v -5.5 7 -7.5
v -5.5 7 -9.5
v -5.5 8 -8.5
v -5.5 8 -9.5
v -5.5 9 -9.5
v -5.5 9 -10.5
v -5.5 10 4.5
v -5.5 10 -0.5
v -5.5 10 -1.5
v -5.5 10 -6.5
v -5.5 10 -7.5
v -5.5 10 -8.5
v -5.5 10 -9.5
v -5.5 11 5.5
v -5.5 11 -8.5
v -4.5 11 3.5
v -4.5 11 1.5
v -4.5 12 3.5
v -4.5 12 1.5
v 4.5 0 9.5
v 4.5 0 5.5
v 4.5 0 -6.5
v 4.5 0 -10.5
v 4.5 1 9.5
v 4.5 1 5.5
v 4.5 1 -6.5
v 4.5 1 -10.5
v -4.5 0 9.5
v -4.5 0 5.5
v -4.5 0 -6.5
v -4.5 0 -10.5
v -4.5 1 9.5
v -4.5 1 5.5
v -4.5 1 -6.5
v -4.5 1 -10.5
v 4.5 11 3.5
v 4.5 11 1.5
v 4.5 12 3.5
v 4.5 12 1.5
v 5.5 0 9.5
v 5.5 0 5.5
v 5.5 0 -6.5
v 5.5 0 -10.5
v 5.5 1 12.5
v 5.5 1 9.5
v 5.5 1 8.5
v 5.5 1 6.5
v 5.5 1 5.5
v 5.5 1 -6.5
v 5.5 1 -7.5
v 5.5 1 -9.5
v 5.5 1 -10.5
v 5.5 1 -12.5
v 5.5 2 12.5
v 5.5 2 10.5
v 5.5 2 9.5
v 5.5 2 5.5
v 5.5 2 -6.5
v 5.5 2 -10.5
v 5.5 2 -11.5
v 5.5 2 -12.5
v 5.5 3 12.5
v 5.5 3 10.5
v 5.5 3 8.5
v 5.5 3 6.5
v 5.5 3 4.5
v 5.5 3 2.5
v 5.5 3 0.5
v 5.5 3 -3.5
v 5.5 3 -7.5
v 5.5 3 -9.5
v 5.5 3 -11.5
v 5.5 3 -12.5
v 5.5 4 9.5
v 5.5 4 5.5
v 5.5 4 -3.5
v 5.5 4 -5.5
v 5.5 4 -6.5
v 5.5 4 -10.5
v 5.5 4 -11.5
v 5.5 4 -12.5
v 5.5 5 4.5
v 5.5 5 2.5
v 5.5 5 0.5
v 5.5 5 -5.5
v 5.5 5 -11.5
v 5.5 5 -12.5
v 5.5 6 12.5
v 5.5 6 5.5
v 5.5 6 -10.5
v 5.5 6 -12.5
v 5.5 7 4.5
v 5.5 7 -0.5
v 5.5 7 -1.5
v 5.5 7 -6.5
v 5.5 7 -7.5
v 5.5 7 -9.5
v 5.5 8 -8.5
v 5.5 8 -9.5
v 5.5 9 -9.5
v 5.5 9 -10.5
v 5.5 10 4.5
v 5.5 10 -0.5
v 5.5 10 -1.5
v 5.5 10 -6.5
v 5.5 10 -7.5
v 5.5 10 -8.5
v 5.5 10 -9.5
v 5.5 11 5.5
v 5.5 11 -8.5
v -5.5 1 12.5
v -5.5 2 12.5
v -5.5 3 12.5
v -5.5 6 12.5
v -4.5 3 12.5
v -4.5 4 12.5
v -4.5 5 12.5
v -3.5 3 12.5
v -3.5 4 12.5
v -3.5 5 12.5
v -2.5 4 12.5
v -2.5 5 12.5
v -1.5 2 12.5
v -1.5 3 12.5
v -1.5 4 12.5
v -1.5 5 12.5
v -0.5 4 12.5
v -0.5 5 12.5
v 0.5 4 12.5
v 0.5 5 12.5
v 1.5 2 12.5
v 1.5 3 12.5
v 1.5 4 12.5
v 1.5 5 12.5
v 2.5 4 12.5
v 2.5 5 12.5
v 3.5 3 12.5
v 3.5 4 12.5
v 3.5 5 12.5
v 4.5 3 12.5
v 4.5 4 12.5
v 4.5 5 12.5
v 5.5 1 12.5
v 5.5 2 12.5
v 5.5 3 12.5
v 5.5 6 12.5
v -5.5 0 9.5
v -5.5 1 9.5
v -4.5 0 9.5
v -4.5 1 9.5
v 4.5 0 9.5
v 4.5 1 9.5
v 5.5 0 9.5
v 5.5 1 9.5
v -5.5 6 5.5
v -5.5 11 5.5
v -4.5 6 5.5
v -4.5 10 5.5
v -3.5 8 5.5
v -3.5 9 5.5
v -2.5 8 5.5
v -2.5 9 5.5
v 4.5 6 5.5
v 4.5 10 5.5
v 5.5 6 5.5
v 5.5 11 5.5
v -4.5 11 3.5
v -4.5 12 3.5
v -1.5 11 3.5
v -1.5 12 3.5
v 1.5 11 3.5
v 1.5 12 3.5
v 4.5 11 3.5
v 4.5 12 3.5
v -5.5 0 -6.5
v -5.5 1 -6.5
v -4.5 0 -6.5
v -4.5 1 -6.5
v 4.5 0 -6.5
v 4.5 1 -6.5
v 5.5 0 -6.5
v 5.5 1 -6.5
v -5.5 0 5.5
v -5.5 1 5.5
v -4.5 0 5.5
v -4.5 1 5.5
v 4.5 0 5.5
v 4.5 1 5.5
v 5.5 0 5.5
v 5.5 1 5.5
v -4.5 11 1.5
v -4.5 12 1.5
v -1.5 11 1.5
v -1.5 12 1.5
v 1.5 11 1.5
v 1.5 12 1.5
v 4.5 11 1.5
v 4.5 12 1.5
v -5.5 10 -8.5
v -5.5 11 -8.5
v -4.5 10 -8.5
v 4.5 10 -8.5
v 5.5 10 -8.5
v 5.5 11 -8.5
v -5.5 9 -9.5
v -5.5 10 -9.5
v -4.5 9 -9.5
v -4.5 10 -9.5
v 4.5 9 -9.5
v 4.5 10 -9.5
v 5.5 9 -9.5
v 5.5 10 -9.5
v -5.5 0 -10.5
v -5.5 1 -10.5
v -5.5 6 -10.5
v -5.5 9 -10.5
v -4.5 0 -10.5
v -4.5 1 -10.5
v -4.5 6 -10.5
v -4.5 7 -10.5
v -4.5 9 -10.5
v 4.5 0 -10.5
v 4.5 1 -10.5
v 4.5 6 -10.5
v 4.5 7 -10.5
v 4.5 9 -10.5
v 5.5 0 -10.5
v 5.5 1 -10.5
v 5.5 6 -10.5
v 5.5 9 -10.5
v -5.5 1 -12.5
v -5.5 2 -12.5
v -5.5 3 -12.5
v -5.5 4 -12.5
v -5.5 5 -12.5
v -5.5 6 -12.5
v -4.5 3 -12.5
v -4.5 4 -12.5
v -4.5 5 -12.5
v -4.5 6 -12.5
v 4.5 3 -12.5
v 4.5 4 -12.5
v 4.5 5 -12.5
v 4.5 6 -12.5
v 5.5 1 -12.5
v 5.5 2 -12.5
v 5.5 3 -12.5
v 5.5 4 -12.5
v 5.5 5 -12.5
v 5.5 6 -12.5
v -5.5 0 9.5
v -4.5 0 9.5
v 4.5 0 9.5
v 5.5 0 9.5
v -5.5 0 5.5
v -4.5 0 5.5
v 4.5 0 5.5
v 5.5 0 5.5
v -5.5 0 -6.5
v -4.5 0 -6.5
v 4.5 0 -6.5
v 5.5 0 -6.5
v -5.5 0 -10.5
v -4.5 0 -10.5
v 4.5 0 -10.5
v 5.5 0 -10.5
v -5.5 1 12.5
v 5.5 1 12.5
v -4.5 1 11.5
v 4.5 1 11.5
v -5.5 1 9.5
v -4.5 1 9.5
v 4.5 1 9.5
v 5.5 1 9.5
v -5.5 1 5.5
v -4.5 1 5.5
v 4.5 1 5.5
v 5.5 1 5.5
v -5.5 1 -6.5
v -4.5 1 -6.5
v 4.5 1 -6.5
v 5.5 1 -6.5
v -5.5 1 -10.5
v -4.5 1 -10.5
v 4.5 1 -10.5
v 5.5 1 -10.5
v -4.5 1 -11.5
v 4.5 1 -11.5
v -5.5 1 -12.5
v 5.5 1 -12.5
v -5.5 6 12.5
v 5.5 6 12.5
v -4.5 6 11.5
v -3.5 6 11.5
v 3.5 6 11.5
v 4.5 6 11.5
v -3.5 6 9.5
v -1.5 6 9.5
v 1.5 6 9.5
v 3.5 6 9.5
v -3.5 6 8.5
v -1.5 6 8.5
v 1.5 6 8.5
v 3.5 6 8.5
v -4.5 6 6.5
v -3.5 6 6.5
v 3.5 6 6.5
v 4.5 6 6.5
v -5.5 6 5.5
v -4.5 6 5.5
v 4.5 6 5.5
v 5.5 6 5.5
v -5.5 6 -10.5
v -4.5 6 -10.5
v 4.5 6 -10.5
v 5.5 6 -10.5
v -5.5 6 -12.5
v -4.5 6 -12.5
v 4.5 6 -12.5
v 5.5 6 -12.5
v -5.5 9 -9.5
v -4.5 9 -9.5
v 4.5 9 -9.5
v 5.5 9 -9.5
v -5.5 9 -10.5
v -4.5 9 -10.5
v 4.5 9 -10.5
v 5.5 9 -10.5
v -5.5 10 -8.5
v -4.5 10 -8.5
v 4.5 10 -8.5
v 5.5 10 -8.5
v -5.5 10 -9.5
v -4.5 10 -9.5
v 4.5 10 -9.5
v 5.5 10 -9.5
v -5.5 11 5.5
v 5.5 11 5.5
v -4.5 11 3.5
v -1.5 11 3.5
v 1.5 11 3.5
v 4.5 11 3.5
v -4.5 11 1.5
v -1.5 11 1.5
v 1.5 11 1.5
v 4.5 11 1.5
v -5.5 11 -8.5
v 5.5 11 -8.5
v -4.5 12 3.5
v -1.5 12 3.5
v 1.5 12 3.5
v 4.5 12 3.5
v -4.5 12 1.5
v -1.5 12 1.5
v 1.5 12 1.5
v 4.5 12 1.5

# faces
f 6/17/1 2/17/1 1/17/1
f 7/17/1 2/17/1 6/17/1
f 8/17/1 2/17/1 7/17/1
f 9/17/1 2/17/1 8/17/1
f 10/17/1 4/17/1 3/17/1
f 11/17/1 4/17/1 10/17/1
f 12/17/1 4/17/1 11/17/1
f 13/17/1 4/17/1 12/17/1
f 15/12/1 6/12/1 5/12/1
f 16/12/1 6/12/1 15/12/1
f 17/17/1 7/17/1 6/17/1
f 17/12/1 6/12/1 16/12/1
f 18/17/1 9/17/1 8/17/1
f 18/12/1 10/12/1 9/12/1
f 19/17/1 11/17/1 10/17/1
f 19/12/1 10/12/1 18/12/1
f 20/12/1 14/12/1 13/12/1
f 20/17/1 13/17/1 12/17/1
f 21/12/1 14/12/1 20/12/1
f 22/12/1 14/12/1 21/12/1
f 23/11/1 16/11/1 15/11/1
f 24/4/1 17/4/1 16/4/1
f 24/11/1 16/11/1 23/11/1
f 25/17/1 7/17/1 17/17/1
f 25/14/1 8/14/1 7/14/1
f 26/17/1 18/17/1 8/17/1
f 26/14/1 8/14/1 25/14/1
f 27/4/1 19/4/1 18/4/1
f 28/4/1 19/4/1 27/4/1
f 29/4/1 19/4/1 28/4/1
f 30/4/1 19/4/1 29/4/1
f 31/17/1 11/17/1 19/17/1
f 31/14/1 12/14/1 11/14/1
f 32/17/1 20/17/1 12/17/1
f 32/14/1 12/14/1 31/14/1
f 33/4/1 21/4/1 20/4/1
f 33/11/1 22/11/1 21/11/1
f 34/11/1 22/11/1 33/11/1
f 35/4/1 17/4/1 24/4/1
f 35/4/1 24/4/1 23/4/1
f 35/17/1 25/17/1 17/17/1
f 35/17/1 26/17/1 25/17/1
f 36/17/1 18/17/1 26/17/1
f 36/17/1 26/17/1 35/17/1
f 36/4/1 27/4/1 18/4/1
f 37/4/1 19/4/1 30/4/1
f 37/9/1 30/9/1 29/9/1
f 38/4/1 19/4/1 37/4/1
f 39/17/1 31/17/1 19/17/1
f 39/4/1 19/4/1 38/4/1
f 39/17/1 32/17/1 31/17/1
f 40/4/1 34/4/1 33/4/1
f 40/17/1 32/17/1 39/17/1
f 40/4/1 33/4/1 20/4/1
f 40/17/1 20/17/1 32/17/1
f 41/4/1 34/4/1 40/4/1
f 42/4/1 34/4/1 41/4/1
f 43/4/1 27/4/1 36/4/1
f 43/9/1 28/9/1 27/9/1
f 43/4/1 36/4/1 35/4/1
f 44/1/1 29/1/1 28/1/1
f 44/9/1 28/9/1 43/9/1
f 45/9/1 38/9/1 37/9/1
f 45/1/1 29/1/1 44/1/1
f 45/9/1 37/9/1 29/9/1
f 46/4/1 39/4/1 38/4/1
f 46/9/1 38/9/1 45/9/1
f 46/4/1 41/4/1 40/4/1
f 46/4/1 40/4/1 39/4/1
f 47/6/1 42/6/1 41/6/1
f 47/4/1 41/4/1 46/4/1
f 48/6/1 42/6/1 47/6/1
f 49/4/1 45/4/1 44/4/1
f 49/4/1 46/4/1 45/4/1
f 49/4/1 48/4/1 47/4/1
f 49/4/1 47/4/1 46/4/1
f 49/4/1 44/4/1 43/4/1
f 49/4/1 43/4/1 35/4/1
f 49/4/1 35/4/1 23/4/1
f 50/4/1 48/4/1 49/4/1
f 51/4/1 48/4/1 50/4/1
f 52/4/1 48/4/1 51/4/1
f 53/9/1 51/9/1 50/9/1
f 54/9/1 51/9/1 53/9/1
f 55/9/1 51/9/1 54/9/1
f 56/9/1 51/9/1 55/9/1
f 57/9/1 51/9/1 56/9/1
f 58/9/1 51/9/1 57/9/1
f 59/16/1 58/16/1 57/16/1
f 60/9/1 51/9/1 58/9/1
f 60/16/1 58/16/1 59/16/1
f 61/9/1 60/9/1 59/9/1
f 61/9/1 51/9/1 60/9/1
f 62/9/1 51/9/1 61/9/1
f 63/9/1 53/9/1 50/9/1
f 63/16/1 54/16/1 53/16/1
f 64/9/1 55/9/1 54/9/1
f 64/16/1 54/16/1 63/16/1
f 65/16/1 56/16/1 55/16/1
f 65/9/1 55/9/1 64/9/1
f 66/9/1 57/9/1 56/9/1
f 66/16/1 56/16/1 65/16/1
f 67/16/1 59/16/1 57/16/1
f 67/9/1 57/9/1 66/9/1
f 68/9/1 61/9/1 59/9/1
f 68/16/1 59/16/1 67/16/1
f 69/9/1 61/9/1 68/9/1
f 70/9/1 67/9/1 66/9/1
f 70/9/1 63/9/1 50/9/1
f 70/9/1 68/9/1 67/9/1
f 70/9/1 66/9/1 65/9/1
f 70/9/1 65/9/1 64/9/1
f 70/9/1 64/9/1 63/9/1
f 71/9/1 68/9/1 70/9/1
f 74/7/1 73/7/1 72/7/1
f 75/7/1 73/7/1 74/7/1
f 80/17/1 77/17/1 76/17/1
f 81/17/1 77/17/1 80/17/1
f 82/17/1 79/17/1 78/17/1
f 83/17/1 79/17/1 82/17/1
f 84/17/2 85/17/2 88/17/2
f 88/17/2 85/17/2 89/17/2
f 86/17/2 87/17/2 90/17/2
f 90/17/2 87/17/2 91/17/2
f 92/5/2 93/5/2 94/5/2
f 94/5/2 93/5/2 95/5/2
f 96/17/2 97/17/2 101/17/2
f 101/17/2 97/17/2 102/17/2
f 102/17/2 97/17/2 103/17/2
f 103/17/2 97/17/2 104/17/2
f 98/17/2 99/17/2 105/17/2
f 105/17/2 99/17/2 106/17/2
f 106/17/2 99/17/2 107/17/2
f 107/17/2 99/17/2 108/17/2
f 100/12/2 101/12/2 110/12/2
f 110/12/2 101/12/2 111/12/2
f 101/17/2 102/17/2 112/17/2
f 111/12/2 101/12/2 112/12/2
f 103/17/2 104/17/2 113/17/2
f 104/12/2 105/12/2 113/12/2
f 105/17/2 106/17/2 114/17/2
f 113/12/2 105/12/2 114/12/2
f 108/12/2 109/12/2 115/12/2
f 107/17/2 108/17/2 115/17/2
f 115/12/2 109/12/2 116/12/2
f 116/12/2 109/12/2 117/12/2
f 110/11/2 111/11/2 118/11/2
f 111/4/2 112/4/2 119/4/2
f 118/11/2 111/11/2 119/11/2
f 112/17/2 102/17/2 120/17/2
f 102/14/2 103/14/2 120/14/2
f 103/17/2 113/17/2 121/17/2
f 120/14/2 103/14/2 121/14/2
f 113/4/2 114/4/2 122/4/2
f 122/4/2 114/4/2 123/4/2
f 123/4/2 114/4/2 124/4/2
f 124/4/2 114/4/2 125/4/2
f 114/17/2 106/17/2 126/17/2
f 106/14/2 107/14/2 126/14/2
f 107/17/2 115/17/2 127/17/2
f 126/14/2 107/14/2 127/14/2
f 115/4/2 116/4/2 128/4/2
f 116/11/2 117/11/2 128/11/2
f 128/11/2 117/11/2 129/11/2
f 119/4/2 112/4/2 130/4/2
f 118/4/2 119/4/2 130/4/2
f 112/17/2 120/17/2 130/17/2
f 120/17/2 121/17/2 130/17/2
f 121/17/2 113/17/2 131/17/2
f 130/17/2 121/17/2 131/17/2
f 113/4/2 122/4/2 131/4/2
f 125/4/2 114/4/2 132/4/2
f 124/9/2 125/9/2 132/9/2
f 132/4/2 114/4/2 133/4/2
f 114/17/2 126/17/2 134/17/2
f 133/4/2 114/4/2 134/4/2
f 126/17/2 127/17/2 134/17/2
f 128/4/2 129/4/2 135/4/2
f 134/17/2 127/17/2 135/17/2
f 115/4/2 128/4/2 135/4/2
f 127/17/2 115/17/2 135/17/2
f 135/4/2 129/4/2 136/4/2
f 136/4/2 129/4/2 137/4/2
f 131/4/2 122/4/2 138/4/2
f 122/9/2 123/9/2 138/9/2
f 130/4/2 131/4/2 138/4/2
f 123/1/2 124/1/2 139/1/2
f 138/9/2 123/9/2 139/9/2
f 132/9/2 133/9/2 140/9/2
f 139/1/2 124/1/2 140/1/2
f 124/9/2 132/9/2 140/9/2
f 133/4/2 134/4/2 141/4/2
f 140/9/2 133/9/2 141/9/2
f 135/4/2 136/4/2 141/4/2
f 134/4/2 135/4/2 141/4/2
f 136/6/2 137/6/2 142/6/2
f 141/4/2 136/4/2 142/4/2
f 142/6/2 137/6/2 143/6/2
f 139/4/2 140/4/2 144/4/2
f 140/4/2 141/4/2 144/4/2
f 142/4/2 143/4/2 144/4/2
f 141/4/2 142/4/2 144/4/2
f 138/4/2 139/4/2 144/4/2
f 130/4/2 138/4/2 144/4/2
f 118/4/2 130/4/2 144/4/2
f 144/4/2 143/4/2 145/4/2
f 145/4/2 143/4/2 146/4/2
f 146/4/2 143/4/2 147/4/2
f 145/9/2 146/9/2 148/9/2
f 148/9/2 146/9/2 149/9/2
f 149/9/2 146/9/2 150/9/2
f 150/9/2 146/9/2 151/9/2
f 151/9/2 146/9/2 152/9/2
f 152/9/2 146/9/2 153/9/2
f 152/16/2 153/16/2 154/16/2
f 153/9/2 146/9/2 155/9/2
f 154/16/2 153/16/2 155/16/2
f 154/9/2 155/9/2 156/9/2
f 155/9/2 146/9/2 156/9/2
f 156/9/2 146/9/2 157/9/2
f 145/9/2 148/9/2 158/9/2
f 148/16/2 149/16/2 158/16/2
f 149/9/2 150/9/2 159/9/2
f 158/16/2 149/16/2 159/16/2
f 150/16/2 151/16/2 160/16/2
f 159/9/2 150/9/2 160/9/2
f 151/9/2 152/9/2 161/9/2
f 160/16/2 151/16/2 161/16/2
f 152/16/2 154/16/2 162/16/2
f 161/9/2 152/9/2 162/9/2
f 154/9/2 156/9/2 163/9/2
f 162/16/2 154/16/2 163/16/2
f 163/9/2 156/9/2 164/9/2
f 161/9/2 162/9/2 165/9/2
f 145/9/2 158/9/2 165/9/2
f 162/9/2 163/9/2 165/9/2
f 160/9/2 161/9/2 165/9/2
f 159/9/2 160/9/2 165/9/2
f 158/9/2 159/9/2 165/9/2
f 165/9/2 163/9/2 166/9/2
f 171/11/3 169/11/3 168/11/3
f 171/4/3 170/4/3 169/4/3
f 172/4/3 170/4/3 171/4/3
f 173/4/3 170/4/3 172/4/3
f 174/11/3 171/11/3 168/11/3
f 174/9/3 172/9/3 171/9/3
f 175/2/3 173/2/3 172/2/3
f 175/9/3 172/9/3 174/9/3
f 176/4/3 170/4/3 173/4/3
f 176/2/3 173/2/3 175/2/3
f 177/15/3 175/15/3 174/15/3
f 177/15/3 176/15/3 175/15/3
f 178/4/3 170/4/3 176/4/3
f 178/15/3 176/15/3 177/15/3
f 179/12/3 168/12/3 167/12/3
f 179/11/3 174/11/3 168/11/3
f 180/15/3 177/15/3 174/15/3
f 180/11/3 174/11/3 179/11/3
f 181/14/3 178/14/3 177/14/3
f 181/15/3 177/15/3 180/15/3
f 182/4/3 170/4/3 178/4/3
f 182/14/3 178/14/3 181/14/3
f 183/15/3 181/15/3 180/15/3
f 183/15/3 182/15/3 181/15/3
f 184/4/3 170/4/3 182/4/3
f 184/15/3 182/15/3 183/15/3
f 185/15/3 183/15/3 180/15/3
f 185/14/3 184/14/3 183/14/3
f 186/4/3 170/4/3 184/4/3
f 186/14/3 184/14/3 185/14/3
f 187/12/3 179/12/3 167/12/3
f 187/9/3 180/9/3 179/9/3
f 188/15/3 185/15/3 180/15/3
f 188/9/3 180/9/3 187/9/3
f 188/15/3 186/15/3 185/15/3
f 189/15/3 186/15/3 188/15/3
f 190/4/3 170/4/3 186/4/3
f 190/15/3 186/15/3 189/15/3
f 191/15/3 189/15/3 188/15/3
f 191/14/3 190/14/3 189/14/3
f 192/4/3 170/4/3 190/4/3
f 192/14/3 190/14/3 191/14/3
f 193/15/3 191/15/3 188/15/3
f 193/11/3 188/11/3 187/11/3
f 193/15/3 192/15/3 191/15/3
f 194/15/3 192/15/3 193/15/3
f 195/4/3 170/4/3 192/4/3
f 195/15/3 192/15/3 194/15/3
f 196/9/3 194/9/3 193/9/3
f 196/11/3 193/11/3 187/11/3
f 197/2/3 195/2/3 194/2/3
f 197/9/3 194/9/3 196/9/3
f 198/4/3 170/4/3 195/4/3
f 198/2/3 195/2/3 197/2/3
f 199/12/3 187/12/3 167/12/3
f 200/11/3 196/11/3 187/11/3
f 200/12/3 187/12/3 199/12/3
f 201/4/3 197/4/3 196/4/3
f 201/11/3 196/11/3 200/11/3
f 201/4/3 198/4/3 197/4/3
f 202/4/3 170/4/3 198/4/3
f 202/4/3 198/4/3 201/4/3
f 205/17/3 204/17/3 203/17/3
f 206/17/3 204/17/3 205/17/3
f 209/17/3 208/17/3 207/17/3
f 210/17/3 208/17/3 209/17/3
f 213/9/3 212/9/3 211/9/3
f 214/9/3 212/9/3 213/9/3
f 215/16/3 214/16/3 213/16/3
f 216/16/3 214/16/3 215/16/3
f 217/16/3 215/16/3 213/16/3
f 217/10/3 216/10/3 215/10/3
f 218/16/3 214/16/3 216/16/3
f 218/10/3 216/10/3 217/10/3
f 219/16/3 217/16/3 213/16/3
f 219/16/3 218/16/3 217/16/3
f 220/9/3 212/9/3 214/9/3
f 220/16/3 218/16/3 219/16/3
f 220/16/3 214/16/3 218/16/3
f 221/9/3 220/9/3 219/9/3
f 222/9/3 212/9/3 220/9/3
f 222/9/3 220/9/3 221/9/3
f 225/7/3 224/7/3 223/7/3
f 226/7/3 224/7/3 225/7/3
f 227/13/3 226/13/3 225/13/3
f 228/13/3 226/13/3 227/13/3
f 229/5/3 228/5/3 227/5/3
f 230/5/3 228/5/3 229/5/3
f 233/17/3 232/17/3 231/17/3
f 234/17/3 232/17/3 233/17/3
f 237/17/3 236/17/3 235/17/3
f 238/17/3 236/17/3 237/17/3
f 239/17/4 240/17/4 241/17/4
f 241/17/4 240/17/4 242/17/4
f 243/17/4 244/17/4 245/17/4
f 245/17/4 244/17/4 246/17/4
f 247/7/4 248/7/4 249/7/4
f 249/7/4 248/7/4 250/7/4
f 249/13/4 250/13/4 251/13/4
f 251/13/4 250/13/4 252/13/4
f 251/5/4 252/5/4 253/5/4
f 253/5/4 252/5/4 254/5/4
f 255/9/4 256/9/4 257/9/4
f 257/9/4 256/9/4 258/9/4
f 258/9/4 256/9/4 259/9/4
f 259/9/4 256/9/4 260/9/4
f 261/9/4 262/9/4 263/9/4
f 263/9/4 262/9/4 264/9/4
f 263/16/4 264/16/4 265/16/4
f 265/16/4 264/16/4 266/16/4
f 265/9/4 266/9/4 267/9/4
f 267/9/4 266/9/4 268/9/4
f 269/17/4 270/17/4 273/17/4
f 273/17/4 270/17/4 274/17/4
f 271/9/4 272/9/4 275/9/4
f 275/9/4 272/9/4 276/9/4
f 276/9/4 272/9/4 277/9/4
f 275/9/4 276/9/4 280/9/4
f 276/16/4 277/16/4 281/16/4
f 280/9/4 276/9/4 281/9/4
f 281/16/4 277/16/4 282/16/4
f 278/17/4 279/17/4 283/17/4
f 283/17/4 279/17/4 284/17/4
f 280/9/4 281/9/4 285/9/4
f 281/9/4 282/9/4 285/9/4
f 285/9/4 282/9/4 286/9/4
f 288/11/4 289/11/4 293/11/4
f 289/4/4 290/4/4 293/4/4
f 290/6/4 291/6/4 294/6/4
f 293/4/4 290/4/4 294/4/4
f 291/4/4 292/4/4 295/4/4
f 294/6/4 291/6/4 295/6/4
f 295/4/4 292/4/4 296/4/4
f 293/17/4 294/17/4 297/17/4
f 288/11/4 293/11/4 297/11/4
f 295/17/4 296/17/4 297/17/4
f 294/17/4 295/17/4 297/17/4
f 297/17/4 296/17/4 298/17/4
f 298/17/4 296/17/4 299/17/4
f 299/17/4 296/17/4 300/17/4
f 287/12/4 288/12/4 301/12/4
f 288/11/4 297/11/4 302/11/4
f 301/12/4 288/12/4 302/12/4
f 297/4/4 298/4/4 303/4/4
f 302/11/4 297/11/4 303/11/4
f 298/6/4 299/6/4 304/6/4
f 303/4/4 298/4/4 304/4/4
f 299/4/4 300/4/4 305/4/4
f 304/6/4 299/6/4 305/6/4
f 305/4/4 300/4/4 306/4/4
f 311/17/5 308/17/5 307/17/5
f 312/17/5 308/17/5 311/17/5
f 313/17/5 310/17/5 309/17/5
f 314/17/5 310/17/5 313/17/5
f 319/17/5 316/17/5 315/17/5
f 320/17/5 316/17/5 319/17/5
f 321/17/5 318/17/5 317/17/5
f 322/17/5 318/17/5 321/17/5
f 325/12/5 324/12/5 323/12/5
f 326/12/5 324/12/5 325/12/5
f 327/12/5 325/12/5 323/12/5
f 328/13/5 326/13/5 325/13/5
f 328/12/5 325/12/5 327/12/5
f 329/12/5 324/12/5 326/12/5
f 329/13/5 326/13/5 328/13/5
f 330/12/5 324/12/5 329/12/5
f 332/13/5 329/13/5 328/13/5
f 333/13/5 329/13/5 332/13/5
f 335/12/5 332/12/5 331/12/5
f 336/13/5 333/13/5 332/13/5
f 336/12/5 332/12/5 335/12/5
f 337/12/5 334/12/5 333/12/5
f 337/13/5 333/13/5 336/13/5
f 338/12/5 334/12/5 337/12/5
f 340/13/5 337/13/5 336/13/5
f 341/13/5 337/13/5 340/13/5
f 343/12/5 340/12/5 339/12/5
f 343/13/5 341/13/5 340/13/5
f 344/12/5 342/12/5 341/12/5
f 344/13/5 341/13/5 343/13/5
f 345/12/5 343/12/5 339/12/5
f 345/12/5 344/12/5 343/12/5
f 346/12/5 342/12/5 344/12/5
f 346/12/5 344/12/5 345/12/5
f 347/4/6 348/4/6 349/4/6
f 349/4/6 348/4/6 350/4/6
f 350/4/6 348/4/6 351/4/6
f 351/4/6 348/4/6 352/4/6
f 349/8/6 350/8/6 353/8/6
f 350/4/6 351/4/6 353/4/6
f 353/4/6 351/4/6 354/4/6
f 354/4/6 351/4/6 355/4/6
f 351/8/6 352/8/6 356/8/6
f 355/4/6 351/4/6 356/4/6
f 349/8/6 353/8/6 357/8/6
f 353/8/6 354/8/6 357/8/6
f 354/4/6 355/4/6 358/4/6
f 357/8/6 354/8/6 358/8/6
f 355/8/6 356/8/6 359/8/6
f 358/4/6 355/4/6 359/4/6
f 356/8/6 352/8/6 360/8/6
f 359/8/6 356/8/6 360/8/6
f 347/4/6 349/4/6 361/4/6
f 349/8/6 357/8/6 361/8/6
f 359/4/6 360/4/6 362/4/6
f 361/8/6 357/8/6 362/8/6
f 358/4/6 359/4/6 362/4/6
f 357/4/6 358/4/6 362/4/6
f 360/8/6 352/8/6 363/8/6
f 362/4/6 360/4/6 363/4/6
f 352/4/6 348/4/6 364/4/6
f 363/8/6 352/8/6 364/8/6
f 361/4/6 362/4/6 365/4/6
f 362/4/6 363/4/6 365/4/6
f 363/4/6 364/4/6 365/4/6
f 347/4/6 361/4/6 365/4/6
f 365/4/6 364/4/6 366/4/6
f 364/4/6 348/4/6 367/4/6
f 366/4/6 364/4/6 367/4/6
f 367/4/6 348/4/6 368/4/6
f 369/4/6 370/4/6 373/4/6
f 370/17/6 371/17/6 374/17/6
f 373/4/6 370/4/6 374/4/6
f 371/4/6 372/4/6 375/4/6
f 374/17/6 371/17/6 375/17/6
f 375/4/6 372/4/6 376/4/6
f 377/9/6 378/9/6 381/9/6
f 378/16/6 379/16/6 382/16/6
f 381/9/6 378/9/6 382/9/6
f 379/9/6 380/9/6 383/9/6
f 382/16/6 379/16/6 383/16/6
f 383/9/6 380/9/6 384/9/6
f 385/9/6 386/9/6 389/9/6
f 386/16/6 387/16/6 390/16/6
f 389/9/6 386/9/6 390/9/6
f 387/9/6 388/9/6 391/9/6
f 390/16/6 387/16/6 391/16/6
f 391/9/6 388/9/6 392/9/6
f 393/9/6 394/9/6 395/9/6
f 395/9/6 394/9/6 396/9/6
f 396/9/6 394/9/6 397/9/6
f 397/9/6 394/9/6 398/9/6
f 393/9/6 395/9/6 399/9/6
f 398/9/6 394/9/6 402/9/6
f 400/9/6 401/9/6 403/9/6
f 401/9/6 402/9/6 403/9/6
f 393/9/6 399/9/6 403/9/6
f 399/9/6 400/9/6 403/9/6
f 402/9/6 394/9/6 404/9/6
f 403/9/6 402/9/6 404/9/6
f 405/7/6 406/7/6 409/7/6
f 406/13/6 407/13/6 410/13/6
f 409/7/6 406/7/6 410/7/6
f 407/5/6 408/5/6 411/5/6
f 410/13/6 407/13/6 411/13/6
f 411/5/6 408/5/6 412/5/6
