# MagicaVoxel @ Ephtracy

# material
mtllib Car4.mtl
usemtl palette

# normals
vn -1 0 0
vn 1 0 0
vn 0 0 1
vn 0 0 -1
vn 0 -1 0
vn 0 1 0

# texcoords
vt 0.0175781 0.5
vt 0.0410156 0.5
vt 0.853516 0.5
vt 0.865234 0.5
vt 0.958984 0.5
vt 0.970703 0.5
vt 0.974609 0.5
vt 0.978516 0.5
vt 0.982422 0.5
vt 0.990234 0.5
vt 0.994141 0.5

# verts
v -5.5 0 9.5
v -5.5 0 5.5
v -5.5 0 -6.5
v -5.5 0 -10.5
v -5.5 1 12.5
v -5.5 1 9.5
v -5.5 1 8.5
v -5.5 1 6.5
v -5.5 1 5.5
v -5.5 1 -6.5
v -5.5 1 -7.5
v -5.5 1 -9.5
v -5.5 1 -10.5
v -5.5 1 -12.5
v -5.5 2 12.5
v -5.5 2 10.5
v -5.5 2 9.5
v -5.5 2 5.5
v -5.5 2 -6.5
v -5.5 2 -10.5
v -5.5 2 -11.5
v -5.5 2 -12.5
v -5.5 3 12.5
v -5.5 3 10.5
v -5.5 3 8.5
v -5.5 3 6.5
v -5.5 3 -7.5
v -5.5 3 -9.5
v -5.5 3 -11.5
v -5.5 3 -12.5
v -5.5 4 9.5
v -5.5 4 5.5
v -5.5 4 4.5
v -5.5 4 -5.5
v -5.5 4 -6.5
v -5.5 4 -10.5
v -5.5 5 4.5
v -5.5 5 -5.5
v -5.5 5 -10.5
v -5.5 5 -12.5
v -5.5 6 12.5
v -5.5 6 5.5
v -5.5 6 3.5
v -5.5 6 0.5
v -5.5 6 -0.5
v -5.5 6 -4.5
v -5.5 6 -5.5
v -5.5 6 -8.5
v -5.5 6 -9.5
v -5.5 6 -10.5
v -5.5 7 5.5
v -5.5 7 4.5
v -5.5 7 3.5
v -5.5 7 2.5
v -5.5 8 4.5
v -5.5 8 3.5
v -5.5 8 2.5
v -5.5 8 1.5
v -5.5 8 -7.5
v -5.5 8 -8.5
v -5.5 9 3.5
v -5.5 9 2.5
v -5.5 9 1.5
v -5.5 9 0.5
v -5.5 9 -0.5
v -5.5 9 -4.5
v -5.5 9 -5.5
v -5.5 9 -7.5
v -5.5 9 -8.5
v -5.5 9 -9.5
v -5.5 10 2.5
v -5.5 10 -8.5
v -4.5 10 1.5
v -4.5 10 0.5
v -4.5 10 -6.5
v -4.5 10 -7.5
v -4.5 11 0.5
v -4.5 11 -6.5
v -4.5 12 1.5
v -4.5 12 -7.5
v 3.5 10 1.5
v 3.5 10 0.5
v 3.5 10 -6.5
v 3.5 10 -7.5
v 3.5 11 1.5
v 3.5 11 0.5
v 3.5 11 -6.5
v 3.5 11 -7.5
v 3.5 12 0.5
v 3.5 12 -6.5
v 4.5 0 9.5
v 4.5 0 5.5
v 4.5 0 -6.5
v 4.5 0 -10.5
v 4.5 1 9.5
v 4.5 1 5.5
v 4.5 1 -6.5
v 4.5 1 -10.5
v -4.5 0 9.5
v -4.5 0 5.5
v -4.5 0 -6.5
v -4.5 0 -10.5
v -4.5 1 9.5
v -4.5 1 5.5
v -4.5 1 -6.5
v -4.5 1 -10.5
v -3.5 10 1.5
v -3.5 10 0.5
v -3.5 10 -6.5
v -3.5 10 -7.5
v -3.5 11 1.5
v -3.5 11 0.5
v -3.5 11 -6.5
v -3.5 11 -7.5
v -3.5 12 0.5
v -3.5 12 -6.5
v 4.5 10 1.5
v 4.5 10 0.5
v 4.5 10 -6.5
v 4.5 10 -7.5
v 4.5 11 0.5
v 4.5 11 -6.5
v 4.5 12 1.5
v 4.5 12 -7.5
v 5.5 0 9.5
v 5.5 0 5.5
v 5.5 0 -6.5
v 5.5 0 -10.5
v 5.5 1 12.5
v 5.5 1 9.5
v 5.5 1 8.5
v 5.5 1 6.5
v 5.5 1 5.5
v 5.5 1 -6.5
v 5.5 1 -7.5
v 5.5 1 -9.5
v 5.5 1 -10.5
v 5.5 1 -12.5
v 5.5 2 12.5
v 5.5 2 10.5
v 5.5 2 9.5
v 5.5 2 5.5
v 5.5 2 -6.5
v 5.5 2 -10.5
v 5.5 2 -11.5
v 5.5 2 -12.5
v 5.5 3 12.5
v 5.5 3 10.5
v 5.5 3 8.5
v 5.5 3 6.5
v 5.5 3 -7.5
v 5.5 3 -9.5
v 5.5 3 -11.5
v 5.5 3 -12.5
v 5.5 4 9.5
v 5.5 4 5.5
v 5.5 4 4.5
v 5.5 4 -5.5
v 5.5 4 -6.5
v 5.5 4 -10.5
v 5.5 5 4.5
v 5.5 5 -5.5
v 5.5 5 -10.5
v 5.5 5 -12.5
v 5.5 6 12.5
v 5.5 6 5.5
v 5.5 6 3.5
v 5.5 6 0.5
v 5.5 6 -0.5
v 5.5 6 -4.5
v 5.5 6 -5.5
v 5.5 6 -8.5
v 5.5 6 -9.5
v 5.5 6 -10.5
v 5.5 7 5.5
v 5.5 7 4.5
v 5.5 7 3.5
v 5.5 7 2.5
v 5.5 8 4.5
v 5.5 8 3.5
v 5.5 8 2.5
v 5.5 8 1.5
v 5.5 8 -7.5
v 5.5 8 -8.5
v 5.5 9 3.5
v 5.5 9 2.5
v 5.5 9 1.5
v 5.5 9 0.5
v 5.5 9 -0.5
v 5.5 9 -4.5
v 5.5 9 -5.5
v 5.5 9 -7.5
v 5.5 9 -8.5
v 5.5 9 -9.5
v 5.5 10 2.5
v 5.5 10 -8.5
v -5.5 1 12.5
v -5.5 2 12.5
v -5.5 3 12.5
v -5.5 6 12.5
v -3.5 3 12.5
v -3.5 4 12.5
v -3.5 5 12.5
v -2.5 3 12.5
v -2.5 4 12.5
v -1.5 2 12.5
v -1.5 3 12.5
v -1.5 4 12.5
v -1.5 5 12.5
v 1.5 2 12.5
v 1.5 3 12.5
v 1.5 4 12.5
v 1.5 5 12.5
v 2.5 3 12.5
v 2.5 4 12.5
v 3.5 3 12.5
v 3.5 4 12.5
v 3.5 5 12.5
v 5.5 1 12.5
v 5.5 2 12.5
v 5.5 3 12.5
v 5.5 6 12.5
v -5.5 0 9.5
v -5.5 1 9.5
v -4.5 0 9.5
v -4.5 1 9.5
v 4.5 0 9.5
v 4.5 1 9.5
v 5.5 0 9.5
v 5.5 1 9.5
v -5.5 6 5.5
v -5.5 7 5.5
v -3.5 6 5.5
v -3.5 7 5.5
v 3.5 6 5.5
v 3.5 7 5.5
v 5.5 6 5.5
v 5.5 7 5.5
v -5.5 7 4.5
v -5.5 8 4.5
v -3.5 7 4.5
v -3.5 8 4.5
v 3.5 7 4.5
v 3.5 8 4.5
v 5.5 7 4.5
v 5.5 8 4.5
v -5.5 8 3.5
v -5.5 9 3.5
v -3.5 8 3.5
v -3.5 9 3.5
v 3.5 8 3.5
v 3.5 9 3.5
v 5.5 8 3.5
v 5.5 9 3.5
v -5.5 9 2.5
v -5.5 10 2.5
v -3.5 9 2.5
v 3.5 9 2.5
v 5.5 9 2.5
v 5.5 10 2.5
v -4.5 10 1.5
v -4.5 12 1.5
v -3.5 10 1.5
v -3.5 11 1.5
v 3.5 10 1.5
v 3.5 11 1.5
v 4.5 10 1.5
v 4.5 12 1.5
v -5.5 0 -6.5
v -5.5 1 -6.5
v -4.5 0 -6.5
v -4.5 1 -6.5
v -4.5 10 -6.5
v -4.5 11 -6.5
v -3.5 10 -6.5
v -3.5 11 -6.5
v -3.5 12 -6.5
v 3.5 10 -6.5
v 3.5 11 -6.5
v 3.5 12 -6.5
v 4.5 0 -6.5
v 4.5 1 -6.5
v 4.5 10 -6.5
v 4.5 11 -6.5
v 5.5 0 -6.5
v 5.5 1 -6.5
v -5.5 0 5.5
v -5.5 1 5.5
v -4.5 0 5.5
v -4.5 1 5.5
v 4.5 0 5.5
v 4.5 1 5.5
v 5.5 0 5.5
v 5.5 1 5.5
v -4.5 10 0.5
v -4.5 11 0.5
v -3.5 10 0.5
v -3.5 11 0.5
v -3.5 12 0.5
v 3.5 10 0.5
v 3.5 11 0.5
v 3.5 12 0.5
v 4.5 10 0.5
v 4.5 11 0.5
v -4.5 10 -7.5
v -4.5 12 -7.5
v -3.5 10 -7.5
v -3.5 11 -7.5
v 3.5 10 -7.5
v 3.5 11 -7.5
v 4.5 10 -7.5
v 4.5 12 -7.5
v -5.5 9 -8.5
v -5.5 10 -8.5
v -3.5 9 -8.5
v 3.5 9 -8.5
v 5.5 9 -8.5
v 5.5 10 -8.5
v -5.5 6 -9.5
v -5.5 9 -9.5
v -3.5 6 -9.5
v -3.5 9 -9.5
v 3.5 6 -9.5
v 3.5 9 -9.5
v 5.5 6 -9.5
v 5.5 9 -9.5
v -5.5 0 -10.5
v -5.5 1 -10.5
v -5.5 5 -10.5
v -5.5 6 -10.5
v -4.5 0 -10.5
v -4.5 1 -10.5
v -4.5 5 -10.5
v -3.5 5 -10.5
v -2.5 5 -10.5
v -1.5 5 -10.5
v -0.5 5 -10.5
v 0.5 5 -10.5
v 1.5 5 -10.5
v 2.5 5 -10.5
v 3.5 5 -10.5
v 4.5 0 -10.5
v 4.5 1 -10.5
v 4.5 5 -10.5
v 5.5 0 -10.5
v 5.5 1 -10.5
v 5.5 5 -10.5
v 5.5 6 -10.5
v -5.5 1 -12.5
v -5.5 2 -12.5
v -5.5 3 -12.5
v -5.5 5 -12.5
v -4.5 4 -12.5
v -4.5 5 -12.5
v -3.5 4 -12.5
v -3.5 5 -12.5
v -2.5 4 -12.5
v -2.5 5 -12.5
v -1.5 4 -12.5
v -1.5 5 -12.5
v -0.5 4 -12.5
v -0.5 5 -12.5
v 0.5 4 -12.5
v 0.5 5 -12.5
v 1.5 4 -12.5
v 1.5 5 -12.5
v 2.5 4 -12.5
v 2.5 5 -12.5
v 3.5 4 -12.5
v 3.5 5 -12.5
v 4.5 4 -12.5
v 4.5 5 -12.5
v 5.5 1 -12.5
v 5.5 2 -12.5
v 5.5 3 -12.5
v 5.5 5 -12.5
v -5.5 0 9.5
v -4.5 0 9.5
v 4.5 0 9.5
v 5.5 0 9.5
v -5.5 0 5.5
v -4.5 0 5.5
v 4.5 0 5.5
v 5.5 0 5.5
v -5.5 0 -6.5
v -4.5 0 -6.5
v 4.5 0 -6.5
v 5.5 0 -6.5
v -5.5 0 -10.5
v -4.5 0 -10.5
v 4.5 0 -10.5
v 5.5 0 -10.5
v -5.5 1 12.5
v 5.5 1 12.5
v -4.5 1 11.5
v 4.5 1 11.5
v -5.5 1 9.5
v -4.5 1 9.5
v 4.5 1 9.5
v 5.5 1 9.5
v -5.5 1 5.5
v -4.5 1 5.5
v 4.5 1 5.5
v 5.5 1 5.5
v -5.5 1 -6.5
v -4.5 1 -6.5
v 4.5 1 -6.5
v 5.5 1 -6.5
v -5.5 1 -10.5
v -4.5 1 -10.5
v 4.5 1 -10.5
v 5.5 1 -10.5
v -4.5 1 -11.5
v 4.5 1 -11.5
v -5.5 1 -12.5
v 5.5 1 -12.5
v -3.5 11 1.5
v 3.5 11 1.5
v -4.5 11 0.5
v -3.5 11 0.5
v 3.5 11 0.5
v 4.5 11 0.5
v -4.5 11 -6.5
v -3.5 11 -6.5
v 3.5 11 -6.5
v 4.5 11 -6.5
v -3.5 11 -7.5
v 3.5 11 -7.5
v -5.5 5 -10.5
v -4.5 5 -10.5
v -3.5 5 -10.5
v -2.5 5 -10.5
v -1.5 5 -10.5
v -0.5 5 -10.5
v 0.5 5 -10.5
v 1.5 5 -10.5
v 2.5 5 -10.5
v 3.5 5 -10.5
v 4.5 5 -10.5
v 5.5 5 -10.5
v -5.5 5 -12.5
v -4.5 5 -12.5
v -3.5 5 -12.5
v -2.5 5 -12.5
v -1.5 5 -12.5
v -0.5 5 -12.5
v 0.5 5 -12.5
v 1.5 5 -12.5
v 2.5 5 -12.5
v 3.5 5 -12.5
v 4.5 5 -12.5
v 5.5 5 -12.5
v -5.5 6 12.5
v 5.5 6 12.5
v -4.5 6 11.5
v -3.5 6 11.5
v -2.5 6 11.5
v -1.5 6 11.5
v -0.5 6 11.5
v 0.5 6 11.5
v 1.5 6 11.5
v 2.5 6 11.5
v 3.5 6 11.5
v 4.5 6 11.5
v -4.5 6 6.5
v -3.5 6 6.5
v -2.5 6 6.5
v -1.5 6 6.5
v -0.5 6 6.5
v 0.5 6 6.5
v 1.5 6 6.5
v 2.5 6 6.5
v 3.5 6 6.5
v 4.5 6 6.5
v -5.5 6 5.5
v -3.5 6 5.5
v 3.5 6 5.5
v 5.5 6 5.5
v -5.5 6 -9.5
v -3.5 6 -9.5
v 3.5 6 -9.5
v 5.5 6 -9.5
v -5.5 6 -10.5
v 5.5 6 -10.5
v -5.5 7 5.5
v -3.5 7 5.5
v 3.5 7 5.5
v 5.5 7 5.5
v -5.5 7 4.5
v -3.5 7 4.5
v 3.5 7 4.5
v 5.5 7 4.5
v -5.5 8 4.5
v -3.5 8 4.5
v 3.5 8 4.5
v 5.5 8 4.5
v -5.5 8 3.5
v -3.5 8 3.5
v 3.5 8 3.5
v 5.5 8 3.5
v -5.5 9 3.5
v -3.5 9 3.5
v 3.5 9 3.5
v 5.5 9 3.5
v -5.5 9 2.5
v -3.5 9 2.5
v 3.5 9 2.5
v 5.5 9 2.5
v -5.5 9 -8.5
v -3.5 9 -8.5
v 3.5 9 -8.5
v 5.5 9 -8.5
v -5.5 9 -9.5
v -3.5 9 -9.5
v 3.5 9 -9.5
v 5.5 9 -9.5
v -5.5 10 2.5
v 5.5 10 2.5
v -4.5 10 1.5
v -3.5 10 1.5
v 3.5 10 1.5
v 4.5 10 1.5
v -4.5 10 0.5
v -3.5 10 0.5
v 3.5 10 0.5
v 4.5 10 0.5
v -4.5 10 -6.5
v -3.5 10 -6.5
v 3.5 10 -6.5
v 4.5 10 -6.5
v -4.5 10 -7.5
v -3.5 10 -7.5
v 3.5 10 -7.5
v 4.5 10 -7.5
v -5.5 10 -8.5
v 5.5 10 -8.5
v -4.5 12 1.5
v 4.5 12 1.5
v -3.5 12 0.5
v 3.5 12 0.5
v -3.5 12 -6.5
v 3.5 12 -6.5
v -4.5 12 -7.5
v 4.5 12 -7.5

# faces
f 6/11/1 2/11/1 1/11/1
f 7/11/1 2/11/1 6/11/1
f 8/11/1 2/11/1 7/11/1
f 9/11/1 2/11/1 8/11/1
f 10/11/1 4/11/1 3/11/1
f 11/11/1 4/11/1 10/11/1
f 12/11/1 4/11/1 11/11/1
f 13/11/1 4/11/1 12/11/1
f 15/7/1 6/7/1 5/7/1
f 16/7/1 6/7/1 15/7/1
f 17/11/1 7/11/1 6/11/1
f 17/7/1 6/7/1 16/7/1
f 18/11/1 9/11/1 8/11/1
f 18/7/1 10/7/1 9/7/1
f 19/11/1 11/11/1 10/11/1
f 19/7/1 10/7/1 18/7/1
f 20/7/1 14/7/1 13/7/1
f 20/11/1 13/11/1 12/11/1
f 21/7/1 14/7/1 20/7/1
f 22/7/1 14/7/1 21/7/1
f 23/6/1 16/6/1 15/6/1
f 24/3/1 17/3/1 16/3/1
f 24/6/1 16/6/1 23/6/1
f 25/11/1 7/11/1 17/11/1
f 25/9/1 8/9/1 7/9/1
f 26/11/1 18/11/1 8/11/1
f 26/9/1 8/9/1 25/9/1
f 27/11/1 11/11/1 19/11/1
f 27/9/1 12/9/1 11/9/1
f 28/11/1 20/11/1 12/11/1
f 28/9/1 12/9/1 27/9/1
f 29/3/1 21/3/1 20/3/1
f 29/6/1 22/6/1 21/6/1
f 30/6/1 22/6/1 29/6/1
f 31/3/1 17/3/1 24/3/1
f 31/3/1 24/3/1 23/3/1
f 31/11/1 25/11/1 17/11/1
f 31/11/1 26/11/1 25/11/1
f 32/11/1 18/11/1 26/11/1
f 32/11/1 26/11/1 31/11/1
f 32/3/1 19/3/1 18/3/1
f 33/3/1 19/3/1 32/3/1
f 34/3/1 19/3/1 33/3/1
f 35/11/1 28/11/1 27/11/1
f 35/3/1 19/3/1 34/3/1
f 35/11/1 27/11/1 19/11/1
f 36/3/1 30/3/1 29/3/1
f 36/11/1 28/11/1 35/11/1
f 36/3/1 29/3/1 20/3/1
f 36/11/1 20/11/1 28/11/1
f 37/3/1 32/3/1 31/3/1
f 37/4/1 34/4/1 33/4/1
f 37/3/1 33/3/1 32/3/1
f 38/3/1 35/3/1 34/3/1
f 38/4/1 34/4/1 37/4/1
f 38/3/1 36/3/1 35/3/1
f 39/3/1 30/3/1 36/3/1
f 39/3/1 36/3/1 38/3/1
f 40/3/1 30/3/1 39/3/1
f 41/3/1 31/3/1 23/3/1
f 41/3/1 37/3/1 31/3/1
f 41/3/1 39/3/1 38/3/1
f 41/3/1 38/3/1 37/3/1
f 42/3/1 39/3/1 41/3/1
f 43/3/1 39/3/1 42/3/1
f 44/3/1 39/3/1 43/3/1
f 45/3/1 39/3/1 44/3/1
f 46/3/1 39/3/1 45/3/1
f 47/3/1 39/3/1 46/3/1
f 48/3/1 39/3/1 47/3/1
f 49/3/1 39/3/1 48/3/1
f 50/3/1 39/3/1 49/3/1
f 51/3/1 43/3/1 42/3/1
f 52/3/1 43/3/1 51/3/1
f 53/10/1 44/10/1 43/10/1
f 53/3/1 43/3/1 52/3/1
f 54/10/1 44/10/1 53/10/1
f 55/3/1 53/3/1 52/3/1
f 55/3/1 54/3/1 53/3/1
f 56/3/1 54/3/1 55/3/1
f 57/10/1 44/10/1 54/10/1
f 57/3/1 54/3/1 56/3/1
f 58/10/1 44/10/1 57/10/1
f 59/10/1 48/10/1 47/10/1
f 60/3/1 49/3/1 48/3/1
f 60/10/1 48/10/1 59/10/1
f 61/3/1 57/3/1 56/3/1
f 61/3/1 58/3/1 57/3/1
f 62/3/1 58/3/1 61/3/1
f 63/10/1 44/10/1 58/10/1
f 63/3/1 58/3/1 62/3/1
f 64/3/1 45/3/1 44/3/1
f 64/10/1 44/10/1 63/10/1
f 65/10/1 46/10/1 45/10/1
f 65/3/1 45/3/1 64/3/1
f 66/3/1 47/3/1 46/3/1
f 66/10/1 46/10/1 65/10/1
f 67/10/1 59/10/1 47/10/1
f 67/3/1 47/3/1 66/3/1
f 68/3/1 60/3/1 59/3/1
f 68/10/1 59/10/1 67/10/1
f 69/3/1 49/3/1 60/3/1
f 69/3/1 60/3/1 68/3/1
f 70/3/1 49/3/1 69/3/1
f 71/3/1 66/3/1 65/3/1
f 71/3/1 68/3/1 67/3/1
f 71/3/1 69/3/1 68/3/1
f 71/3/1 63/3/1 62/3/1
f 71/3/1 67/3/1 66/3/1
f 71/3/1 64/3/1 63/3/1
f 71/3/1 65/3/1 64/3/1
f 72/3/1 69/3/1 71/3/1
f 77/7/1 74/7/1 73/7/1
f 78/7/1 76/7/1 75/7/1
f 79/7/1 77/7/1 73/7/1
f 79/7/1 78/7/1 77/7/1
f 80/7/1 76/7/1 78/7/1
f 80/7/1 78/7/1 79/7/1
f 85/7/1 82/7/1 81/7/1
f 86/7/1 82/7/1 85/7/1
f 87/7/1 84/7/1 83/7/1
f 88/7/1 84/7/1 87/7/1
f 89/7/1 87/7/1 86/7/1
f 90/7/1 87/7/1 89/7/1
f 95/11/1 92/11/1 91/11/1
f 96/11/1 92/11/1 95/11/1
f 97/11/1 94/11/1 93/11/1
f 98/11/1 94/11/1 97/11/1
f 99/11/2 100/11/2 103/11/2
f 103/11/2 100/11/2 104/11/2
f 101/11/2 102/11/2 105/11/2
f 105/11/2 102/11/2 106/11/2
f 107/7/2 108/7/2 111/7/2
f 111/7/2 108/7/2 112/7/2
f 109/7/2 110/7/2 113/7/2
f 113/7/2 110/7/2 114/7/2
f 112/7/2 113/7/2 115/7/2
f 115/7/2 113/7/2 116/7/2
f 117/7/2 118/7/2 121/7/2
f 119/7/2 120/7/2 122/7/2
f 117/7/2 121/7/2 123/7/2
f 121/7/2 122/7/2 123/7/2
f 122/7/2 120/7/2 124/7/2
f 123/7/2 122/7/2 124/7/2
f 125/11/2 126/11/2 130/11/2
f 130/11/2 126/11/2 131/11/2
f 131/11/2 126/11/2 132/11/2
f 132/11/2 126/11/2 133/11/2
f 127/11/2 128/11/2 134/11/2
f 134/11/2 128/11/2 135/11/2
f 135/11/2 128/11/2 136/11/2
f 136/11/2 128/11/2 137/11/2
f 129/7/2 130/7/2 139/7/2
f 139/7/2 130/7/2 140/7/2
f 130/11/2 131/11/2 141/11/2
f 140/7/2 130/7/2 141/7/2
f 132/11/2 133/11/2 142/11/2
f 133/7/2 134/7/2 142/7/2
f 134/11/2 135/11/2 143/11/2
f 142/7/2 134/7/2 143/7/2
f 137/7/2 138/7/2 144/7/2
f 136/11/2 137/11/2 144/11/2
f 144/7/2 138/7/2 145/7/2
f 145/7/2 138/7/2 146/7/2
f 139/6/2 140/6/2 147/6/2
f 140/3/2 141/3/2 148/3/2
f 147/6/2 140/6/2 148/6/2
f 141/11/2 131/11/2 149/11/2
f 131/9/2 132/9/2 149/9/2
f 132/11/2 142/11/2 150/11/2
f 149/9/2 132/9/2 150/9/2
f 143/11/2 135/11/2 151/11/2
f 135/9/2 136/9/2 151/9/2
f 136/11/2 144/11/2 152/11/2
f 151/9/2 136/9/2 152/9/2
f 144/3/2 145/3/2 153/3/2
f 145/6/2 146/6/2 153/6/2
f 153/6/2 146/6/2 154/6/2
f 148/3/2 141/3/2 155/3/2
f 147/3/2 148/3/2 155/3/2
f 141/11/2 149/11/2 155/11/2
f 149/11/2 150/11/2 155/11/2
f 150/11/2 142/11/2 156/11/2
f 155/11/2 150/11/2 156/11/2
f 142/3/2 143/3/2 156/3/2
f 156/3/2 143/3/2 157/3/2
f 157/3/2 143/3/2 158/3/2
f 151/11/2 152/11/2 159/11/2
f 158/3/2 143/3/2 159/3/2
f 143/11/2 151/11/2 159/11/2
f 153/3/2 154/3/2 160/3/2
f 159/11/2 152/11/2 160/11/2
f 144/3/2 153/3/2 160/3/2
f 152/11/2 144/11/2 160/11/2
f 155/3/2 156/3/2 161/3/2
f 157/4/2 158/4/2 161/4/2
f 156/3/2 157/3/2 161/3/2
f 158/3/2 159/3/2 162/3/2
f 161/4/2 158/4/2 162/4/2
f 159/3/2 160/3/2 162/3/2
f 160/3/2 154/3/2 163/3/2
f 162/3/2 160/3/2 163/3/2
f 163/3/2 154/3/2 164/3/2
f 147/3/2 155/3/2 165/3/2
f 155/3/2 161/3/2 165/3/2
f 162/3/2 163/3/2 165/3/2
f 161/3/2 162/3/2 165/3/2
f 165/3/2 163/3/2 166/3/2
f 166/3/2 163/3/2 167/3/2
f 167/3/2 163/3/2 168/3/2
f 168/3/2 163/3/2 169/3/2
f 169/3/2 163/3/2 170/3/2
f 170/3/2 163/3/2 171/3/2
f 171/3/2 163/3/2 172/3/2
f 172/3/2 163/3/2 173/3/2
f 173/3/2 163/3/2 174/3/2
f 166/3/2 167/3/2 175/3/2
f 175/3/2 167/3/2 176/3/2
f 167/10/2 168/10/2 177/10/2
f 176/3/2 167/3/2 177/3/2
f 177/10/2 168/10/2 178/10/2
f 176/3/2 177/3/2 179/3/2
f 177/3/2 178/3/2 179/3/2
f 179/3/2 178/3/2 180/3/2
f 178/10/2 168/10/2 181/10/2
f 180/3/2 178/3/2 181/3/2
f 181/10/2 168/10/2 182/10/2
f 171/10/2 172/10/2 183/10/2
f 172/3/2 173/3/2 184/3/2
f 183/10/2 172/10/2 184/10/2
f 180/3/2 181/3/2 185/3/2
f 181/3/2 182/3/2 185/3/2
f 185/3/2 182/3/2 186/3/2
f 182/10/2 168/10/2 187/10/2
f 186/3/2 182/3/2 187/3/2
f 168/3/2 169/3/2 188/3/2
f 187/10/2 168/10/2 188/10/2
f 169/10/2 170/10/2 189/10/2
f 188/3/2 169/3/2 189/3/2
f 170/3/2 171/3/2 190/3/2
f 189/10/2 170/10/2 190/10/2
f 171/10/2 183/10/2 191/10/2
f 190/3/2 171/3/2 191/3/2
f 183/3/2 184/3/2 192/3/2
f 191/10/2 183/10/2 192/10/2
f 184/3/2 173/3/2 193/3/2
f 192/3/2 184/3/2 193/3/2
f 193/3/2 173/3/2 194/3/2
f 189/3/2 190/3/2 195/3/2
f 191/3/2 192/3/2 195/3/2
f 192/3/2 193/3/2 195/3/2
f 186/3/2 187/3/2 195/3/2
f 190/3/2 191/3/2 195/3/2
f 187/3/2 188/3/2 195/3/2
f 188/3/2 189/3/2 195/3/2
f 195/3/2 193/3/2 196/3/2
f 201/6/3 199/6/3 198/6/3
f 201/3/3 200/3/3 199/3/3
f 202/3/3 200/3/3 201/3/3
f 203/3/3 200/3/3 202/3/3
f 204/6/3 201/6/3 198/6/3
f 204/1/3 202/1/3 201/1/3
f 205/2/3 203/2/3 202/2/3
f 205/1/3 202/1/3 204/1/3
f 206/7/3 198/7/3 197/7/3
f 206/6/3 204/6/3 198/6/3
f 207/9/3 205/9/3 204/9/3
f 207/6/3 204/6/3 206/6/3
f 208/2/3 203/2/3 205/2/3
f 208/9/3 205/9/3 207/9/3
f 209/3/3 200/3/3 203/3/3
f 209/2/3 203/2/3 208/2/3
f 210/5/3 207/5/3 206/5/3
f 210/7/3 206/7/3 197/7/3
f 211/9/3 208/9/3 207/9/3
f 211/5/3 207/5/3 210/5/3
f 211/9/3 209/9/3 208/9/3
f 212/9/3 209/9/3 211/9/3
f 213/3/3 200/3/3 209/3/3
f 213/9/3 209/9/3 212/9/3
f 214/9/3 212/9/3 211/9/3
f 214/6/3 211/6/3 210/6/3
f 215/2/3 213/2/3 212/2/3
f 215/9/3 212/9/3 214/9/3
f 216/6/3 214/6/3 210/6/3
f 216/1/3 215/1/3 214/1/3
f 217/2/3 213/2/3 215/2/3
f 217/1/3 215/1/3 216/1/3
f 218/3/3 200/3/3 213/3/3
f 218/2/3 213/2/3 217/2/3
f 219/7/3 210/7/3 197/7/3
f 220/6/3 216/6/3 210/6/3
f 220/7/3 210/7/3 219/7/3
f 221/3/3 217/3/3 216/3/3
f 221/6/3 216/6/3 220/6/3
f 221/3/3 218/3/3 217/3/3
f 222/3/3 200/3/3 218/3/3
f 222/3/3 218/3/3 221/3/3
f 225/11/3 224/11/3 223/11/3
f 226/11/3 224/11/3 225/11/3
f 229/11/3 228/11/3 227/11/3
f 230/11/3 228/11/3 229/11/3
f 233/3/3 232/3/3 231/3/3
f 234/3/3 232/3/3 233/3/3
f 235/11/3 234/11/3 233/11/3
f 236/11/3 234/11/3 235/11/3
f 237/3/3 236/3/3 235/3/3
f 238/3/3 236/3/3 237/3/3
f 241/3/3 240/3/3 239/3/3
f 242/3/3 240/3/3 241/3/3
f 243/11/3 242/11/3 241/11/3
f 244/11/3 242/11/3 243/11/3
f 245/3/3 244/3/3 243/3/3
f 246/3/3 244/3/3 245/3/3
f 249/3/3 248/3/3 247/3/3
f 250/3/3 248/3/3 249/3/3
f 251/11/3 250/11/3 249/11/3
f 252/11/3 250/11/3 251/11/3
f 253/3/3 252/3/3 251/3/3
f 254/3/3 252/3/3 253/3/3
f 257/3/3 256/3/3 255/3/3
f 258/3/3 256/3/3 257/3/3
f 259/3/3 256/3/3 258/3/3
f 260/3/3 256/3/3 259/3/3
f 263/7/3 262/7/3 261/7/3
f 264/7/3 262/7/3 263/7/3
f 266/7/3 262/7/3 264/7/3
f 267/7/3 266/7/3 265/7/3
f 268/7/3 262/7/3 266/7/3
f 268/7/3 266/7/3 267/7/3
f 271/11/3 270/11/3 269/11/3
f 272/11/3 270/11/3 271/11/3
f 275/7/3 274/7/3 273/7/3
f 276/7/3 274/7/3 275/7/3
f 279/7/3 277/7/3 276/7/3
f 280/7/3 277/7/3 279/7/3
f 283/7/3 279/7/3 278/7/3
f 284/7/3 279/7/3 283/7/3
f 285/11/3 282/11/3 281/11/3
f 286/11/3 282/11/3 285/11/3
f 287/11/4 288/11/4 289/11/4
f 289/11/4 288/11/4 290/11/4
f 291/11/4 292/11/4 293/11/4
f 293/11/4 292/11/4 294/11/4
f 295/7/4 296/7/4 297/7/4
f 297/7/4 296/7/4 298/7/4
f 298/7/4 299/7/4 301/7/4
f 301/7/4 299/7/4 302/7/4
f 300/7/4 301/7/4 303/7/4
f 303/7/4 301/7/4 304/7/4
f 305/7/4 306/7/4 307/7/4
f 307/7/4 306/7/4 308/7/4
f 308/7/4 306/7/4 310/7/4
f 309/7/4 310/7/4 311/7/4
f 310/7/4 306/7/4 312/7/4
f 311/7/4 310/7/4 312/7/4
f 313/3/4 314/3/4 315/3/4
f 315/3/4 314/3/4 316/3/4
f 316/3/4 314/3/4 317/3/4
f 317/3/4 314/3/4 318/3/4
f 319/3/4 320/3/4 321/3/4
f 321/3/4 320/3/4 322/3/4
f 321/11/4 322/11/4 323/11/4
f 323/11/4 322/11/4 324/11/4
f 323/3/4 324/3/4 325/3/4
f 325/3/4 324/3/4 326/3/4
f 327/11/4 328/11/4 331/11/4
f 331/11/4 328/11/4 332/11/4
f 329/3/4 330/3/4 333/3/4
f 333/3/4 330/3/4 334/3/4
f 334/3/4 330/3/4 335/3/4
f 335/3/4 330/3/4 336/3/4
f 336/3/4 330/3/4 337/3/4
f 337/3/4 330/3/4 338/3/4
f 338/3/4 330/3/4 339/3/4
f 339/3/4 330/3/4 340/3/4
f 340/3/4 330/3/4 341/3/4
f 341/3/4 330/3/4 344/3/4
f 342/11/4 343/11/4 345/11/4
f 345/11/4 343/11/4 346/11/4
f 344/3/4 330/3/4 347/3/4
f 347/3/4 330/3/4 348/3/4
f 351/3/4 352/3/4 353/3/4
f 353/3/4 352/3/4 354/3/4
f 351/3/4 353/3/4 355/3/4
f 353/4/4 354/4/4 355/4/4
f 355/4/4 354/4/4 356/4/4
f 351/3/4 355/3/4 357/3/4
f 355/3/4 356/3/4 357/3/4
f 357/3/4 356/3/4 358/3/4
f 351/3/4 357/3/4 359/3/4
f 357/4/4 358/4/4 359/4/4
f 359/4/4 358/4/4 360/4/4
f 351/3/4 359/3/4 361/3/4
f 359/3/4 360/3/4 361/3/4
f 361/3/4 360/3/4 362/3/4
f 351/3/4 361/3/4 363/3/4
f 361/4/4 362/4/4 363/4/4
f 363/4/4 362/4/4 364/4/4
f 351/3/4 363/3/4 365/3/4
f 363/3/4 364/3/4 365/3/4
f 365/3/4 364/3/4 366/3/4
f 351/3/4 365/3/4 367/3/4
f 365/4/4 366/4/4 367/4/4
f 367/4/4 366/4/4 368/4/4
f 351/3/4 367/3/4 369/3/4
f 367/3/4 368/3/4 369/3/4
f 369/3/4 368/3/4 370/3/4
f 351/3/4 369/3/4 371/3/4
f 369/4/4 370/4/4 371/4/4
f 371/4/4 370/4/4 372/4/4
f 349/7/4 350/7/4 373/7/4
f 350/6/4 351/6/4 374/6/4
f 373/7/4 350/7/4 374/7/4
f 351/3/4 371/3/4 375/3/4
f 374/6/4 351/6/4 375/6/4
f 371/3/4 372/3/4 375/3/4
f 375/3/4 372/3/4 376/3/4
f 381/11/5 378/11/5 377/11/5
f 382/11/5 378/11/5 381/11/5
f 383/11/5 380/11/5 379/11/5
f 384/11/5 380/11/5 383/11/5
f 389/11/5 386/11/5 385/11/5
f 390/11/5 386/11/5 389/11/5
f 391/11/5 388/11/5 387/11/5
f 392/11/5 388/11/5 391/11/5
f 395/7/5 394/7/5 393/7/5
f 396/7/5 394/7/5 395/7/5
f 397/7/5 395/7/5 393/7/5
f 398/8/5 396/8/5 395/8/5
f 398/7/5 395/7/5 397/7/5
f 399/7/5 394/7/5 396/7/5
f 399/8/5 396/8/5 398/8/5
f 400/7/5 394/7/5 399/7/5
f 402/8/5 399/8/5 398/8/5
f 403/8/5 399/8/5 402/8/5
f 405/7/5 402/7/5 401/7/5
f 406/8/5 403/8/5 402/8/5
f 406/7/5 402/7/5 405/7/5
f 407/7/5 404/7/5 403/7/5
f 407/8/5 403/8/5 406/8/5
f 408/7/5 404/7/5 407/7/5
f 410/8/5 407/8/5 406/8/5
f 411/8/5 407/8/5 410/8/5
f 413/7/5 410/7/5 409/7/5
f 413/8/5 411/8/5 410/8/5
f 414/7/5 412/7/5 411/7/5
f 414/8/5 411/8/5 413/8/5
f 415/7/5 413/7/5 409/7/5
f 415/7/5 414/7/5 413/7/5
f 416/7/5 412/7/5 414/7/5
f 416/7/5 414/7/5 415/7/5
f 420/7/5 418/7/5 417/7/5
f 421/7/5 418/7/5 420/7/5
f 423/7/5 420/7/5 419/7/5
f 424/7/5 420/7/5 423/7/5
f 425/7/5 422/7/5 421/7/5
f 426/7/5 422/7/5 425/7/5
f 427/7/5 425/7/5 424/7/5
f 428/7/5 425/7/5 427/7/5
f 429/3/6 430/3/6 441/3/6
f 430/4/6 431/4/6 442/4/6
f 441/3/6 430/3/6 442/3/6
f 431/3/6 432/3/6 443/3/6
f 442/4/6 431/4/6 443/4/6
f 432/4/6 433/4/6 444/4/6
f 443/3/6 432/3/6 444/3/6
f 433/3/6 434/3/6 445/3/6
f 444/4/6 433/4/6 445/4/6
f 434/4/6 435/4/6 446/4/6
f 445/3/6 434/3/6 446/3/6
f 435/3/6 436/3/6 447/3/6
f 446/4/6 435/4/6 447/4/6
f 436/4/6 437/4/6 448/4/6
f 447/3/6 436/3/6 448/3/6
f 437/3/6 438/3/6 449/3/6
f 448/4/6 437/4/6 449/4/6
f 438/4/6 439/4/6 450/4/6
f 449/3/6 438/3/6 450/3/6
f 439/3/6 440/3/6 451/3/6
f 450/4/6 439/4/6 451/4/6
f 451/3/6 440/3/6 452/3/6
f 453/3/6 454/3/6 455/3/6
f 455/3/6 454/3/6 456/3/6
f 456/3/6 454/3/6 457/3/6
f 457/3/6 454/3/6 458/3/6
f 458/3/6 454/3/6 459/3/6
f 459/3/6 454/3/6 460/3/6
f 460/3/6 454/3/6 461/3/6
f 461/3/6 454/3/6 462/3/6
f 462/3/6 454/3/6 463/3/6
f 463/3/6 454/3/6 464/3/6
f 453/3/6 455/3/6 465/3/6
f 455/4/6 456/4/6 465/4/6
f 456/3/6 457/3/6 466/3/6
f 465/4/6 456/4/6 466/4/6
f 457/4/6 458/4/6 467/4/6
f 466/3/6 457/3/6 467/3/6
f 458/3/6 459/3/6 468/3/6
f 467/4/6 458/4/6 468/4/6
f 459/4/6 460/4/6 469/4/6
f 468/3/6 459/3/6 469/3/6
f 460/3/6 461/3/6 470/3/6
f 469/4/6 460/4/6 470/4/6
f 461/4/6 462/4/6 471/4/6
f 470/3/6 461/3/6 471/3/6
f 462/3/6 463/3/6 472/3/6
f 471/4/6 462/4/6 472/4/6
f 463/4/6 464/4/6 473/4/6
f 472/3/6 463/3/6 473/3/6
f 464/3/6 454/3/6 474/3/6
f 473/4/6 464/4/6 474/4/6
f 472/3/6 473/3/6 475/3/6
f 471/3/6 472/3/6 475/3/6
f 473/3/6 474/3/6 475/3/6
f 470/3/6 471/3/6 475/3/6
f 469/3/6 470/3/6 475/3/6
f 468/3/6 469/3/6 475/3/6
f 467/3/6 468/3/6 475/3/6
f 466/3/6 467/3/6 475/3/6
f 465/3/6 466/3/6 475/3/6
f 453/3/6 465/3/6 475/3/6
f 475/3/6 474/3/6 476/3/6
f 476/3/6 474/3/6 477/3/6
f 474/3/6 454/3/6 478/3/6
f 477/3/6 474/3/6 478/3/6
f 479/3/6 480/3/6 483/3/6
f 481/3/6 482/3/6 483/3/6
f 480/3/6 481/3/6 483/3/6
f 483/3/6 482/3/6 484/3/6
f 485/3/6 486/3/6 489/3/6
f 486/11/6 487/11/6 490/11/6
f 489/3/6 486/3/6 490/3/6
f 487/3/6 488/3/6 491/3/6
f 490/11/6 487/11/6 491/11/6
f 491/3/6 488/3/6 492/3/6
f 493/3/6 494/3/6 497/3/6
f 494/11/6 495/11/6 498/11/6
f 497/3/6 494/3/6 498/3/6
f 495/3/6 496/3/6 499/3/6
f 498/11/6 495/11/6 499/11/6
f 499/3/6 496/3/6 500/3/6
f 501/3/6 502/3/6 505/3/6
f 502/11/6 503/11/6 506/11/6
f 505/3/6 502/3/6 506/3/6
f 503/3/6 504/3/6 507/3/6
f 506/11/6 503/11/6 507/11/6
f 507/3/6 504/3/6 508/3/6
f 509/3/6 510/3/6 513/3/6
f 510/11/6 511/11/6 514/11/6
f 513/3/6 510/3/6 514/3/6
f 511/3/6 512/3/6 515/3/6
f 514/11/6 511/11/6 515/11/6
f 515/3/6 512/3/6 516/3/6
f 517/3/6 518/3/6 519/3/6
f 519/3/6 518/3/6 520/3/6
f 520/3/6 518/3/6 521/3/6
f 521/3/6 518/3/6 522/3/6
f 517/3/6 519/3/6 523/3/6
f 520/3/6 521/3/6 524/3/6
f 524/3/6 521/3/6 525/3/6
f 522/3/6 518/3/6 526/3/6
f 524/3/6 525/3/6 527/3/6
f 525/3/6 526/3/6 527/3/6
f 517/3/6 523/3/6 527/3/6
f 523/3/6 524/3/6 527/3/6
f 527/3/6 526/3/6 528/3/6
f 528/3/6 526/3/6 529/3/6
f 526/3/6 518/3/6 530/3/6
f 529/3/6 526/3/6 530/3/6
f 517/3/6 527/3/6 531/3/6
f 528/3/6 529/3/6 532/3/6
f 532/3/6 529/3/6 533/3/6
f 530/3/6 518/3/6 534/3/6
f 517/3/6 531/3/6 535/3/6
f 533/3/6 534/3/6 535/3/6
f 532/3/6 533/3/6 535/3/6
f 531/3/6 532/3/6 535/3/6
f 534/3/6 518/3/6 536/3/6
f 535/3/6 534/3/6 536/3/6
f 537/7/6 538/7/6 539/7/6
f 539/7/6 538/7/6 540/7/6
f 537/7/6 539/7/6 541/7/6
f 540/7/6 538/7/6 542/7/6
f 537/7/6 541/7/6 543/7/6
f 541/7/6 542/7/6 543/7/6
f 542/7/6 538/7/6 544/7/6
f 543/7/6 542/7/6 544/7/6
