# MagicaVoxel @ Ephtracy

# material
mtllib Coin.mtl
usemtl palette

# normals
vn -1 0 0
vn 1 0 0
vn 0 0 1
vn 0 0 -1
vn 0 -1 0
vn 0 1 0

# texcoords
vt 0.0332031 0.5
vt 0.0371094 0.5
vt 0.0449219 0.5
vt 0.0644531 0.5

# verts
v -3 1 0.5
v -3 1 -0.5
v -3 4 0.5
v -3 4 -0.5
v -3 5 0.5
v -3 5 -0.5
v -2 0 0.5
v -2 0 -0.5
v -2 1 0.5
v -2 1 -0.5
v -2 5 0.5
v -2 5 -0.5
v -2 6 0.5
v -2 6 -0.5
v 2 0 0.5
v 2 0 -0.5
v 2 1 0.5
v 2 1 -0.5
v 2 5 0.5
v 2 5 -0.5
v 2 6 0.5
v 2 6 -0.5
v 3 1 0.5
v 3 1 -0.5
v 3 2 0.5
v 3 2 -0.5
v 3 5 0.5
v 3 5 -0.5
v -3 1 0.5
v -3 4 0.5
v -3 5 0.5
v -2 0 0.5
v -2 1 0.5
v -2 3 0.5
v -2 4 0.5
v -2 5 0.5
v -2 6 0.5
v -1 2 0.5
v -1 3 0.5
v -1 5 0.5
v -1 6 0.5
v 0 1 0.5
v 0 2 0.5
v 0 4 0.5
v 0 5 0.5
v 1 0 0.5
v 1 1 0.5
v 1 3 0.5
v 1 4 0.5
v 2 0 0.5
v 2 1 0.5
v 2 2 0.5
v 2 3 0.5
v 2 5 0.5
v 2 6 0.5
v 3 1 0.5
v 3 2 0.5
v 3 5 0.5
v -3 1 -0.5
v -3 4 -0.5
v -3 5 -0.5
v -2 0 -0.5
v -2 1 -0.5
v -2 3 -0.5
v -2 4 -0.5
v -2 5 -0.5
v -2 6 -0.5
v -1 2 -0.5
v -1 3 -0.5
v -1 5 -0.5
v -1 6 -0.5
v 0 1 -0.5
v 0 2 -0.5
v 0 4 -0.5
v 0 5 -0.5
v 1 0 -0.5
v 1 1 -0.5
v 1 3 -0.5
v 1 4 -0.5
v 2 0 -0.5
v 2 1 -0.5
v 2 2 -0.5
v 2 3 -0.5
v 2 5 -0.5
v 2 6 -0.5
v 3 1 -0.5
v 3 2 -0.5
v 3 5 -0.5
v -2 0 0.5
v 1 0 0.5
v 2 0 0.5
v -2 0 -0.5
v 1 0 -0.5
v 2 0 -0.5
v -3 1 0.5
v -2 1 0.5
v 2 1 0.5
v 3 1 0.5
v -3 1 -0.5
v -2 1 -0.5
v 2 1 -0.5
v 3 1 -0.5
v -3 5 0.5
v -2 5 0.5
v 2 5 0.5
v 3 5 0.5
v -3 5 -0.5
v -2 5 -0.5
v 2 5 -0.5
v 3 5 -0.5
v -2 6 0.5
v -1 6 0.5
v 2 6 0.5
v -2 6 -0.5
v -1 6 -0.5
v 2 6 -0.5

# faces
f 3/3/1 2/3/1 1/3/1
f 4/3/1 2/3/1 3/3/1
f 5/1/1 4/1/1 3/1/1
f 6/1/1 4/1/1 5/1/1
f 9/3/1 8/3/1 7/3/1
f 10/3/1 8/3/1 9/3/1
f 13/1/1 12/1/1 11/1/1
f 14/1/1 12/1/1 13/1/1
f 15/4/2 16/4/2 17/4/2
f 17/4/2 16/4/2 18/4/2
f 19/3/2 20/3/2 21/3/2
f 21/3/2 20/3/2 22/3/2
f 23/4/2 24/4/2 25/4/2
f 25/4/2 24/4/2 26/4/2
f 25/3/2 26/3/2 27/3/2
f 27/3/2 26/3/2 28/3/2
f 33/3/3 30/3/3 29/3/3
f 34/3/3 30/3/3 33/3/3
f 35/1/3 31/1/3 30/1/3
f 35/3/3 30/3/3 34/3/3
f 36/1/3 31/1/3 35/1/3
f 38/4/3 34/4/3 33/4/3
f 39/2/3 35/2/3 34/2/3
f 39/4/3 34/4/3 38/4/3
f 39/2/3 36/2/3 35/2/3
f 40/1/3 37/1/3 36/1/3
f 40/2/3 36/2/3 39/2/3
f 41/1/3 37/1/3 40/1/3
f 42/3/3 33/3/3 32/3/3
f 42/4/3 38/4/3 33/4/3
f 43/2/3 39/2/3 38/2/3
f 43/4/3 38/4/3 42/4/3
f 43/2/3 40/2/3 39/2/3
f 44/2/3 40/2/3 43/2/3
f 45/3/3 41/3/3 40/3/3
f 45/2/3 40/2/3 44/2/3
f 46/3/3 42/3/3 32/3/3
f 47/2/3 44/2/3 43/2/3
f 47/3/3 42/3/3 46/3/3
f 47/2/3 43/2/3 42/2/3
f 48/2/3 44/2/3 47/2/3
f 49/1/3 45/1/3 44/1/3
f 49/2/3 44/2/3 48/2/3
f 50/4/3 47/4/3 46/4/3
f 51/2/3 48/2/3 47/2/3
f 51/4/3 47/4/3 50/4/3
f 52/2/3 48/2/3 51/2/3
f 53/1/3 49/1/3 48/1/3
f 53/2/3 48/2/3 52/2/3
f 54/3/3 41/3/3 45/3/3
f 54/1/3 49/1/3 53/1/3
f 54/1/3 45/1/3 49/1/3
f 55/3/3 41/3/3 54/3/3
f 56/4/3 52/4/3 51/4/3
f 57/3/3 53/3/3 52/3/3
f 57/4/3 52/4/3 56/4/3
f 57/3/3 54/3/3 53/3/3
f 58/3/3 54/3/3 57/3/3
f 59/3/4 60/3/4 63/3/4
f 63/3/4 60/3/4 64/3/4
f 60/1/4 61/1/4 65/1/4
f 64/3/4 60/3/4 65/3/4
f 65/1/4 61/1/4 66/1/4
f 63/4/4 64/4/4 68/4/4
f 64/2/4 65/2/4 69/2/4
f 68/4/4 64/4/4 69/4/4
f 65/2/4 66/2/4 69/2/4
f 66/1/4 67/1/4 70/1/4
f 69/2/4 66/2/4 70/2/4
f 70/1/4 67/1/4 71/1/4
f 62/3/4 63/3/4 72/3/4
f 63/4/4 68/4/4 72/4/4
f 68/2/4 69/2/4 73/2/4
f 72/4/4 68/4/4 73/4/4
f 69/2/4 70/2/4 73/2/4
f 73/2/4 70/2/4 74/2/4
f 70/3/4 71/3/4 75/3/4
f 74/2/4 70/2/4 75/2/4
f 62/3/4 72/3/4 76/3/4
f 73/2/4 74/2/4 77/2/4
f 76/3/4 72/3/4 77/3/4
f 72/2/4 73/2/4 77/2/4
f 77/2/4 74/2/4 78/2/4
f 74/1/4 75/1/4 79/1/4
f 78/2/4 74/2/4 79/2/4
f 76/4/4 77/4/4 80/4/4
f 77/2/4 78/2/4 81/2/4
f 80/4/4 77/4/4 81/4/4
f 81/2/4 78/2/4 82/2/4
f 78/1/4 79/1/4 83/1/4
f 82/2/4 78/2/4 83/2/4
f 75/3/4 71/3/4 84/3/4
f 83/1/4 79/1/4 84/1/4
f 79/1/4 75/1/4 84/1/4
f 84/3/4 71/3/4 85/3/4
f 81/4/4 82/4/4 86/4/4
f 82/3/4 83/3/4 87/3/4
f 86/4/4 82/4/4 87/4/4
f 83/3/4 84/3/4 87/3/4
f 87/3/4 84/3/4 88/3/4
f 92/3/5 90/3/5 89/3/5
f 93/4/5 91/4/5 90/4/5
f 93/3/5 90/3/5 92/3/5
f 94/4/5 91/4/5 93/4/5
f 99/3/5 96/3/5 95/3/5
f 100/3/5 96/3/5 99/3/5
f 101/4/5 98/4/5 97/4/5
f 102/4/5 98/4/5 101/4/5
f 103/1/6 104/1/6 107/1/6
f 107/1/6 104/1/6 108/1/6
f 105/3/6 106/3/6 109/3/6
f 109/3/6 106/3/6 110/3/6
f 111/1/6 112/1/6 114/1/6
f 112/3/6 113/3/6 115/3/6
f 114/1/6 112/1/6 115/1/6
f 115/3/6 113/3/6 116/3/6
