# MagicaVoxel @ Ephtracy

# material
mtllib RunnerD.mtl
usemtl palette

# normals
vn -1 0 0
vn 1 0 0
vn 0 0 1
vn 0 0 -1
vn 0 -1 0
vn 0 1 0

# texcoords
vt 0.0214844 0.5
vt 0.0253906 0.5
vt 0.275391 0.5
vt 0.279297 0.5
vt 0.587891 0.5
vt 0.771484 0.5
vt 0.841797 0.5
vt 0.990234 0.5

# verts
v -7 9 0.5
v -7 9 -0.5
v -7 10 0.5
v -7 10 -0.5
v -4 13 0.5
v -4 13 -0.5
v -4 13 -2.5
v -4 14 1.5
v -4 14 0.5
v -4 15 2.5
v -4 15 1.5
v -4 15 -0.5
v -4 17 2.5
v -4 17 -2.5
v -3 11 1.5
v -3 11 -1.5
v -3 12 2.5
v -3 12 1.5
v -3 12 -1.5
v -3 12 -2.5
v -3 13 0.5
v -3 13 -0.5
v -3 13 -2.5
v -3 13 -3.5
v -3 14 1.5
v -3 14 0.5
v -3 15 2.5
v -3 15 1.5
v -3 16 3.5
v -3 16 2.5
v -3 17 3.5
v -3 17 2.5
v -3 17 -2.5
v -3 17 -3.5
v -3 18 2.5
v -3 18 -2.5
v -2 0 1.5
v -2 0 -0.5
v -2 1 1.5
v -2 1 0.5
v -2 1 -0.5
v -2 5 1.5
v -2 5 0.5
v -2 5 -0.5
v -2 5 -1.5
v -2 6 1.5
v -2 6 -1.5
v -2 9 0.5
v -2 9 -0.5
v -2 10 1.5
v -2 10 0.5
v -2 10 -0.5
v -2 10 -1.5
v -2 11 2.5
v -2 11 1.5
v -2 11 -1.5
v -2 11 -2.5
v -2 12 2.5
v -2 12 1.5
v -2 12 -1.5
v -2 12 -2.5
v -2 12 -3.5
v -2 13 -2.5
v -2 13 -3.5
v -2 17 -2.5
v -2 17 -3.5
v -2 18 2.5
v -2 18 -2.5
v -2 18 -3.5
v -2 19 2.5
v -2 19 -2.5
v -1 10 0.5
v -1 10 -0.5
v -1 11 0.5
v -1 11 -0.5
v -1 11 -2.5
v -1 11 -3.5
v -1 12 -2.5
v -1 12 -3.5
v -1 13 3.5
v -1 13 2.5
v -1 14 3.5
v -1 14 2.5
v -1 17 3.5
v -1 17 2.5
v -1 18 3.5
v -1 18 2.5
v 1 0 1.5
v 1 0 -0.5
v 1 1 1.5
v 1 1 0.5
v 1 1 -0.5
v 1 5 0.5
v 1 5 -0.5
v -1 0 1.5
v -1 0 -0.5
v -1 1 1.5
v -1 1 0.5
v -1 1 -0.5
v -1 5 0.5
v -1 5 -0.5
v 1 10 0.5
v 1 10 -0.5
v 1 11 0.5
v 1 11 -0.5
v 1 11 -2.5
v 1 11 -3.5
v 1 12 -2.5
v 1 12 -3.5
v 1 13 3.5
v 1 13 2.5
v 1 14 3.5
v 1 14 2.5
v 1 17 3.5
v 1 17 2.5
v 1 18 3.5
v 1 18 2.5
v 2 0 1.5
v 2 0 -0.5
v 2 1 1.5
v 2 1 0.5
v 2 1 -0.5
v 2 5 1.5
v 2 5 0.5
v 2 5 -0.5
v 2 5 -1.5
v 2 6 1.5
v 2 6 -1.5
v 2 9 0.5
v 2 9 -0.5
v 2 10 1.5
v 2 10 0.5
v 2 10 -0.5
v 2 10 -1.5
v 2 11 2.5
v 2 11 1.5
v 2 11 -1.5
v 2 11 -2.5
v 2 12 2.5
v 2 12 1.5
v 2 12 -1.5
v 2 12 -2.5
v 2 12 -3.5
v 2 13 -2.5
v 2 13 -3.5
v 2 17 -2.5
v 2 17 -3.5
v 2 18 2.5
v 2 18 -2.5
v 2 18 -3.5
v 2 19 2.5
v 2 19 -2.5
v 3 11 1.5
v 3 11 -1.5
v 3 12 2.5
v 3 12 1.5
v 3 12 -1.5
v 3 12 -2.5
v 3 13 0.5
v 3 13 -0.5
v 3 13 -2.5
v 3 13 -3.5
v 3 14 1.5
v 3 14 0.5
v 3 15 2.5
v 3 15 1.5
v 3 16 3.5
v 3 16 2.5
v 3 17 3.5
v 3 17 2.5
v 3 17 -2.5
v 3 17 -3.5
v 3 18 2.5
v 3 18 -2.5
v 4 13 0.5
v 4 13 -0.5
v 4 13 -2.5
v 4 14 1.5
v 4 14 0.5
v 4 15 2.5
v 4 15 1.5
v 4 15 -0.5
v 4 17 2.5
v 4 17 -2.5
v 7 9 0.5
v 7 9 -0.5
v 7 10 0.5
v 7 10 -0.5
v -3 16 3.5
v -3 17 3.5
v -1 13 3.5
v -1 14 3.5
v -1 17 3.5
v -1 18 3.5
v 1 13 3.5
v 1 14 3.5
v 1 17 3.5
v 1 18 3.5
v 3 16 3.5
v 3 17 3.5
v -4 15 2.5
v -4 17 2.5
v -3 12 2.5
v -3 15 2.5
v -3 16 2.5
v -3 17 2.5
v -3 18 2.5
v -2 11 2.5
v -2 12 2.5
v -2 14 2.5
v -2 15 2.5
v -2 18 2.5
v -2 19 2.5
v -1 13 2.5
v -1 14 2.5
v -1 15 2.5
v -1 17 2.5
v -1 18 2.5
v 1 13 2.5
v 1 14 2.5
v 1 15 2.5
v 1 17 2.5
v 1 18 2.5
v 2 11 2.5
v 2 12 2.5
v 2 14 2.5
v 2 15 2.5
v 2 18 2.5
v 2 19 2.5
v 3 12 2.5
v 3 15 2.5
v 3 16 2.5
v 3 17 2.5
v 3 18 2.5
v 4 15 2.5
v 4 17 2.5
v -4 14 1.5
v -4 15 1.5
v -3 11 1.5
v -3 12 1.5
v -3 14 1.5
v -3 15 1.5
v -2 0 1.5
v -2 1 1.5
v -2 5 1.5
v -2 6 1.5
v -2 10 1.5
v -2 11 1.5
v -2 12 1.5
v -1 0 1.5
v -1 1 1.5
v 1 0 1.5
v 1 1 1.5
v 2 0 1.5
v 2 1 1.5
v 2 5 1.5
v 2 6 1.5
v 2 10 1.5
v 2 11 1.5
v 2 12 1.5
v 3 11 1.5
v 3 12 1.5
v 3 14 1.5
v 3 15 1.5
v 4 14 1.5
v 4 15 1.5
v -7 9 0.5
v -7 10 0.5
v -4 13 0.5
v -4 14 0.5
v -3 9 0.5
v -3 10 0.5
v -3 13 0.5
v -3 14 0.5
v -2 1 0.5
v -2 5 0.5
v -2 9 0.5
v -2 10 0.5
v -1 1 0.5
v -1 5 0.5
v -1 10 0.5
v -1 11 0.5
v 1 1 0.5
v 1 5 0.5
v 1 10 0.5
v 1 11 0.5
v 2 1 0.5
v 2 5 0.5
v 2 9 0.5
v 2 10 0.5
v 3 9 0.5
v 3 10 0.5
v 3 13 0.5
v 3 14 0.5
v 4 13 0.5
v 4 14 0.5
v 7 9 0.5
v 7 10 0.5
v -7 9 -0.5
v -7 10 -0.5
v -3 9 -0.5
v -3 10 -0.5
v -2 0 -0.5
v -2 1 -0.5
v -2 5 -0.5
v -2 9 -0.5
v -2 10 -0.5
v -1 0 -0.5
v -1 1 -0.5
v -1 5 -0.5
v -1 10 -0.5
v -1 11 -0.5
v 1 0 -0.5
v 1 1 -0.5
v 1 5 -0.5
v 1 10 -0.5
v 1 11 -0.5
v 2 0 -0.5
v 2 1 -0.5
v 2 5 -0.5
v 2 9 -0.5
v 2 10 -0.5
v 3 9 -0.5
v 3 10 -0.5
v 7 9 -0.5
v 7 10 -0.5
v -3 11 -1.5
v -3 12 -1.5
v -2 5 -1.5
v -2 6 -1.5
v -2 10 -1.5
v -2 11 -1.5
v -2 12 -1.5
v 2 5 -1.5
v 2 6 -1.5
v 2 10 -1.5
v 2 11 -1.5
v 2 12 -1.5
v 3 11 -1.5
v 3 12 -1.5
v -4 13 -2.5
v -4 17 -2.5
v -3 12 -2.5
v -3 13 -2.5
v -3 17 -2.5
v -3 18 -2.5
v -2 11 -2.5
v -2 12 -2.5
v -2 13 -2.5
v -2 17 -2.5
v -2 18 -2.5
v -2 19 -2.5
v -1 11 -2.5
v -1 12 -2.5
v 1 11 -2.5
v 1 12 -2.5
v 2 11 -2.5
v 2 12 -2.5
v 2 13 -2.5
v 2 17 -2.5
v 2 18 -2.5
v 2 19 -2.5
v 3 12 -2.5
v 3 13 -2.5
v 3 17 -2.5
v 3 18 -2.5
v 4 13 -2.5
v 4 17 -2.5
v -3 13 -3.5
v -3 17 -3.5
v -2 12 -3.5
v -2 13 -3.5
v -2 17 -3.5
v -2 18 -3.5
v -1 11 -3.5
v -1 12 -3.5
v 1 11 -3.5
v 1 12 -3.5
v 2 12 -3.5
v 2 13 -3.5
v 2 17 -3.5
v 2 18 -3.5
v 3 13 -3.5
v 3 17 -3.5
v -2 0 1.5
v -1 0 1.5
v 1 0 1.5
v 2 0 1.5
v -2 0 -0.5
v -1 0 -0.5
v 1 0 -0.5
v 2 0 -0.5
v -2 5 1.5
v 2 5 1.5
v -2 5 0.5
v -1 5 0.5
v 1 5 0.5
v 2 5 0.5
v -2 5 -0.5
v -1 5 -0.5
v 1 5 -0.5
v 2 5 -0.5
v -2 5 -1.5
v 2 5 -1.5
v -7 9 0.5
v -3 9 0.5
v -2 9 0.5
v 2 9 0.5
v 3 9 0.5
v 7 9 0.5
v -7 9 -0.5
v -3 9 -0.5
v -2 9 -0.5
v 2 9 -0.5
v 3 9 -0.5
v 7 9 -0.5
v -2 11 2.5
v 2 11 2.5
v -3 11 1.5
v -2 11 1.5
v 2 11 1.5
v 3 11 1.5
v -1 11 0.5
v 1 11 0.5
v -1 11 -0.5
v 1 11 -0.5
v -3 11 -1.5
v -2 11 -1.5
v 2 11 -1.5
v 3 11 -1.5
v -2 11 -2.5
v -1 11 -2.5
v 1 11 -2.5
v 2 11 -2.5
v -1 11 -3.5
v 1 11 -3.5
v -3 12 2.5
v -2 12 2.5
v 2 12 2.5
v 3 12 2.5
v -3 12 1.5
v -2 12 1.5
v 2 12 1.5
v 3 12 1.5
v -3 12 -1.5
v -2 12 -1.5
v 2 12 -1.5
v 3 12 -1.5
v -3 12 -2.5
v -2 12 -2.5
v -1 12 -2.5
v 1 12 -2.5
v 2 12 -2.5
v 3 12 -2.5
v -2 12 -3.5
v -1 12 -3.5
v 1 12 -3.5
v 2 12 -3.5
v -1 13 3.5
v 1 13 3.5
v -1 13 2.5
v 1 13 2.5
v -4 13 0.5
v -3 13 0.5
v 3 13 0.5
v 4 13 0.5
v -4 13 -0.5
v -3 13 -0.5
v 3 13 -0.5
v 4 13 -0.5
v -4 13 -2.5
v -3 13 -2.5
v -2 13 -2.5
v 2 13 -2.5
v 3 13 -2.5
v 4 13 -2.5
v -3 13 -3.5
v -2 13 -3.5
v 2 13 -3.5
v 3 13 -3.5
v -4 14 1.5
v -3 14 1.5
v 3 14 1.5
v 4 14 1.5
v -4 14 0.5
v -3 14 0.5
v 3 14 0.5
v 4 14 0.5
v -4 15 2.5
v -3 15 2.5
v 3 15 2.5
v 4 15 2.5
v -4 15 1.5
v -3 15 1.5
v 3 15 1.5
v 4 15 1.5
v -3 16 3.5
v 3 16 3.5
v -3 16 2.5
v 3 16 2.5
v -2 1 1.5
v -1 1 1.5
v 1 1 1.5
v 2 1 1.5
v -2 1 0.5
v -1 1 0.5
v 1 1 0.5
v 2 1 0.5
v -2 10 1.5
v 2 10 1.5
v -7 10 0.5
v -3 10 0.5
v -2 10 0.5
v -1 10 0.5
v 1 10 0.5
v 2 10 0.5
v 3 10 0.5
v 7 10 0.5
v -7 10 -0.5
v -3 10 -0.5
v -2 10 -0.5
v -1 10 -0.5
v 1 10 -0.5
v 2 10 -0.5
v 3 10 -0.5
v 7 10 -0.5
v -2 10 -1.5
v 2 10 -1.5
v -1 14 3.5
v 1 14 3.5
v -1 14 2.5
v 1 14 2.5
v -3 17 3.5
v -1 17 3.5
v 1 17 3.5
v 3 17 3.5
v -4 17 2.5
v -3 17 2.5
v -1 17 2.5
v 1 17 2.5
v 3 17 2.5
v 4 17 2.5
v -4 17 -2.5
v -3 17 -2.5
v -2 17 -2.5
v 2 17 -2.5
v 3 17 -2.5
v 4 17 -2.5
v -3 17 -3.5
v -2 17 -3.5
v 2 17 -3.5
v 3 17 -3.5
v -1 18 3.5
v 1 18 3.5
v -3 18 2.5
v -2 18 2.5
v -1 18 2.5
v 1 18 2.5
v 2 18 2.5
v 3 18 2.5
v -3 18 -2.5
v -2 18 -2.5
v 2 18 -2.5
v 3 18 -2.5
v -2 18 -3.5
v 2 18 -3.5
v -2 19 2.5
v 2 19 2.5
v -2 19 -2.5
v 2 19 -2.5

# faces
f 3/3/1 2/3/1 1/3/1
f 4/3/1 2/3/1 3/3/1
f 9/3/1 6/3/1 5/3/1
f 11/3/1 9/3/1 8/3/1
f 12/4/1 7/4/1 6/4/1
f 12/3/1 6/3/1 9/3/1
f 12/3/1 9/3/1 11/3/1
f 13/4/1 11/4/1 10/4/1
f 13/4/1 12/4/1 11/4/1
f 14/4/1 7/4/1 12/4/1
f 14/4/1 12/4/1 13/4/1
f 18/3/1 16/3/1 15/3/1
f 19/3/1 16/3/1 18/3/1
f 21/3/1 18/3/1 17/3/1
f 21/3/1 20/3/1 19/3/1
f 21/3/1 19/3/1 18/3/1
f 22/3/1 20/3/1 21/3/1
f 23/3/1 20/3/1 22/3/1
f 25/3/1 21/3/1 17/3/1
f 26/3/1 21/3/1 25/3/1
f 27/3/1 25/3/1 17/3/1
f 28/3/1 25/3/1 27/3/1
f 31/4/1 30/4/1 29/4/1
f 32/4/1 30/4/1 31/4/1
f 33/4/1 24/4/1 23/4/1
f 34/4/1 24/4/1 33/4/1
f 35/4/1 33/4/1 32/4/1
f 36/4/1 33/4/1 35/4/1
f 39/2/1 38/2/1 37/2/1
f 40/2/1 38/2/1 39/2/1
f 41/2/1 38/2/1 40/2/1
f 43/6/1 41/6/1 40/6/1
f 44/6/1 41/6/1 43/6/1
f 46/6/1 44/6/1 43/6/1
f 46/6/1 45/6/1 44/6/1
f 46/6/1 43/6/1 42/6/1
f 47/6/1 45/6/1 46/6/1
f 48/5/1 47/5/1 46/5/1
f 49/5/1 47/5/1 48/5/1
f 50/5/1 48/5/1 46/5/1
f 51/5/1 48/5/1 50/5/1
f 52/5/1 47/5/1 49/5/1
f 53/5/1 47/5/1 52/5/1
f 58/3/1 55/3/1 54/3/1
f 59/3/1 55/3/1 58/3/1
f 60/3/1 57/3/1 56/3/1
f 61/3/1 57/3/1 60/3/1
f 63/4/1 62/4/1 61/4/1
f 64/4/1 62/4/1 63/4/1
f 68/4/1 66/4/1 65/4/1
f 69/4/1 66/4/1 68/4/1
f 70/4/1 68/4/1 67/4/1
f 71/4/1 68/4/1 70/4/1
f 74/3/1 73/3/1 72/3/1
f 75/3/1 73/3/1 74/3/1
f 78/4/1 77/4/1 76/4/1
f 79/4/1 77/4/1 78/4/1
f 82/1/1 81/1/1 80/1/1
f 83/1/1 81/1/1 82/1/1
f 86/4/1 85/4/1 84/4/1
f 87/4/1 85/4/1 86/4/1
f 90/2/1 89/2/1 88/2/1
f 91/2/1 89/2/1 90/2/1
f 92/2/1 89/2/1 91/2/1
f 93/6/1 92/6/1 91/6/1
f 94/6/1 92/6/1 93/6/1
f 95/2/2 96/2/2 97/2/2
f 97/2/2 96/2/2 98/2/2
f 98/2/2 96/2/2 99/2/2
f 98/6/2 99/6/2 100/6/2
f 100/6/2 99/6/2 101/6/2
f 102/3/2 103/3/2 104/3/2
f 104/3/2 103/3/2 105/3/2
f 106/4/2 107/4/2 108/4/2
f 108/4/2 107/4/2 109/4/2
f 110/1/2 111/1/2 112/1/2
f 112/1/2 111/1/2 113/1/2
f 114/4/2 115/4/2 116/4/2
f 116/4/2 115/4/2 117/4/2
f 118/2/2 119/2/2 120/2/2
f 120/2/2 119/2/2 121/2/2
f 121/2/2 119/2/2 122/2/2
f 121/6/2 122/6/2 124/6/2
f 124/6/2 122/6/2 125/6/2
f 124/6/2 125/6/2 127/6/2
f 125/6/2 126/6/2 127/6/2
f 123/6/2 124/6/2 127/6/2
f 127/6/2 126/6/2 128/6/2
f 127/5/2 128/5/2 129/5/2
f 129/5/2 128/5/2 130/5/2
f 127/5/2 129/5/2 131/5/2
f 131/5/2 129/5/2 132/5/2
f 130/5/2 128/5/2 133/5/2
f 133/5/2 128/5/2 134/5/2
f 135/3/2 136/3/2 139/3/2
f 139/3/2 136/3/2 140/3/2
f 137/3/2 138/3/2 141/3/2
f 141/3/2 138/3/2 142/3/2
f 142/4/2 143/4/2 144/4/2
f 144/4/2 143/4/2 145/4/2
f 146/4/2 147/4/2 149/4/2
f 149/4/2 147/4/2 150/4/2
f 148/4/2 149/4/2 151/4/2
f 151/4/2 149/4/2 152/4/2
f 153/3/2 154/3/2 156/3/2
f 156/3/2 154/3/2 157/3/2
f 155/3/2 156/3/2 159/3/2
f 157/3/2 158/3/2 159/3/2
f 156/3/2 157/3/2 159/3/2
f 159/3/2 158/3/2 160/3/2
f 160/3/2 158/3/2 161/3/2
f 155/3/2 159/3/2 163/3/2
f 163/3/2 159/3/2 164/3/2
f 155/3/2 163/3/2 165/3/2
f 165/3/2 163/3/2 166/3/2
f 167/4/2 168/4/2 169/4/2
f 169/4/2 168/4/2 170/4/2
f 161/4/2 162/4/2 171/4/2
f 171/4/2 162/4/2 172/4/2
f 170/4/2 171/4/2 173/4/2
f 173/4/2 171/4/2 174/4/2
f 175/3/2 176/3/2 179/3/2
f 178/3/2 179/3/2 181/3/2
f 176/4/2 177/4/2 182/4/2
f 179/3/2 176/3/2 182/3/2
f 181/3/2 179/3/2 182/3/2
f 180/4/2 181/4/2 183/4/2
f 181/4/2 182/4/2 183/4/2
f 182/4/2 177/4/2 184/4/2
f 183/4/2 182/4/2 184/4/2
f 185/3/2 186/3/2 187/3/2
f 187/3/2 186/3/2 188/3/2
f 193/4/3 190/4/3 189/4/3
f 195/1/3 192/1/3 191/1/3
f 196/1/3 192/1/3 195/1/3
f 197/4/3 194/4/3 193/4/3
f 197/4/3 193/4/3 189/4/3
f 198/4/3 194/4/3 197/4/3
f 199/4/3 197/4/3 189/4/3
f 200/4/3 197/4/3 199/4/3
f 204/4/3 202/4/3 201/4/3
f 205/4/3 202/4/3 204/4/3
f 206/4/3 202/4/3 205/4/3
f 209/3/3 204/3/3 203/3/3
f 209/3/3 205/3/3 204/3/3
f 210/3/3 205/3/3 209/3/3
f 211/3/3 205/3/3 210/3/3
f 212/4/3 207/4/3 206/4/3
f 214/3/3 209/3/3 208/3/3
f 214/3/3 210/3/3 209/3/3
f 215/8/3 211/8/3 210/8/3
f 215/3/3 210/3/3 214/3/3
f 216/3/3 205/3/3 211/3/3
f 216/8/3 211/8/3 215/8/3
f 217/4/3 213/4/3 212/4/3
f 217/4/3 212/4/3 206/4/3
f 218/4/3 213/4/3 217/4/3
f 219/3/3 214/3/3 208/3/3
f 220/3/3 216/3/3 215/3/3
f 221/3/3 205/3/3 216/3/3
f 221/3/3 216/3/3 220/3/3
f 223/4/3 213/4/3 218/4/3
f 224/3/3 220/3/3 219/3/3
f 224/3/3 219/3/3 208/3/3
f 225/3/3 220/3/3 224/3/3
f 226/8/3 221/8/3 220/8/3
f 226/3/3 220/3/3 225/3/3
f 227/3/3 205/3/3 221/3/3
f 227/8/3 221/8/3 226/8/3
f 228/4/3 223/4/3 222/4/3
f 228/4/3 213/4/3 223/4/3
f 229/4/3 213/4/3 228/4/3
f 230/3/3 226/3/3 225/3/3
f 230/3/3 227/3/3 226/3/3
f 231/3/3 205/3/3 227/3/3
f 231/3/3 227/3/3 230/3/3
f 232/3/3 205/3/3 231/3/3
f 233/4/3 228/4/3 222/4/3
f 234/4/3 228/4/3 233/4/3
f 235/4/3 232/4/3 231/4/3
f 235/4/3 233/4/3 232/4/3
f 236/4/3 233/4/3 235/4/3
f 241/3/3 238/3/3 237/3/3
f 242/3/3 238/3/3 241/3/3
f 248/3/3 240/3/3 239/3/3
f 249/3/3 240/3/3 248/3/3
f 250/2/3 244/2/3 243/2/3
f 251/2/3 244/2/3 250/2/3
f 254/2/3 253/2/3 252/2/3
f 255/2/3 253/2/3 254/2/3
f 256/6/3 246/6/3 245/6/3
f 257/5/3 247/5/3 246/5/3
f 257/6/3 246/6/3 256/6/3
f 258/5/3 247/5/3 257/5/3
f 261/3/3 260/3/3 259/3/3
f 262/3/3 260/3/3 261/3/3
f 265/3/3 264/3/3 263/3/3
f 266/3/3 264/3/3 265/3/3
f 271/3/3 268/3/3 267/3/3
f 272/3/3 268/3/3 271/3/3
f 273/3/3 270/3/3 269/3/3
f 274/3/3 270/3/3 273/3/3
f 277/5/3 272/5/3 271/5/3
f 278/5/3 272/5/3 277/5/3
f 279/6/3 276/6/3 275/6/3
f 280/6/3 276/6/3 279/6/3
f 285/3/3 282/3/3 281/3/3
f 286/3/3 282/3/3 285/3/3
f 287/6/3 284/6/3 283/6/3
f 288/6/3 284/6/3 287/6/3
f 291/5/3 290/5/3 289/5/3
f 292/5/3 290/5/3 291/5/3
f 295/3/3 294/3/3 293/3/3
f 296/3/3 294/3/3 295/3/3
f 297/3/3 292/3/3 291/3/3
f 298/3/3 292/3/3 297/3/3
f 299/3/4 300/3/4 301/3/4
f 301/3/4 300/3/4 302/3/4
f 301/5/4 302/5/4 306/5/4
f 306/5/4 302/5/4 307/5/4
f 303/2/4 304/2/4 308/2/4
f 304/6/4 305/6/4 309/6/4
f 308/2/4 304/2/4 309/2/4
f 309/6/4 305/6/4 310/6/4
f 311/3/4 312/3/4 316/3/4
f 316/3/4 312/3/4 317/3/4
f 313/2/4 314/2/4 318/2/4
f 314/6/4 315/6/4 319/6/4
f 318/2/4 314/2/4 319/2/4
f 319/6/4 315/6/4 320/6/4
f 321/5/4 322/5/4 323/5/4
f 323/5/4 322/5/4 324/5/4
f 323/3/4 324/3/4 325/3/4
f 325/3/4 324/3/4 326/3/4
f 327/3/4 328/3/4 332/3/4
f 332/3/4 328/3/4 333/3/4
f 329/6/4 330/6/4 334/6/4
f 330/5/4 331/5/4 335/5/4
f 334/6/4 330/6/4 335/6/4
f 335/5/4 331/5/4 336/5/4
f 337/3/4 338/3/4 339/3/4
f 339/3/4 338/3/4 340/3/4
f 341/4/4 342/4/4 344/4/4
f 344/4/4 342/4/4 345/4/4
f 343/3/4 344/3/4 348/3/4
f 348/3/4 344/3/4 349/3/4
f 345/4/4 346/4/4 350/4/4
f 350/4/4 346/4/4 351/4/4
f 347/3/4 348/3/4 353/3/4
f 353/3/4 348/3/4 354/3/4
f 355/3/4 356/3/4 357/3/4
f 357/3/4 356/3/4 358/3/4
f 351/4/4 352/4/4 361/4/4
f 361/4/4 352/4/4 362/4/4
f 358/3/4 359/3/4 363/3/4
f 363/3/4 359/3/4 364/3/4
f 360/4/4 361/4/4 365/4/4
f 365/4/4 361/4/4 366/4/4
f 364/4/4 365/4/4 367/4/4
f 367/4/4 365/4/4 368/4/4
f 369/4/4 370/4/4 372/4/4
f 372/4/4 370/4/4 373/4/4
f 371/4/4 372/4/4 376/4/4
f 373/4/4 374/4/4 376/4/4
f 372/4/4 373/4/4 376/4/4
f 375/4/4 376/4/4 377/4/4
f 376/4/4 374/4/4 378/4/4
f 377/4/4 376/4/4 378/4/4
f 378/4/4 374/4/4 379/4/4
f 379/4/4 374/4/4 380/4/4
f 380/4/4 374/4/4 381/4/4
f 381/4/4 374/4/4 382/4/4
f 380/4/4 381/4/4 383/4/4
f 383/4/4 381/4/4 384/4/4
f 389/2/5 386/2/5 385/2/5
f 390/2/5 386/2/5 389/2/5
f 391/2/5 388/2/5 387/2/5
f 392/2/5 388/2/5 391/2/5
f 395/6/5 394/6/5 393/6/5
f 396/6/5 394/6/5 395/6/5
f 397/6/5 394/6/5 396/6/5
f 398/6/5 394/6/5 397/6/5
f 400/6/5 397/6/5 396/6/5
f 401/6/5 397/6/5 400/6/5
f 403/6/5 400/6/5 399/6/5
f 403/6/5 402/6/5 401/6/5
f 403/6/5 401/6/5 400/6/5
f 404/6/5 402/6/5 403/6/5
f 411/3/5 406/3/5 405/3/5
f 412/5/5 407/5/5 406/5/5
f 412/3/5 406/3/5 411/3/5
f 413/5/5 407/5/5 412/5/5
f 414/5/5 409/5/5 408/5/5
f 415/3/5 410/3/5 409/3/5
f 415/5/5 409/5/5 414/5/5
f 416/3/5 410/3/5 415/3/5
f 420/3/5 418/3/5 417/3/5
f 421/3/5 418/3/5 420/3/5
f 423/3/5 420/3/5 419/3/5
f 423/3/5 422/3/5 421/3/5
f 423/3/5 421/3/5 420/3/5
f 424/3/5 422/3/5 423/3/5
f 425/3/5 423/3/5 419/3/5
f 426/3/5 422/3/5 424/3/5
f 427/3/5 425/3/5 419/3/5
f 427/3/5 426/3/5 425/3/5
f 428/3/5 426/3/5 427/3/5
f 429/3/5 422/3/5 426/3/5
f 429/3/5 426/3/5 428/3/5
f 430/3/5 422/3/5 429/3/5
f 431/3/5 429/3/5 428/3/5
f 432/3/5 429/3/5 431/3/5
f 433/3/5 429/3/5 432/3/5
f 434/3/5 429/3/5 433/3/5
f 435/4/5 433/4/5 432/4/5
f 436/4/5 433/4/5 435/4/5
f 441/3/5 438/3/5 437/3/5
f 442/3/5 438/3/5 441/3/5
f 443/3/5 440/3/5 439/3/5
f 444/3/5 440/3/5 443/3/5
f 449/3/5 446/3/5 445/3/5
f 450/3/5 446/3/5 449/3/5
f 453/3/5 448/3/5 447/3/5
f 454/3/5 448/3/5 453/3/5
f 455/4/5 451/4/5 450/4/5
f 456/4/5 451/4/5 455/4/5
f 457/4/5 453/4/5 452/4/5
f 458/4/5 453/4/5 457/4/5
f 461/1/5 460/1/5 459/1/5
f 462/1/5 460/1/5 461/1/5
f 467/3/5 464/3/5 463/3/5
f 468/3/5 464/3/5 467/3/5
f 469/3/5 466/3/5 465/3/5
f 470/3/5 466/3/5 469/3/5
f 471/4/5 468/4/5 467/4/5
f 472/4/5 468/4/5 471/4/5
f 475/4/5 470/4/5 469/4/5
f 476/4/5 470/4/5 475/4/5
f 477/4/5 473/4/5 472/4/5
f 478/4/5 473/4/5 477/4/5
f 479/4/5 475/4/5 474/4/5
f 480/4/5 475/4/5 479/4/5
f 485/3/5 482/3/5 481/3/5
f 486/3/5 482/3/5 485/3/5
f 487/3/5 484/3/5 483/3/5
f 488/3/5 484/3/5 487/3/5
f 493/4/5 490/4/5 489/4/5
f 494/4/5 490/4/5 493/4/5
f 495/4/5 492/4/5 491/4/5
f 496/4/5 492/4/5 495/4/5
f 499/4/5 498/4/5 497/4/5
f 500/4/5 498/4/5 499/4/5
f 501/2/6 502/2/6 505/2/6
f 505/2/6 502/2/6 506/2/6
f 503/2/6 504/2/6 507/2/6
f 507/2/6 504/2/6 508/2/6
f 509/5/6 510/5/6 513/5/6
f 513/5/6 510/5/6 514/5/6
f 514/5/6 510/5/6 515/5/6
f 515/5/6 510/5/6 516/5/6
f 511/3/6 512/3/6 519/3/6
f 512/5/6 513/5/6 520/5/6
f 519/3/6 512/3/6 520/3/6
f 513/5/6 514/5/6 520/5/6
f 520/5/6 514/5/6 521/5/6
f 521/5/6 514/5/6 522/5/6
f 515/5/6 516/5/6 523/5/6
f 516/5/6 517/5/6 523/5/6
f 523/5/6 517/5/6 524/5/6
f 517/3/6 518/3/6 525/3/6
f 524/5/6 517/5/6 525/5/6
f 525/3/6 518/3/6 526/3/6
f 523/5/6 524/5/6 527/5/6
f 521/5/6 522/5/6 527/5/6
f 522/5/6 523/5/6 527/5/6
f 527/5/6 524/5/6 528/5/6
f 529/1/6 530/1/6 531/1/6
f 531/1/6 530/1/6 532/1/6
f 533/4/6 534/4/6 538/4/6
f 538/4/6 534/4/6 539/4/6
f 535/4/6 536/4/6 540/4/6
f 540/4/6 536/4/6 541/4/6
f 537/4/6 538/4/6 543/4/6
f 543/4/6 538/4/6 544/4/6
f 541/4/6 542/4/6 547/4/6
f 547/4/6 542/4/6 548/4/6
f 544/4/6 545/4/6 549/4/6
f 549/4/6 545/4/6 550/4/6
f 546/4/6 547/4/6 551/4/6
f 551/4/6 547/4/6 552/4/6
f 553/4/6 554/4/6 557/4/6
f 557/4/6 554/4/6 558/4/6
f 555/4/6 556/4/6 561/4/6
f 561/4/6 556/4/6 562/4/6
f 559/4/6 560/4/6 563/4/6
f 563/4/6 560/4/6 564/4/6
f 562/4/6 563/4/6 565/4/6
f 565/4/6 563/4/6 566/4/6
f 567/4/6 568/4/6 569/4/6
f 569/4/6 568/4/6 570/4/6
