# MagicaVoxel @ Ephtracy

# material
mtllib RunnerSkin1.mtl
usemtl palette

# normals
vn -1 0 0
vn 1 0 0
vn 0 0 1
vn 0 0 -1
vn 0 -1 0
vn 0 1 0

# texcoords
vt 0.146484 0.5
vt 0.275391 0.5
vt 0.310547 0.5
vt 0.482422 0.5
vt 0.587891 0.5
vt 0.763672 0.5
vt 0.841797 0.5
vt 0.947266 0.5
vt 0.955078 0.5
vt 0.958984 0.5
vt 0.990234 0.5

# verts
v -7 9 -0
v -7 9 -1
v -7 10 -0
v -7 10 -1
v -4 13 -0
v -4 13 -1
v -4 14 1
v -4 14 -0
v -4 15 1
v -4 15 -1
v -3 11 1
v -3 11 -2
v -3 12 3
v -3 12 2
v -3 12 1
v -3 12 -2
v -3 12 -3
v -3 13 -0
v -3 13 -1
v -3 14 1
v -3 14 -0
v -3 15 2
v -3 15 1
v -3 15 -1
v -3 15 -3
v -3 16 2
v -3 16 -3
v -3 17 3
v -3 17 2
v -3 17 -3
v -2 0 1
v -2 0 -1
v -2 1 1
v -2 1 -0
v -2 1 -1
v -2 5 1
v -2 5 -0
v -2 5 -1
v -2 5 -2
v -2 6 1
v -2 6 -2
v -2 7 1
v -2 7 -2
v -2 9 -0
v -2 9 -1
v -2 10 1
v -2 10 -0
v -2 10 -1
v -2 10 -2
v -2 11 3
v -2 11 2
v -2 11 1
v -2 11 -2
v -2 11 -3
v -2 12 3
v -2 12 2
v -2 12 1
v -2 12 -2
v -2 12 -3
v -1 10 -0
v -1 10 -1
v -1 11 -0
v -1 11 -1
v -1 14 3
v -1 14 2
v -1 15 3
v -1 15 2
v 1 0 1
v 1 0 -1
v 1 1 1
v 1 1 -0
v 1 1 -1
v 1 5 -0
v 1 5 -1
v 2 14 3
v 2 14 2
v 2 15 3
v 2 15 2
v -2 14 3
v -2 14 2
v -2 15 3
v -2 15 2
v -1 0 1
v -1 0 -1
v -1 1 1
v -1 1 -0
v -1 1 -1
v -1 5 -0
v -1 5 -1
v 1 10 -0
v 1 10 -1
v 1 11 -0
v 1 11 -1
v 1 14 3
v 1 14 2
v 1 15 3
v 1 15 2
v 2 0 1
v 2 0 -1
v 2 1 1
v 2 1 -0
v 2 1 -1
v 2 5 1
v 2 5 -0
v 2 5 -1
v 2 5 -2
v 2 6 1
v 2 6 -2
v 2 7 1
v 2 7 -2
v 2 9 -0
v 2 9 -1
v 2 10 1
v 2 10 -0
v 2 10 -1
v 2 10 -2
v 2 11 3
v 2 11 2
v 2 11 1
v 2 11 -2
v 2 11 -3
v 2 12 3
v 2 12 2
v 2 12 1
v 2 12 -2
v 2 12 -3
v 3 11 1
v 3 11 -2
v 3 12 3
v 3 12 2
v 3 12 1
v 3 12 -2
v 3 12 -3
v 3 13 -0
v 3 13 -1
v 3 14 1
v 3 14 -0
v 3 15 2
v 3 15 1
v 3 15 -1
v 3 15 -3
v 3 16 2
v 3 16 -3
v 3 17 3
v 3 17 2
v 3 17 -3
v 4 13 -0
v 4 13 -1
v 4 14 1
v 4 14 -0
v 4 15 1
v 4 15 -1
v 7 9 -0
v 7 9 -1
v 7 10 -0
v 7 10 -1
v -3 12 3
v -3 17 3
v -2 11 3
v -2 12 3
v -2 13 3
v -2 14 3
v -2 15 3
v -1 13 3
v -1 14 3
v -1 15 3
v 1 13 3
v 1 14 3
v 1 15 3
v 2 11 3
v 2 12 3
v 2 13 3
v 2 14 3
v 2 15 3
v 3 12 3
v 3 17 3
v -2 14 2
v -2 15 2
v -1 14 2
v -1 15 2
v 1 14 2
v 1 15 2
v 2 14 2
v 2 15 2
v -4 14 1
v -4 15 1
v -3 11 1
v -3 12 1
v -3 14 1
v -3 15 1
v -2 0 1
v -2 1 1
v -2 5 1
v -2 6 1
v -2 7 1
v -2 10 1
v -2 11 1
v -2 12 1
v -1 0 1
v -1 1 1
v -1 6 1
v -1 7 1
v 1 0 1
v 1 1 1
v 1 6 1
v 1 7 1
v 2 0 1
v 2 1 1
v 2 5 1
v 2 6 1
v 2 7 1
v 2 10 1
v 2 11 1
v 2 12 1
v 3 11 1
v 3 12 1
v 3 14 1
v 3 15 1
v 4 14 1
v 4 15 1
v -7 9 -0
v -7 10 -0
v -6 9 -0
v -6 10 -0
v -4 13 -0
v -4 14 -0
v -3 13 -0
v -3 14 -0
v -2 1 -0
v -2 5 -0
v -2 9 -0
v -2 10 -0
v -1 1 -0
v -1 5 -0
v -1 10 -0
v -1 11 -0
v 1 1 -0
v 1 5 -0
v 1 10 -0
v 1 11 -0
v 2 1 -0
v 2 5 -0
v 2 9 -0
v 2 10 -0
v 3 13 -0
v 3 14 -0
v 4 13 -0
v 4 14 -0
v 6 9 -0
v 6 10 -0
v 7 9 -0
v 7 10 -0
v -7 9 -1
v -7 10 -1
v -6 9 -1
v -6 10 -1
v -4 13 -1
v -4 15 -1
v -3 13 -1
v -3 15 -1
v -2 0 -1
v -2 1 -1
v -2 5 -1
v -2 9 -1
v -2 10 -1
v -1 0 -1
v -1 1 -1
v -1 5 -1
v -1 10 -1
v -1 11 -1
v 1 0 -1
v 1 1 -1
v 1 5 -1
v 1 10 -1
v 1 11 -1
v 2 0 -1
v 2 1 -1
v 2 5 -1
v 2 9 -1
v 2 10 -1
v 3 13 -1
v 3 15 -1
v 4 13 -1
v 4 15 -1
v 6 9 -1
v 6 10 -1
v 7 9 -1
v 7 10 -1
v -3 11 -2
v -3 12 -2
v -2 5 -2
v -2 6 -2
v -2 7 -2
v -2 10 -2
v -2 11 -2
v -2 12 -2
v 2 5 -2
v 2 6 -2
v 2 7 -2
v 2 10 -2
v 2 11 -2
v 2 12 -2
v 3 11 -2
v 3 12 -2
v -3 12 -3
v -3 15 -3
v -3 16 -3
v -3 17 -3
v -2 11 -3
v -2 12 -3
v -2 16 -3
v -2 17 -3
v -1 16 -3
v -1 17 -3
v 1 16 -3
v 1 17 -3
v 2 11 -3
v 2 12 -3
v 2 16 -3
v 2 17 -3
v 3 12 -3
v 3 15 -3
v 3 16 -3
v 3 17 -3
v -2 0 1
v -1 0 1
v 1 0 1
v 2 0 1
v -2 0 -1
v -1 0 -1
v 1 0 -1
v 2 0 -1
v -2 5 1
v 2 5 1
v -2 5 -0
v -1 5 -0
v 1 5 -0
v 2 5 -0
v -2 5 -1
v -1 5 -1
v 1 5 -1
v 2 5 -1
v -2 5 -2
v 2 5 -2
v -7 9 -0
v -6 9 -0
v -2 9 -0
v 2 9 -0
v 6 9 -0
v 7 9 -0
v -7 9 -1
v -6 9 -1
v -2 9 -1
v 2 9 -1
v 6 9 -1
v 7 9 -1
v -2 11 3
v 2 11 3
v -2 11 2
v 2 11 2
v -3 11 1
v -2 11 1
v 2 11 1
v 3 11 1
v -1 11 -0
v 1 11 -0
v -1 11 -1
v 1 11 -1
v -3 11 -2
v -2 11 -2
v 2 11 -2
v 3 11 -2
v -2 11 -3
v 2 11 -3
v -3 12 3
v -2 12 3
v 2 12 3
v 3 12 3
v -3 12 2
v -2 12 2
v 2 12 2
v 3 12 2
v -3 12 1
v -2 12 1
v 2 12 1
v 3 12 1
v -3 12 -2
v -2 12 -2
v 2 12 -2
v 3 12 -2
v -3 12 -3
v -2 12 -3
v 2 12 -3
v 3 12 -3
v -4 13 -0
v -3 13 -0
v 3 13 -0
v 4 13 -0
v -4 13 -1
v -3 13 -1
v 3 13 -1
v 4 13 -1
v -4 14 1
v -3 14 1
v 3 14 1
v 4 14 1
v -4 14 -0
v -3 14 -0
v 3 14 -0
v 4 14 -0
v -2 15 3
v -1 15 3
v 1 15 3
v 2 15 3
v -2 15 2
v -1 15 2
v 1 15 2
v 2 15 2
v -2 1 1
v -1 1 1
v 1 1 1
v 2 1 1
v -2 1 -0
v -1 1 -0
v 1 1 -0
v 2 1 -0
v -2 10 1
v 2 10 1
v -7 10 -0
v -6 10 -0
v -2 10 -0
v -1 10 -0
v 1 10 -0
v 2 10 -0
v 6 10 -0
v 7 10 -0
v -7 10 -1
v -6 10 -1
v -2 10 -1
v -1 10 -1
v 1 10 -1
v 2 10 -1
v 6 10 -1
v 7 10 -1
v -2 10 -2
v 2 10 -2
v -2 14 3
v -1 14 3
v 1 14 3
v 2 14 3
v -2 14 2
v -1 14 2
v 1 14 2
v 2 14 2
v -4 15 1
v -3 15 1
v 3 15 1
v 4 15 1
v -4 15 -1
v -3 15 -1
v 3 15 -1
v 4 15 -1
v -3 17 3
v 3 17 3
v -3 17 2
v -2 17 2
v -1 17 2
v 1 17 2
v 2 17 2
v 3 17 2
v -3 17 -3
v -2 17 -3
v -1 17 -3
v 1 17 -3
v 2 17 -3
v 3 17 -3

# faces
f 3/2/1 2/2/1 1/2/1
f 4/2/1 2/2/1 3/2/1
f 8/2/1 6/2/1 5/2/1
f 9/2/1 8/2/1 7/2/1
f 10/2/1 6/2/1 8/2/1
f 10/2/1 8/2/1 9/2/1
f 15/2/1 12/2/1 11/2/1
f 16/2/1 12/2/1 15/2/1
f 18/2/1 15/2/1 14/2/1
f 18/2/1 17/2/1 16/2/1
f 18/2/1 16/2/1 15/2/1
f 19/2/1 17/2/1 18/2/1
f 20/2/1 18/2/1 14/2/1
f 21/2/1 18/2/1 20/2/1
f 22/10/1 14/10/1 13/10/1
f 22/2/1 20/2/1 14/2/1
f 23/2/1 20/2/1 22/2/1
f 24/2/1 17/2/1 19/2/1
f 25/2/1 17/2/1 24/2/1
f 26/8/1 23/8/1 22/8/1
f 26/10/1 22/10/1 13/10/1
f 26/8/1 25/8/1 24/8/1
f 26/8/1 24/8/1 23/8/1
f 27/8/1 25/8/1 26/8/1
f 28/10/1 26/10/1 13/10/1
f 29/2/1 27/2/1 26/2/1
f 29/10/1 26/10/1 28/10/1
f 30/2/1 27/2/1 29/2/1
f 33/9/1 32/9/1 31/9/1
f 34/9/1 32/9/1 33/9/1
f 35/9/1 32/9/1 34/9/1
f 37/6/1 35/6/1 34/6/1
f 38/6/1 35/6/1 37/6/1
f 40/6/1 38/6/1 37/6/1
f 40/6/1 39/6/1 38/6/1
f 40/6/1 37/6/1 36/6/1
f 41/6/1 39/6/1 40/6/1
f 42/11/1 41/11/1 40/11/1
f 43/11/1 41/11/1 42/11/1
f 44/3/1 43/3/1 42/3/1
f 45/3/1 43/3/1 44/3/1
f 46/3/1 44/3/1 42/3/1
f 47/3/1 44/3/1 46/3/1
f 48/3/1 43/3/1 45/3/1
f 49/3/1 43/3/1 48/3/1
f 55/10/1 51/10/1 50/10/1
f 56/2/1 52/2/1 51/2/1
f 56/10/1 51/10/1 55/10/1
f 57/2/1 52/2/1 56/2/1
f 58/2/1 54/2/1 53/2/1
f 59/2/1 54/2/1 58/2/1
f 62/2/1 61/2/1 60/2/1
f 63/2/1 61/2/1 62/2/1
f 66/10/1 65/10/1 64/10/1
f 67/10/1 65/10/1 66/10/1
f 70/9/1 69/9/1 68/9/1
f 71/9/1 69/9/1 70/9/1
f 72/9/1 69/9/1 71/9/1
f 73/6/1 72/6/1 71/6/1
f 74/6/1 72/6/1 73/6/1
f 77/10/1 76/10/1 75/10/1
f 78/10/1 76/10/1 77/10/1
f 79/10/2 80/10/2 81/10/2
f 81/10/2 80/10/2 82/10/2
f 83/9/2 84/9/2 85/9/2
f 85/9/2 84/9/2 86/9/2
f 86/9/2 84/9/2 87/9/2
f 86/6/2 87/6/2 88/6/2
f 88/6/2 87/6/2 89/6/2
f 90/2/2 91/2/2 92/2/2
f 92/2/2 91/2/2 93/2/2
f 94/10/2 95/10/2 96/10/2
f 96/10/2 95/10/2 97/10/2
f 98/9/2 99/9/2 100/9/2
f 100/9/2 99/9/2 101/9/2
f 101/9/2 99/9/2 102/9/2
f 101/6/2 102/6/2 104/6/2
f 104/6/2 102/6/2 105/6/2
f 104/6/2 105/6/2 107/6/2
f 105/6/2 106/6/2 107/6/2
f 103/6/2 104/6/2 107/6/2
f 107/6/2 106/6/2 108/6/2
f 107/11/2 108/11/2 109/11/2
f 109/11/2 108/11/2 110/11/2
f 109/3/2 110/3/2 111/3/2
f 111/3/2 110/3/2 112/3/2
f 109/3/2 111/3/2 113/3/2
f 113/3/2 111/3/2 114/3/2
f 112/3/2 110/3/2 115/3/2
f 115/3/2 110/3/2 116/3/2
f 117/10/2 118/10/2 122/10/2
f 118/2/2 119/2/2 123/2/2
f 122/10/2 118/10/2 123/10/2
f 123/2/2 119/2/2 124/2/2
f 120/2/2 121/2/2 125/2/2
f 125/2/2 121/2/2 126/2/2
f 127/2/2 128/2/2 131/2/2
f 131/2/2 128/2/2 132/2/2
f 130/2/2 131/2/2 134/2/2
f 132/2/2 133/2/2 134/2/2
f 131/2/2 132/2/2 134/2/2
f 134/2/2 133/2/2 135/2/2
f 130/2/2 134/2/2 136/2/2
f 136/2/2 134/2/2 137/2/2
f 129/10/2 130/10/2 138/10/2
f 130/2/2 136/2/2 138/2/2
f 138/2/2 136/2/2 139/2/2
f 135/2/2 133/2/2 140/2/2
f 140/2/2 133/2/2 141/2/2
f 138/8/2 139/8/2 142/8/2
f 129/10/2 138/10/2 142/10/2
f 140/8/2 141/8/2 142/8/2
f 139/8/2 140/8/2 142/8/2
f 142/8/2 141/8/2 143/8/2
f 129/10/2 142/10/2 144/10/2
f 142/2/2 143/2/2 145/2/2
f 144/10/2 142/10/2 145/10/2
f 145/2/2 143/2/2 146/2/2
f 147/2/2 148/2/2 150/2/2
f 149/2/2 150/2/2 151/2/2
f 150/2/2 148/2/2 152/2/2
f 151/2/2 150/2/2 152/2/2
f 153/2/2 154/2/2 155/2/2
f 155/2/2 154/2/2 156/2/2
f 160/10/3 158/10/3 157/10/3
f 161/10/3 158/10/3 160/10/3
f 162/10/3 158/10/3 161/10/3
f 163/10/3 158/10/3 162/10/3
f 164/10/3 160/10/3 159/10/3
f 164/10/3 161/10/3 160/10/3
f 164/1/3 162/1/3 161/1/3
f 165/1/3 162/1/3 164/1/3
f 166/10/3 158/10/3 163/10/3
f 167/10/3 165/10/3 164/10/3
f 167/10/3 166/10/3 165/10/3
f 167/10/3 164/10/3 159/10/3
f 168/10/3 166/10/3 167/10/3
f 169/10/3 158/10/3 166/10/3
f 169/10/3 166/10/3 168/10/3
f 170/10/3 167/10/3 159/10/3
f 171/10/3 167/10/3 170/10/3
f 172/1/3 168/1/3 167/1/3
f 172/10/3 167/10/3 171/10/3
f 173/1/3 168/1/3 172/1/3
f 174/10/3 158/10/3 169/10/3
f 175/10/3 174/10/3 173/10/3
f 175/10/3 173/10/3 172/10/3
f 175/10/3 172/10/3 171/10/3
f 176/10/3 158/10/3 174/10/3
f 176/10/3 174/10/3 175/10/3
f 179/11/3 178/11/3 177/11/3
f 180/11/3 178/11/3 179/11/3
f 183/11/3 182/11/3 181/11/3
f 184/11/3 182/11/3 183/11/3
f 189/2/3 186/2/3 185/2/3
f 190/2/3 186/2/3 189/2/3
f 197/2/3 188/2/3 187/2/3
f 198/2/3 188/2/3 197/2/3
f 199/9/3 192/9/3 191/9/3
f 200/9/3 192/9/3 199/9/3
f 201/6/3 194/6/3 193/6/3
f 201/11/3 195/11/3 194/11/3
f 202/3/3 196/3/3 195/3/3
f 202/11/3 195/11/3 201/11/3
f 205/6/3 201/6/3 193/6/3
f 205/4/3 202/4/3 201/4/3
f 206/3/3 196/3/3 202/3/3
f 206/4/3 202/4/3 205/4/3
f 207/9/3 204/9/3 203/9/3
f 208/9/3 204/9/3 207/9/3
f 209/6/3 205/6/3 193/6/3
f 210/11/3 206/11/3 205/11/3
f 210/6/3 205/6/3 209/6/3
f 211/3/3 196/3/3 206/3/3
f 211/11/3 206/11/3 210/11/3
f 212/3/3 196/3/3 211/3/3
f 215/2/3 214/2/3 213/2/3
f 216/2/3 214/2/3 215/2/3
f 219/2/3 218/2/3 217/2/3
f 220/2/3 218/2/3 219/2/3
f 223/2/3 222/2/3 221/2/3
f 224/2/3 222/2/3 223/2/3
f 227/2/3 226/2/3 225/2/3
f 228/2/3 226/2/3 227/2/3
f 231/3/3 224/3/3 223/3/3
f 232/3/3 224/3/3 231/3/3
f 233/6/3 230/6/3 229/6/3
f 234/6/3 230/6/3 233/6/3
f 239/2/3 236/2/3 235/2/3
f 240/2/3 236/2/3 239/2/3
f 241/6/3 238/6/3 237/6/3
f 242/6/3 238/6/3 241/6/3
f 247/2/3 246/2/3 245/2/3
f 248/2/3 246/2/3 247/2/3
f 249/3/3 244/3/3 243/3/3
f 250/3/3 244/3/3 249/3/3
f 251/2/3 250/2/3 249/2/3
f 252/2/3 250/2/3 251/2/3
f 253/2/4 254/2/4 255/2/4
f 255/2/4 254/2/4 256/2/4
f 257/2/4 258/2/4 259/2/4
f 259/2/4 258/2/4 260/2/4
f 255/3/4 256/3/4 264/3/4
f 264/3/4 256/3/4 265/3/4
f 261/9/4 262/9/4 266/9/4
f 262/6/4 263/6/4 267/6/4
f 266/9/4 262/9/4 267/9/4
f 267/6/4 263/6/4 268/6/4
f 269/2/4 270/2/4 274/2/4
f 274/2/4 270/2/4 275/2/4
f 271/9/4 272/9/4 276/9/4
f 272/6/4 273/6/4 277/6/4
f 276/9/4 272/9/4 277/9/4
f 277/6/4 273/6/4 278/6/4
f 281/2/4 282/2/4 283/2/4
f 283/2/4 282/2/4 284/2/4
f 279/3/4 280/3/4 285/3/4
f 285/3/4 280/3/4 286/3/4
f 285/2/4 286/2/4 287/2/4
f 287/2/4 286/2/4 288/2/4
f 289/2/4 290/2/4 295/2/4
f 295/2/4 290/2/4 296/2/4
f 291/6/4 292/6/4 297/6/4
f 292/11/4 293/11/4 298/11/4
f 297/6/4 292/6/4 298/6/4
f 293/3/4 294/3/4 299/3/4
f 298/11/4 293/11/4 299/11/4
f 299/3/4 294/3/4 300/3/4
f 301/2/4 302/2/4 303/2/4
f 303/2/4 302/2/4 304/2/4
f 305/2/4 306/2/4 310/2/4
f 307/2/4 308/2/4 311/2/4
f 306/8/4 307/8/4 311/8/4
f 311/2/4 308/2/4 312/2/4
f 306/8/4 311/8/4 313/8/4
f 311/8/4 312/8/4 313/8/4
f 313/8/4 312/8/4 314/8/4
f 306/8/4 313/8/4 315/8/4
f 313/2/4 314/2/4 315/2/4
f 315/2/4 314/2/4 316/2/4
f 309/2/4 310/2/4 317/2/4
f 310/2/4 306/2/4 318/2/4
f 317/2/4 310/2/4 318/2/4
f 306/8/4 315/8/4 319/8/4
f 315/8/4 316/8/4 319/8/4
f 319/8/4 316/8/4 320/8/4
f 318/2/4 306/2/4 321/2/4
f 306/8/4 319/8/4 322/8/4
f 321/2/4 306/2/4 322/2/4
f 319/2/4 320/2/4 323/2/4
f 322/8/4 319/8/4 323/8/4
f 323/2/4 320/2/4 324/2/4
f 329/9/5 326/9/5 325/9/5
f 330/9/5 326/9/5 329/9/5
f 331/9/5 328/9/5 327/9/5
f 332/9/5 328/9/5 331/9/5
f 335/6/5 334/6/5 333/6/5
f 336/6/5 334/6/5 335/6/5
f 337/6/5 334/6/5 336/6/5
f 338/6/5 334/6/5 337/6/5
f 340/6/5 337/6/5 336/6/5
f 341/6/5 337/6/5 340/6/5
f 343/6/5 340/6/5 339/6/5
f 343/6/5 342/6/5 341/6/5
f 343/6/5 341/6/5 340/6/5
f 344/6/5 342/6/5 343/6/5
f 351/2/5 346/2/5 345/2/5
f 352/3/5 347/3/5 346/3/5
f 352/2/5 346/2/5 351/2/5
f 353/3/5 347/3/5 352/3/5
f 354/3/5 349/3/5 348/3/5
f 355/2/5 350/2/5 349/2/5
f 355/3/5 349/3/5 354/3/5
f 356/2/5 350/2/5 355/2/5
f 359/10/5 358/10/5 357/10/5
f 360/10/5 358/10/5 359/10/5
f 362/2/5 360/2/5 359/2/5
f 363/2/5 360/2/5 362/2/5
f 365/2/5 363/2/5 362/2/5
f 365/2/5 364/2/5 363/2/5
f 365/2/5 362/2/5 361/2/5
f 366/2/5 364/2/5 365/2/5
f 367/2/5 365/2/5 361/2/5
f 368/2/5 364/2/5 366/2/5
f 369/2/5 367/2/5 361/2/5
f 369/2/5 368/2/5 367/2/5
f 370/2/5 368/2/5 369/2/5
f 371/2/5 364/2/5 368/2/5
f 371/2/5 368/2/5 370/2/5
f 372/2/5 364/2/5 371/2/5
f 373/2/5 371/2/5 370/2/5
f 374/2/5 371/2/5 373/2/5
f 379/10/5 376/10/5 375/10/5
f 380/10/5 376/10/5 379/10/5
f 381/10/5 378/10/5 377/10/5
f 382/10/5 378/10/5 381/10/5
f 383/2/5 380/2/5 379/2/5
f 384/2/5 380/2/5 383/2/5
f 385/2/5 382/2/5 381/2/5
f 386/2/5 382/2/5 385/2/5
f 391/2/5 388/2/5 387/2/5
f 392/2/5 388/2/5 391/2/5
f 393/2/5 390/2/5 389/2/5
f 394/2/5 390/2/5 393/2/5
f 399/2/5 396/2/5 395/2/5
f 400/2/5 396/2/5 399/2/5
f 401/2/5 398/2/5 397/2/5
f 402/2/5 398/2/5 401/2/5
f 407/2/5 404/2/5 403/2/5
f 408/2/5 404/2/5 407/2/5
f 409/2/5 406/2/5 405/2/5
f 410/2/5 406/2/5 409/2/5
f 415/10/5 412/10/5 411/10/5
f 416/10/5 412/10/5 415/10/5
f 417/10/5 414/10/5 413/10/5
f 418/10/5 414/10/5 417/10/5
f 419/9/6 420/9/6 423/9/6
f 423/9/6 420/9/6 424/9/6
f 421/9/6 422/9/6 425/9/6
f 425/9/6 422/9/6 426/9/6
f 427/3/6 428/3/6 431/3/6
f 431/3/6 428/3/6 432/3/6
f 432/3/6 428/3/6 433/3/6
f 433/3/6 428/3/6 434/3/6
f 429/2/6 430/2/6 437/2/6
f 430/3/6 431/3/6 438/3/6
f 437/2/6 430/2/6 438/2/6
f 431/3/6 432/3/6 438/3/6
f 438/3/6 432/3/6 439/3/6
f 439/3/6 432/3/6 440/3/6
f 433/3/6 434/3/6 441/3/6
f 434/3/6 435/3/6 441/3/6
f 441/3/6 435/3/6 442/3/6
f 435/2/6 436/2/6 443/2/6
f 442/3/6 435/3/6 443/3/6
f 443/2/6 436/2/6 444/2/6
f 441/3/6 442/3/6 445/3/6
f 439/3/6 440/3/6 445/3/6
f 440/3/6 441/3/6 445/3/6
f 445/3/6 442/3/6 446/3/6
f 447/1/6 448/1/6 451/1/6
f 451/1/6 448/1/6 452/1/6
f 449/1/6 450/1/6 453/1/6
f 453/1/6 450/1/6 454/1/6
f 455/2/6 456/2/6 459/2/6
f 459/2/6 456/2/6 460/2/6
f 457/2/6 458/2/6 461/2/6
f 461/2/6 458/2/6 462/2/6
f 463/10/6 464/10/6 465/10/6
f 465/10/6 464/10/6 466/10/6
f 466/10/6 464/10/6 467/10/6
f 467/10/6 464/10/6 468/10/6
f 468/10/6 464/10/6 469/10/6
f 469/10/6 464/10/6 470/10/6
f 465/2/6 466/2/6 471/2/6
f 466/8/6 467/8/6 472/8/6
f 471/2/6 466/2/6 472/2/6
f 467/2/6 468/2/6 473/2/6
f 472/8/6 467/8/6 473/8/6
f 468/8/6 469/8/6 474/8/6
f 473/2/6 468/2/6 474/2/6
f 469/2/6 470/2/6 475/2/6
f 474/8/6 469/8/6 475/8/6
f 475/2/6 470/2/6 476/2/6
