# MagicaVoxel @ Ephtracy

# material
mtllib RunnerSkin2.mtl
usemtl palette

# normals
vn -1 0 0
vn 1 0 0
vn 0 0 1
vn 0 0 -1
vn 0 -1 0
vn 0 1 0

# texcoords
vt 0.275391 0.5
vt 0.587891 0.5
vt 0.841797 0.5
vt 0.955078 0.5
vt 0.958984 0.5
vt 0.994141 0.5

# verts
v -7 8 -0
v -7 8 -1
v -7 10 -0
v -7 10 -1
v -5 17 -0
v -5 17 -1
v -5 19 -0
v -5 19 -1
v -4 11 1
v -4 11 -2
v -4 12 2
v -4 12 1
v -4 12 -2
v -4 12 -3
v -4 14 2
v -4 14 1
v -4 17 2
v -4 17 1
v -4 17 -0
v -4 17 -1
v -4 18 2
v -4 18 -0
v -4 18 -1
v -4 18 -3
v -3 0 1
v -3 0 -1
v -3 1 1
v -3 1 -0
v -3 5 2
v -3 5 -0
v -3 5 -1
v -3 5 -3
v -3 8 -0
v -3 8 -1
v -3 9 2
v -3 9 1
v -3 9 -2
v -3 9 -3
v -3 10 1
v -3 10 -0
v -3 10 -1
v -3 10 -2
v -2 5 3
v -2 5 2
v -2 9 3
v -2 9 2
v -2 9 1
v -2 9 -2
v -2 9 -3
v -2 10 2
v -2 10 1
v -2 10 -2
v -2 10 -3
v -2 11 2
v -2 11 1
v -2 11 -2
v -2 11 -3
v -2 12 2
v -2 12 1
v -2 12 -2
v -2 12 -3
v -2 13 3
v -2 13 2
v -2 14 2
v -2 15 3
v -2 15 2
v -1 10 1
v -1 10 -2
v -1 11 1
v -1 11 -2
v -1 12 3
v -1 12 2
v -1 13 3
v -1 13 2
v 1 0 1
v 1 0 -1
v 1 1 1
v 1 1 -0
v 1 5 -0
v 1 5 -1
v 3 18 -0
v 3 18 -1
v 3 19 -0
v 3 19 -1
v -3 18 -0
v -3 18 -1
v -3 19 -0
v -3 19 -1
v -1 0 1
v -1 0 -1
v -1 1 1
v -1 1 -0
v -1 5 -0
v -1 5 -1
v 1 10 1
v 1 10 -2
v 1 11 1
v 1 11 -2
v 1 12 3
v 1 12 2
v 1 13 3
v 1 13 2
v 2 5 3
v 2 5 2
v 2 9 3
v 2 9 2
v 2 9 1
v 2 9 -2
v 2 9 -3
v 2 10 2
v 2 10 1
v 2 10 -2
v 2 10 -3
v 2 11 2
v 2 11 1
v 2 11 -2
v 2 11 -3
v 2 12 2
v 2 12 1
v 2 12 -2
v 2 12 -3
v 2 13 3
v 2 13 2
v 2 14 2
v 2 15 3
v 2 15 2
v 3 0 1
v 3 0 -1
v 3 1 1
v 3 1 -0
v 3 5 2
v 3 5 -0
v 3 5 -1
v 3 5 -3
v 3 8 -0
v 3 8 -1
v 3 9 2
v 3 9 1
v 3 9 -2
v 3 9 -3
v 3 10 1
v 3 10 -0
v 3 10 -1
v 3 10 -2
v 4 11 1
v 4 11 -2
v 4 12 2
v 4 12 1
v 4 12 -2
v 4 12 -3
v 4 14 2
v 4 14 1
v 4 16 -0
v 4 16 -1
v 4 17 2
v 4 17 1
v 4 18 2
v 4 18 -0
v 4 18 -1
v 4 18 -3
v 5 16 -0
v 5 16 -1
v 5 19 -0
v 5 19 -1
v 7 8 -0
v 7 8 -1
v 7 10 -0
v 7 10 -1
v -2 5 3
v -2 9 3
v -2 13 3
v -2 15 3
v -1 12 3
v -1 13 3
v -1 14 3
v -1 15 3
v 1 12 3
v 1 13 3
v 1 14 3
v 1 15 3
v 2 5 3
v 2 9 3
v 2 13 3
v 2 15 3
v -4 12 2
v -4 14 2
v -4 17 2
v -4 18 2
v -3 5 2
v -3 9 2
v -3 15 2
v -3 16 2
v -2 5 2
v -2 9 2
v -2 10 2
v -2 11 2
v -2 12 2
v -2 13 2
v -2 14 2
v -2 15 2
v -2 16 2
v -1 12 2
v -1 13 2
v -1 15 2
v -1 17 2
v 1 12 2
v 1 13 2
v 1 15 2
v 1 17 2
v 2 5 2
v 2 9 2
v 2 10 2
v 2 11 2
v 2 12 2
v 2 13 2
v 2 14 2
v 2 15 2
v 2 16 2
v 3 5 2
v 3 9 2
v 3 15 2
v 3 16 2
v 4 12 2
v 4 14 2
v 4 17 2
v 4 18 2
v -4 11 1
v -4 12 1
v -3 0 1
v -3 1 1
v -3 9 1
v -3 10 1
v -2 9 1
v -2 10 1
v -2 11 1
v -2 12 1
v -1 0 1
v -1 1 1
v -1 10 1
v -1 11 1
v 1 0 1
v 1 1 1
v 1 10 1
v 1 11 1
v 2 9 1
v 2 10 1
v 2 11 1
v 2 12 1
v 3 0 1
v 3 1 1
v 3 9 1
v 3 10 1
v 4 11 1
v 4 12 1
v -7 8 -0
v -7 10 -0
v -5 17 -0
v -5 19 -0
v -4 17 -0
v -4 18 -0
v -3 1 -0
v -3 5 -0
v -3 8 -0
v -3 10 -0
v -3 18 -0
v -3 19 -0
v -1 1 -0
v -1 5 -0
v 1 1 -0
v 1 5 -0
v 3 1 -0
v 3 5 -0
v 3 8 -0
v 3 10 -0
v 3 18 -0
v 3 19 -0
v 4 16 -0
v 4 18 -0
v 5 16 -0
v 5 19 -0
v 7 8 -0
v 7 10 -0
v -7 8 -1
v -7 10 -1
v -5 17 -1
v -5 19 -1
v -4 17 -1
v -4 18 -1
v -3 0 -1
v -3 5 -1
v -3 8 -1
v -3 10 -1
v -3 18 -1
v -3 19 -1
v -1 0 -1
v -1 5 -1
v 1 0 -1
v 1 5 -1
v 3 0 -1
v 3 5 -1
v 3 8 -1
v 3 10 -1
v 3 18 -1
v 3 19 -1
v 4 16 -1
v 4 18 -1
v 5 16 -1
v 5 19 -1
v 7 8 -1
v 7 10 -1
v -4 11 -2
v -4 12 -2
v -3 9 -2
v -3 10 -2
v -2 9 -2
v -2 10 -2
v -2 11 -2
v -2 12 -2
v -1 10 -2
v -1 11 -2
v 1 10 -2
v 1 11 -2
v 2 9 -2
v 2 10 -2
v 2 11 -2
v 2 12 -2
v 3 9 -2
v 3 10 -2
v 4 11 -2
v 4 12 -2
v -4 12 -3
v -4 18 -3
v -3 5 -3
v -3 9 -3
v -2 9 -3
v -2 10 -3
v -2 11 -3
v -2 12 -3
v 2 9 -3
v 2 10 -3
v 2 11 -3
v 2 12 -3
v 3 5 -3
v 3 9 -3
v 4 12 -3
v 4 18 -3
v -3 0 1
v -1 0 1
v 1 0 1
v 3 0 1
v -3 0 -1
v -1 0 -1
v 1 0 -1
v 3 0 -1
v -2 5 3
v 2 5 3
v -3 5 2
v -2 5 2
v 2 5 2
v 3 5 2
v -3 5 -0
v -1 5 -0
v 1 5 -0
v 3 5 -0
v -3 5 -1
v -1 5 -1
v 1 5 -1
v 3 5 -1
v -3 5 -3
v 3 5 -3
v -7 8 -0
v -3 8 -0
v 3 8 -0
v 7 8 -0
v -7 8 -1
v -3 8 -1
v 3 8 -1
v 7 8 -1
v -2 11 2
v 2 11 2
v -4 11 1
v -2 11 1
v -1 11 1
v 1 11 1
v 2 11 1
v 4 11 1
v -4 11 -2
v -2 11 -2
v -1 11 -2
v 1 11 -2
v 2 11 -2
v 4 11 -2
v -2 11 -3
v 2 11 -3
v -1 12 3
v 1 12 3
v -4 12 2
v -2 12 2
v -1 12 2
v 1 12 2
v 2 12 2
v 4 12 2
v -4 12 1
v -2 12 1
v 2 12 1
v 4 12 1
v -4 12 -2
v -2 12 -2
v 2 12 -2
v 4 12 -2
v -4 12 -3
v -2 12 -3
v 2 12 -3
v 4 12 -3
v -2 13 3
v -1 13 3
v 1 13 3
v 2 13 3
v -2 13 2
v -1 13 2
v 1 13 2
v 2 13 2
v 4 16 -0
v 5 16 -0
v 4 16 -1
v 5 16 -1
v -5 17 -0
v -4 17 -0
v -5 17 -1
v -4 17 -1
v -3 1 1
v -1 1 1
v 1 1 1
v 3 1 1
v -3 1 -0
v -1 1 -0
v 1 1 -0
v 3 1 -0
v -2 9 3
v 2 9 3
v -3 9 2
v -2 9 2
v 2 9 2
v 3 9 2
v -3 9 1
v -2 9 1
v 2 9 1
v 3 9 1
v -3 9 -2
v -2 9 -2
v 2 9 -2
v 3 9 -2
v -3 9 -3
v -2 9 -3
v 2 9 -3
v 3 9 -3
v -2 10 2
v 2 10 2
v -3 10 1
v -2 10 1
v -1 10 1
v 1 10 1
v 2 10 1
v 3 10 1
v -7 10 -0
v -3 10 -0
v 3 10 -0
v 7 10 -0
v -7 10 -1
v -3 10 -1
v 3 10 -1
v 7 10 -1
v -3 10 -2
v -2 10 -2
v -1 10 -2
v 1 10 -2
v 2 10 -2
v 3 10 -2
v -2 10 -3
v 2 10 -3
v -2 15 3
v -1 15 3
v 1 15 3
v 2 15 3
v -2 15 2
v -1 15 2
v 1 15 2
v 2 15 2
v -4 18 2
v 4 18 2
v -4 18 -0
v -3 18 -0
v 3 18 -0
v 4 18 -0
v -4 18 -1
v -3 18 -1
v 3 18 -1
v 4 18 -1
v -4 18 -3
v 4 18 -3
v -5 19 -0
v -3 19 -0
v 3 19 -0
v 5 19 -0
v -5 19 -1
v -3 19 -1
v 3 19 -1
v 5 19 -1

# faces
f 3/6/1 2/6/1 1/6/1
f 4/6/1 2/6/1 3/6/1
f 7/6/1 6/6/1 5/6/1
f 8/6/1 6/6/1 7/6/1
f 12/5/1 10/5/1 9/5/1
f 13/5/1 10/5/1 12/5/1
f 15/5/1 12/5/1 11/5/1
f 15/5/1 14/5/1 13/5/1
f 15/5/1 13/5/1 12/5/1
f 16/5/1 14/5/1 15/5/1
f 17/6/1 16/6/1 15/6/1
f 18/5/1 14/5/1 16/5/1
f 18/6/1 16/6/1 17/6/1
f 19/5/1 14/5/1 18/5/1
f 20/5/1 14/5/1 19/5/1
f 21/5/1 18/5/1 17/5/1
f 21/5/1 19/5/1 18/5/1
f 22/5/1 19/5/1 21/5/1
f 23/5/1 14/5/1 20/5/1
f 24/5/1 14/5/1 23/5/1
f 27/6/1 26/6/1 25/6/1
f 28/6/1 26/6/1 27/6/1
f 30/6/1 26/6/1 28/6/1
f 31/6/1 26/6/1 30/6/1
f 33/5/1 30/5/1 29/5/1
f 33/5/1 32/5/1 31/5/1
f 33/5/1 31/5/1 30/5/1
f 34/5/1 32/5/1 33/5/1
f 35/5/1 33/5/1 29/5/1
f 36/5/1 33/5/1 35/5/1
f 37/5/1 32/5/1 34/5/1
f 38/5/1 32/5/1 37/5/1
f 39/5/1 33/5/1 36/5/1
f 40/5/1 33/5/1 39/5/1
f 41/5/1 37/5/1 34/5/1
f 42/5/1 37/5/1 41/5/1
f 45/5/1 44/5/1 43/5/1
f 46/5/1 44/5/1 45/5/1
f 50/5/1 47/5/1 46/5/1
f 51/5/1 47/5/1 50/5/1
f 52/5/1 49/5/1 48/5/1
f 53/5/1 49/5/1 52/5/1
f 58/5/1 55/5/1 54/5/1
f 59/5/1 55/5/1 58/5/1
f 60/5/1 57/5/1 56/5/1
f 61/5/1 57/5/1 60/5/1
f 64/5/1 63/5/1 62/5/1
f 65/5/1 64/5/1 62/5/1
f 66/5/1 64/5/1 65/5/1
f 69/5/1 68/5/1 67/5/1
f 70/5/1 68/5/1 69/5/1
f 73/5/1 72/5/1 71/5/1
f 74/5/1 72/5/1 73/5/1
f 77/6/1 76/6/1 75/6/1
f 78/6/1 76/6/1 77/6/1
f 79/6/1 76/6/1 78/6/1
f 80/6/1 76/6/1 79/6/1
f 83/6/1 82/6/1 81/6/1
f 84/6/1 82/6/1 83/6/1
f 85/6/2 86/6/2 87/6/2
f 87/6/2 86/6/2 88/6/2
f 89/6/2 90/6/2 91/6/2
f 91/6/2 90/6/2 92/6/2
f 92/6/2 90/6/2 93/6/2
f 93/6/2 90/6/2 94/6/2
f 95/5/2 96/5/2 97/5/2
f 97/5/2 96/5/2 98/5/2
f 99/5/2 100/5/2 101/5/2
f 101/5/2 100/5/2 102/5/2
f 103/5/2 104/5/2 105/5/2
f 105/5/2 104/5/2 106/5/2
f 106/5/2 107/5/2 110/5/2
f 110/5/2 107/5/2 111/5/2
f 108/5/2 109/5/2 112/5/2
f 112/5/2 109/5/2 113/5/2
f 114/5/2 115/5/2 118/5/2
f 118/5/2 115/5/2 119/5/2
f 116/5/2 117/5/2 120/5/2
f 120/5/2 117/5/2 121/5/2
f 122/5/2 123/5/2 124/5/2
f 122/5/2 124/5/2 125/5/2
f 125/5/2 124/5/2 126/5/2
f 127/6/2 128/6/2 129/6/2
f 129/6/2 128/6/2 130/6/2
f 130/6/2 128/6/2 132/6/2
f 132/6/2 128/6/2 133/6/2
f 131/5/2 132/5/2 135/5/2
f 133/5/2 134/5/2 135/5/2
f 132/5/2 133/5/2 135/5/2
f 135/5/2 134/5/2 136/5/2
f 131/5/2 135/5/2 137/5/2
f 137/5/2 135/5/2 138/5/2
f 136/5/2 134/5/2 139/5/2
f 139/5/2 134/5/2 140/5/2
f 138/5/2 135/5/2 141/5/2
f 141/5/2 135/5/2 142/5/2
f 136/5/2 139/5/2 143/5/2
f 143/5/2 139/5/2 144/5/2
f 145/5/2 146/5/2 148/5/2
f 148/5/2 146/5/2 149/5/2
f 147/5/2 148/5/2 151/5/2
f 149/5/2 150/5/2 151/5/2
f 148/5/2 149/5/2 151/5/2
f 151/5/2 150/5/2 152/5/2
f 152/5/2 150/5/2 153/5/2
f 153/5/2 150/5/2 154/5/2
f 151/6/2 152/6/2 155/6/2
f 152/5/2 153/5/2 156/5/2
f 155/6/2 152/6/2 156/6/2
f 155/5/2 156/5/2 157/5/2
f 156/5/2 153/5/2 158/5/2
f 157/5/2 156/5/2 158/5/2
f 154/5/2 150/5/2 159/5/2
f 159/5/2 150/5/2 160/5/2
f 161/6/2 162/6/2 163/6/2
f 163/6/2 162/6/2 164/6/2
f 165/6/2 166/6/2 167/6/2
f 167/6/2 166/6/2 168/6/2
f 174/5/3 172/5/3 171/5/3
f 175/5/3 172/5/3 174/5/3
f 176/5/3 172/5/3 175/5/3
f 177/5/3 174/5/3 173/5/3
f 177/5/3 175/5/3 174/5/3
f 178/5/3 175/5/3 177/5/3
f 179/6/3 176/6/3 175/6/3
f 179/5/3 175/5/3 178/5/3
f 180/6/3 176/6/3 179/6/3
f 181/5/3 170/5/3 169/5/3
f 182/5/3 170/5/3 181/5/3
f 183/5/3 180/5/3 179/5/3
f 183/5/3 179/5/3 178/5/3
f 184/5/3 180/5/3 183/5/3
f 191/6/3 187/6/3 186/6/3
f 192/6/3 187/6/3 191/6/3
f 193/5/3 190/5/3 189/5/3
f 194/5/3 190/5/3 193/5/3
f 197/5/3 186/5/3 185/5/3
f 198/5/3 186/5/3 197/5/3
f 199/6/3 191/6/3 186/6/3
f 199/5/3 186/5/3 198/5/3
f 200/4/3 192/4/3 191/4/3
f 200/6/3 191/6/3 199/6/3
f 201/6/3 187/6/3 192/6/3
f 201/4/3 192/4/3 200/4/3
f 202/5/3 198/5/3 197/5/3
f 202/5/3 197/5/3 196/5/3
f 203/5/3 198/5/3 202/5/3
f 204/6/3 201/6/3 200/6/3
f 205/6/3 187/6/3 201/6/3
f 205/6/3 201/6/3 204/6/3
f 205/5/3 188/5/3 187/5/3
f 206/5/3 202/5/3 196/5/3
f 208/5/3 205/5/3 204/5/3
f 209/5/3 188/5/3 205/5/3
f 209/5/3 205/5/3 208/5/3
f 211/5/3 195/5/3 194/5/3
f 212/5/3 195/5/3 211/5/3
f 213/5/3 207/5/3 206/5/3
f 213/5/3 206/5/3 196/5/3
f 214/5/3 207/5/3 213/5/3
f 215/5/3 207/5/3 214/5/3
f 217/6/3 209/6/3 208/6/3
f 218/6/3 209/6/3 217/6/3
f 219/5/3 211/5/3 210/5/3
f 220/5/3 211/5/3 219/5/3
f 221/4/3 218/4/3 217/4/3
f 221/6/3 217/6/3 216/6/3
f 222/6/3 209/6/3 218/6/3
f 222/4/3 218/4/3 221/4/3
f 223/5/3 216/5/3 215/5/3
f 223/5/3 215/5/3 214/5/3
f 224/6/3 221/6/3 216/6/3
f 224/5/3 216/5/3 223/5/3
f 224/6/3 222/6/3 221/6/3
f 225/5/3 188/5/3 209/5/3
f 225/6/3 222/6/3 224/6/3
f 225/6/3 209/6/3 222/6/3
f 226/5/3 188/5/3 225/5/3
f 233/5/3 232/5/3 231/5/3
f 234/5/3 232/5/3 233/5/3
f 235/5/3 228/5/3 227/5/3
f 236/5/3 228/5/3 235/5/3
f 237/6/3 230/6/3 229/6/3
f 238/6/3 230/6/3 237/6/3
f 243/5/3 240/5/3 239/5/3
f 244/5/3 240/5/3 243/5/3
f 249/6/3 242/6/3 241/6/3
f 250/6/3 242/6/3 249/6/3
f 251/5/3 246/5/3 245/5/3
f 252/5/3 246/5/3 251/5/3
f 253/5/3 248/5/3 247/5/3
f 254/5/3 248/5/3 253/5/3
f 259/6/3 258/6/3 257/6/3
f 260/6/3 258/6/3 259/6/3
f 263/6/3 256/6/3 255/6/3
f 264/6/3 256/6/3 263/6/3
f 265/6/3 258/6/3 260/6/3
f 266/6/3 258/6/3 265/6/3
f 267/6/3 262/6/3 261/6/3
f 268/6/3 262/6/3 267/6/3
f 271/6/3 270/6/3 269/6/3
f 272/6/3 270/6/3 271/6/3
f 278/6/3 276/6/3 275/6/3
f 279/6/3 278/6/3 277/6/3
f 280/6/3 276/6/3 278/6/3
f 280/6/3 278/6/3 279/6/3
f 281/6/3 274/6/3 273/6/3
f 282/6/3 274/6/3 281/6/3
f 285/6/4 286/6/4 287/6/4
f 287/6/4 286/6/4 288/6/4
f 283/6/4 284/6/4 291/6/4
f 291/6/4 284/6/4 292/6/4
f 288/6/4 286/6/4 293/6/4
f 293/6/4 286/6/4 294/6/4
f 289/6/4 290/6/4 295/6/4
f 295/6/4 290/6/4 296/6/4
f 297/6/4 298/6/4 299/6/4
f 299/6/4 298/6/4 300/6/4
f 303/6/4 304/6/4 306/6/4
f 305/6/4 306/6/4 307/6/4
f 306/6/4 304/6/4 308/6/4
f 307/6/4 306/6/4 308/6/4
f 301/6/4 302/6/4 309/6/4
f 309/6/4 302/6/4 310/6/4
f 313/5/4 314/5/4 315/5/4
f 315/5/4 314/5/4 316/5/4
f 311/5/4 312/5/4 317/5/4
f 317/5/4 312/5/4 318/5/4
f 319/5/4 320/5/4 321/5/4
f 321/5/4 320/5/4 322/5/4
f 323/5/4 324/5/4 327/5/4
f 327/5/4 324/5/4 328/5/4
f 325/5/4 326/5/4 329/5/4
f 329/5/4 326/5/4 330/5/4
f 333/5/4 334/5/4 335/5/4
f 331/5/4 332/5/4 338/5/4
f 335/5/4 336/5/4 339/5/4
f 333/5/4 335/5/4 339/5/4
f 339/5/4 336/5/4 340/5/4
f 337/5/4 338/5/4 341/5/4
f 338/5/4 332/5/4 342/5/4
f 341/5/4 338/5/4 342/5/4
f 333/5/4 339/5/4 343/5/4
f 343/5/4 339/5/4 344/5/4
f 342/5/4 332/5/4 345/5/4
f 345/5/4 332/5/4 346/5/4
f 351/6/5 348/6/5 347/6/5
f 352/6/5 348/6/5 351/6/5
f 353/6/5 350/6/5 349/6/5
f 354/6/5 350/6/5 353/6/5
f 358/5/5 356/5/5 355/5/5
f 359/5/5 356/5/5 358/5/5
f 361/5/5 358/5/5 357/5/5
f 361/5/5 360/5/5 359/5/5
f 361/5/5 359/5/5 358/5/5
f 362/5/5 360/5/5 361/5/5
f 363/5/5 360/5/5 362/5/5
f 364/5/5 360/5/5 363/5/5
f 366/5/5 363/5/5 362/5/5
f 367/5/5 363/5/5 366/5/5
f 369/5/5 366/5/5 365/5/5
f 369/5/5 368/5/5 367/5/5
f 369/5/5 367/5/5 366/5/5
f 370/5/5 368/5/5 369/5/5
f 375/6/5 372/6/5 371/6/5
f 376/6/5 372/6/5 375/6/5
f 377/6/5 374/6/5 373/6/5
f 378/6/5 374/6/5 377/6/5
f 382/5/5 380/5/5 379/5/5
f 383/5/5 380/5/5 382/5/5
f 384/5/5 380/5/5 383/5/5
f 385/5/5 380/5/5 384/5/5
f 387/5/5 382/5/5 381/5/5
f 387/5/5 383/5/5 382/5/5
f 388/5/5 383/5/5 387/5/5
f 389/5/5 383/5/5 388/5/5
f 390/5/5 386/5/5 385/5/5
f 390/5/5 385/5/5 384/5/5
f 391/5/5 386/5/5 390/5/5
f 392/5/5 386/5/5 391/5/5
f 393/5/5 389/5/5 388/5/5
f 393/5/5 391/5/5 390/5/5
f 393/5/5 390/5/5 389/5/5
f 394/5/5 391/5/5 393/5/5
f 399/5/5 396/5/5 395/5/5
f 400/5/5 396/5/5 399/5/5
f 403/5/5 398/5/5 397/5/5
f 404/5/5 398/5/5 403/5/5
f 405/5/5 402/5/5 401/5/5
f 406/5/5 402/5/5 405/5/5
f 411/5/5 408/5/5 407/5/5
f 412/5/5 408/5/5 411/5/5
f 413/5/5 410/5/5 409/5/5
f 414/5/5 410/5/5 413/5/5
f 419/5/5 416/5/5 415/5/5
f 420/5/5 416/5/5 419/5/5
f 421/5/5 418/5/5 417/5/5
f 422/5/5 418/5/5 421/5/5
f 425/6/5 424/6/5 423/6/5
f 426/6/5 424/6/5 425/6/5
f 429/6/5 428/6/5 427/6/5
f 430/6/5 428/6/5 429/6/5
f 431/6/6 432/6/6 435/6/6
f 435/6/6 432/6/6 436/6/6
f 433/6/6 434/6/6 437/6/6
f 437/6/6 434/6/6 438/6/6
f 439/5/6 440/5/6 442/5/6
f 442/5/6 440/5/6 443/5/6
f 441/5/6 442/5/6 445/5/6
f 445/5/6 442/5/6 446/5/6
f 443/5/6 444/5/6 447/5/6
f 447/5/6 444/5/6 448/5/6
f 449/5/6 450/5/6 453/5/6
f 453/5/6 450/5/6 454/5/6
f 451/5/6 452/5/6 455/5/6
f 455/5/6 452/5/6 456/5/6
f 457/5/6 458/5/6 460/5/6
f 460/5/6 458/5/6 461/5/6
f 461/5/6 458/5/6 462/5/6
f 462/5/6 458/5/6 463/5/6
f 459/5/6 460/5/6 466/5/6
f 460/5/6 461/5/6 466/5/6
f 462/5/6 463/5/6 467/5/6
f 463/5/6 464/5/6 467/5/6
f 465/6/6 466/6/6 469/6/6
f 466/5/6 461/5/6 470/5/6
f 469/6/6 466/6/6 470/6/6
f 467/6/6 468/6/6 471/6/6
f 462/5/6 467/5/6 471/5/6
f 471/6/6 468/6/6 472/6/6
f 470/5/6 461/5/6 473/5/6
f 473/5/6 461/5/6 474/5/6
f 474/5/6 461/5/6 475/5/6
f 462/5/6 471/5/6 476/5/6
f 476/5/6 471/5/6 477/5/6
f 477/5/6 471/5/6 478/5/6
f 474/5/6 475/5/6 479/5/6
f 476/5/6 477/5/6 479/5/6
f 475/5/6 476/5/6 479/5/6
f 479/5/6 477/5/6 480/5/6
f 481/5/6 482/5/6 485/5/6
f 482/6/6 483/6/6 486/6/6
f 485/5/6 482/5/6 486/5/6
f 483/5/6 484/5/6 487/5/6
f 486/6/6 483/6/6 487/6/6
f 487/5/6 484/5/6 488/5/6
f 489/5/6 490/5/6 491/5/6
f 491/5/6 490/5/6 492/5/6
f 492/5/6 490/5/6 493/5/6
f 493/5/6 490/5/6 494/5/6
f 492/5/6 493/5/6 496/5/6
f 496/5/6 493/5/6 497/5/6
f 495/5/6 496/5/6 499/5/6
f 497/5/6 498/5/6 499/5/6
f 496/5/6 497/5/6 499/5/6
f 499/5/6 498/5/6 500/5/6
f 501/6/6 502/6/6 505/6/6
f 505/6/6 502/6/6 506/6/6
f 503/6/6 504/6/6 507/6/6
f 507/6/6 504/6/6 508/6/6
