# MagicaVoxel @ Ephtracy

# material
mtllib Runner-05.mtl
usemtl palette

# normals
vn -1 0 0
vn 1 0 0
vn 0 0 1
vn 0 0 -1
vn 0 -1 0
vn 0 1 0

# texcoords
vt 0.0214844 0.5
vt 0.0253906 0.5
vt 0.0566406 0.5
vt 0.177734 0.5
vt 0.275391 0.5
vt 0.587891 0.5
vt 0.771484 0.5
vt 0.841797 0.5
vt 0.994141 0.5

# verts
v -4 11 -2
v -4 11 -3
v -4 12 -0
v -4 12 -1
v -4 12 -2
v -4 13 1
v -4 13 -0
v -4 14 1
v -4 14 -1
v -4 15 2
v -4 15 1
v -4 16 2
v -4 16 -3
v -3 7 1
v -3 7 -2
v -3 8 1
v -3 8 -1
v -3 9 -1
v -3 9 -2
v -3 10 1
v -3 10 -1
v -3 10 -2
v -3 11 2
v -3 11 1
v -3 11 -2
v -3 11 -3
v -3 11 -4
v -3 12 -0
v -3 12 -1
v -3 12 -2
v -3 13 1
v -3 13 -0
v -3 14 1
v -3 15 3
v -3 15 2
v -3 15 1
v -3 16 3
v -3 16 2
v -3 16 -3
v -3 16 -4
v -3 17 2
v -3 17 -3
v -2 2 -4
v -2 2 -5
v -2 3 -1
v -2 3 -4
v -2 4 -2
v -2 4 -4
v -2 4 -5
v -2 5 1
v -2 5 -1
v -2 6 1
v -2 6 -2
v -2 7 1
v -2 7 -2
v -2 8 1
v -2 8 -1
v -2 9 -1
v -2 10 2
v -2 10 1
v -2 10 -1
v -2 10 -2
v -2 10 -3
v -2 11 2
v -2 11 1
v -2 11 -2
v -2 11 -3
v -2 16 -3
v -2 16 -4
v -2 17 2
v -2 17 -3
v -2 17 -4
v -2 18 2
v -2 18 -3
v -1 10 -3
v -1 10 -4
v -1 11 -3
v -1 11 -4
v -1 12 3
v -1 12 2
v -1 13 3
v -1 13 2
v -1 16 3
v -1 16 2
v -1 17 3
v -1 17 2
v 1 2 4
v 1 2 2
v 1 3 4
v 1 3 3
v 1 3 2
v 1 5 2
v 1 5 1
v 1 6 3
v 1 6 1
v 2 7 3
v 2 7 1
v 2 8 3
v 2 8 1
v -1 2 -4
v -1 2 -5
v -1 3 -1
v -1 3 -4
v -1 4 -2
v -1 4 -4
v -1 4 -5
v -1 5 -1
v -1 5 -2
v 1 10 -3
v 1 10 -4
v 1 11 -3
v 1 11 -4
v 1 12 3
v 1 12 2
v 1 13 3
v 1 13 2
v 1 16 3
v 1 16 2
v 1 17 3
v 1 17 2
v 2 2 4
v 2 2 2
v 2 3 4
v 2 3 3
v 2 3 2
v 2 5 2
v 2 5 -2
v 2 6 3
v 2 6 1
v 2 6 -2
v 2 7 1
v 2 7 -0
v 2 9 -0
v 2 10 2
v 2 10 1
v 2 10 -0
v 2 10 -2
v 2 10 -3
v 2 11 2
v 2 11 1
v 2 11 -2
v 2 11 -3
v 2 16 -3
v 2 16 -4
v 2 17 2
v 2 17 -3
v 2 17 -4
v 2 18 2
v 2 18 -3
v 3 7 3
v 3 7 -0
v 3 8 3
v 3 8 1
v 3 9 1
v 3 9 -0
v 3 10 1
v 3 10 -0
v 3 10 -2
v 3 11 2
v 3 11 1
v 3 11 -2
v 3 11 -3
v 3 11 -4
v 3 12 -0
v 3 12 -1
v 3 12 -2
v 3 13 1
v 3 13 -0
v 3 14 1
v 3 15 3
v 3 15 2
v 3 15 1
v 3 16 3
v 3 16 2
v 3 16 -3
v 3 16 -4
v 3 17 2
v 3 17 -3
v 4 11 -2
v 4 11 -3
v 4 12 -0
v 4 12 -1
v 4 12 -2
v 4 13 1
v 4 13 -0
v 4 14 1
v 4 14 -1
v 4 15 2
v 4 15 1
v 4 16 2
v 4 16 -3
v 1 2 4
v 1 3 4
v 2 2 4
v 2 3 4
v -3 15 3
v -3 16 3
v -1 12 3
v -1 13 3
v -1 16 3
v -1 17 3
v 1 3 3
v 1 6 3
v 1 12 3
v 1 13 3
v 1 16 3
v 1 17 3
v 2 3 3
v 2 6 3
v 2 7 3
v 2 8 3
v 3 7 3
v 3 8 3
v 3 15 3
v 3 16 3
v -4 15 2
v -4 16 2
v -3 11 2
v -3 15 2
v -3 16 2
v -3 17 2
v -2 10 2
v -2 11 2
v -2 13 2
v -2 14 2
v -2 17 2
v -2 18 2
v -1 11 2
v -1 12 2
v -1 13 2
v -1 14 2
v -1 16 2
v -1 17 2
v 1 11 2
v 1 12 2
v 1 13 2
v 1 14 2
v 1 16 2
v 1 17 2
v 2 10 2
v 2 11 2
v 2 13 2
v 2 14 2
v 2 17 2
v 2 18 2
v 3 11 2
v 3 15 2
v 3 16 2
v 3 17 2
v 4 15 2
v 4 16 2
v -4 13 1
v -4 14 1
v -4 15 1
v -3 7 1
v -3 8 1
v -3 10 1
v -3 11 1
v -3 13 1
v -3 14 1
v -3 15 1
v -2 5 1
v -2 6 1
v -2 7 1
v -2 8 1
v -2 10 1
v -2 11 1
v 1 5 1
v 1 6 1
v 2 6 1
v 2 7 1
v 2 8 1
v 2 9 1
v 2 10 1
v 2 11 1
v 3 8 1
v 3 9 1
v 3 10 1
v 3 11 1
v 3 13 1
v 3 14 1
v 3 15 1
v 4 13 1
v 4 14 1
v 4 15 1
v -4 12 -0
v -4 13 -0
v -3 12 -0
v -3 13 -0
v 3 12 -0
v 3 13 -0
v 4 12 -0
v 4 13 -0
v -3 8 -1
v -3 9 -1
v -3 10 -1
v -2 3 -1
v -2 5 -1
v -2 8 -1
v -2 9 -1
v -2 10 -1
v -1 3 -1
v -1 5 -1
v -4 11 -2
v -4 12 -2
v -3 11 -2
v -3 12 -2
v 3 11 -2
v 3 12 -2
v 4 11 -2
v 4 12 -2
v -2 2 -4
v -2 3 -4
v -1 2 -4
v -1 3 -4
v 1 2 2
v 1 3 2
v 1 5 2
v 2 2 2
v 2 3 2
v 2 5 2
v 2 7 -0
v 2 9 -0
v 2 10 -0
v 3 7 -0
v 3 9 -0
v 3 10 -0
v -3 7 -2
v -3 9 -2
v -3 10 -2
v -3 11 -2
v -2 4 -2
v -2 6 -2
v -2 7 -2
v -2 9 -2
v -2 10 -2
v -2 11 -2
v -1 4 -2
v -1 5 -2
v 2 5 -2
v 2 6 -2
v 2 10 -2
v 2 11 -2
v 3 10 -2
v 3 11 -2
v -4 11 -3
v -4 16 -3
v -3 11 -3
v -3 16 -3
v -3 17 -3
v -2 10 -3
v -2 11 -3
v -2 16 -3
v -2 17 -3
v -2 18 -3
v -1 10 -3
v -1 11 -3
v 1 10 -3
v 1 11 -3
v 2 10 -3
v 2 11 -3
v 2 16 -3
v 2 17 -3
v 2 18 -3
v 3 11 -3
v 3 16 -3
v 3 17 -3
v 4 11 -3
v 4 16 -3
v -3 11 -4
v -3 16 -4
v -2 16 -4
v -2 17 -4
v -1 10 -4
v -1 11 -4
v 1 10 -4
v 1 11 -4
v 2 16 -4
v 2 17 -4
v 3 11 -4
v 3 16 -4
v -2 2 -5
v -2 4 -5
v -1 2 -5
v -1 4 -5
v 1 2 4
v 2 2 4
v 1 2 2
v 2 2 2
v -2 2 -4
v -1 2 -4
v -2 2 -5
v -1 2 -5
v -2 3 -1
v -1 3 -1
v -2 3 -4
v -1 3 -4
v 1 5 2
v 2 5 2
v -2 5 1
v 1 5 1
v -2 5 -1
v -1 5 -1
v -1 5 -2
v 2 5 -2
v 2 7 3
v 3 7 3
v -3 7 1
v -2 7 1
v 2 7 1
v 2 7 -0
v 3 7 -0
v -3 7 -2
v -2 7 -2
v -2 10 2
v 2 10 2
v -3 10 1
v -2 10 1
v 2 10 1
v 2 10 -0
v 3 10 -0
v -3 10 -1
v -2 10 -1
v -2 10 -2
v 2 10 -2
v 3 10 -2
v -2 10 -3
v -1 10 -3
v 1 10 -3
v 2 10 -3
v -1 10 -4
v 1 10 -4
v -3 11 2
v -2 11 2
v 2 11 2
v 3 11 2
v -3 11 1
v -2 11 1
v 2 11 1
v 3 11 1
v -4 11 -2
v -3 11 -2
v -2 11 -2
v 2 11 -2
v 3 11 -2
v 4 11 -2
v -4 11 -3
v -3 11 -3
v -2 11 -3
v -1 11 -3
v 1 11 -3
v 2 11 -3
v 3 11 -3
v 4 11 -3
v -3 11 -4
v -1 11 -4
v 1 11 -4
v 3 11 -4
v -1 12 3
v 1 12 3
v -1 12 2
v 1 12 2
v -4 12 -0
v -3 12 -0
v 3 12 -0
v 4 12 -0
v -4 12 -1
v -3 12 -1
v 3 12 -1
v 4 12 -1
v -4 12 -2
v -3 12 -2
v 3 12 -2
v 4 12 -2
v -4 13 1
v -3 13 1
v 3 13 1
v 4 13 1
v -4 13 -0
v -3 13 -0
v 3 13 -0
v 4 13 -0
v -3 15 3
v 3 15 3
v -4 15 2
v -3 15 2
v 3 15 2
v 4 15 2
v -4 15 1
v -3 15 1
v 3 15 1
v 4 15 1
v 1 3 4
v 2 3 4
v 1 3 3
v 2 3 3
v -2 4 -2
v -1 4 -2
v -2 4 -4
v -1 4 -4
v -2 4 -5
v -1 4 -5
v 1 6 3
v 2 6 3
v 1 6 1
v 2 6 1
v 2 8 3
v 3 8 3
v -3 8 1
v -2 8 1
v 2 8 1
v 3 8 1
v -3 8 -1
v -2 8 -1
v -1 13 3
v 1 13 3
v -1 13 2
v 1 13 2
v -3 16 3
v -1 16 3
v 1 16 3
v 3 16 3
v -4 16 2
v -3 16 2
v -1 16 2
v 1 16 2
v 3 16 2
v 4 16 2
v -4 16 -3
v -3 16 -3
v -2 16 -3
v 2 16 -3
v 3 16 -3
v 4 16 -3
v -3 16 -4
v -2 16 -4
v 2 16 -4
v 3 16 -4
v -1 17 3
v 1 17 3
v -3 17 2
v -2 17 2
v -1 17 2
v 1 17 2
v 2 17 2
v 3 17 2
v -3 17 -3
v -2 17 -3
v 2 17 -3
v 3 17 -3
v -2 17 -4
v 2 17 -4
v -2 18 2
v 2 18 2
v -2 18 -3
v 2 18 -3

# faces
f 5/4/1 2/4/1 1/4/1
f 7/5/1 4/5/1 3/5/1
f 8/5/1 7/5/1 6/5/1
f 9/4/1 5/4/1 4/4/1
f 9/5/1 7/5/1 8/5/1
f 9/5/1 4/5/1 7/5/1
f 11/4/1 9/4/1 8/4/1
f 12/4/1 11/4/1 10/4/1
f 13/4/1 2/4/1 5/4/1
f 13/4/1 11/4/1 12/4/1
f 13/4/1 5/4/1 9/4/1
f 13/4/1 9/4/1 11/4/1
f 16/5/1 15/5/1 14/5/1
f 17/5/1 15/5/1 16/5/1
f 18/5/1 15/5/1 17/5/1
f 19/5/1 15/5/1 18/5/1
f 21/6/1 19/6/1 18/6/1
f 22/6/1 19/6/1 21/6/1
f 24/5/1 21/5/1 20/5/1
f 24/5/1 22/5/1 21/5/1
f 25/5/1 22/5/1 24/5/1
f 28/5/1 25/5/1 24/5/1
f 28/5/1 24/5/1 23/5/1
f 29/5/1 25/5/1 28/5/1
f 30/5/1 25/5/1 29/5/1
f 31/5/1 28/5/1 23/5/1
f 32/5/1 28/5/1 31/5/1
f 33/5/1 31/5/1 23/5/1
f 35/5/1 33/5/1 23/5/1
f 36/5/1 33/5/1 35/5/1
f 37/4/1 35/4/1 34/4/1
f 38/4/1 35/4/1 37/4/1
f 39/4/1 27/4/1 26/4/1
f 40/4/1 27/4/1 39/4/1
f 41/4/1 39/4/1 38/4/1
f 42/4/1 39/4/1 41/4/1
f 46/2/1 44/2/1 43/2/1
f 47/7/1 46/7/1 45/7/1
f 48/2/1 44/2/1 46/2/1
f 48/7/1 46/7/1 47/7/1
f 49/2/1 44/2/1 48/2/1
f 51/7/1 47/7/1 45/7/1
f 52/7/1 51/7/1 50/7/1
f 53/7/1 47/7/1 51/7/1
f 53/7/1 51/7/1 52/7/1
f 54/6/1 53/6/1 52/6/1
f 55/6/1 53/6/1 54/6/1
f 58/6/1 57/6/1 56/6/1
f 60/6/1 58/6/1 56/6/1
f 61/6/1 58/6/1 60/6/1
f 64/5/1 60/5/1 59/5/1
f 65/5/1 60/5/1 64/5/1
f 66/5/1 63/5/1 62/5/1
f 67/5/1 63/5/1 66/5/1
f 71/4/1 69/4/1 68/4/1
f 72/4/1 69/4/1 71/4/1
f 73/4/1 71/4/1 70/4/1
f 74/4/1 71/4/1 73/4/1
f 77/4/1 76/4/1 75/4/1
f 78/4/1 76/4/1 77/4/1
f 81/1/1 80/1/1 79/1/1
f 82/1/1 80/1/1 81/1/1
f 85/4/1 84/4/1 83/4/1
f 86/4/1 84/4/1 85/4/1
f 89/2/1 88/2/1 87/2/1
f 90/2/1 88/2/1 89/2/1
f 91/2/1 88/2/1 90/2/1
f 92/7/1 91/7/1 90/7/1
f 94/7/1 92/7/1 90/7/1
f 94/7/1 93/7/1 92/7/1
f 95/7/1 93/7/1 94/7/1
f 98/5/1 97/5/1 96/5/1
f 99/5/1 97/5/1 98/5/1
f 100/2/2 101/2/2 103/2/2
f 102/7/2 103/7/2 104/7/2
f 103/2/2 101/2/2 105/2/2
f 104/7/2 103/7/2 105/7/2
f 105/2/2 101/2/2 106/2/2
f 102/7/2 104/7/2 107/7/2
f 107/7/2 104/7/2 108/7/2
f 109/4/2 110/4/2 111/4/2
f 111/4/2 110/4/2 112/4/2
f 113/1/2 114/1/2 115/1/2
f 115/1/2 114/1/2 116/1/2
f 117/4/2 118/4/2 119/4/2
f 119/4/2 118/4/2 120/4/2
f 121/2/2 122/2/2 123/2/2
f 123/2/2 122/2/2 124/2/2
f 124/2/2 122/2/2 125/2/2
f 124/7/2 125/7/2 126/7/2
f 124/7/2 126/7/2 128/7/2
f 126/7/2 127/7/2 128/7/2
f 128/7/2 127/7/2 129/7/2
f 129/7/2 127/7/2 130/7/2
f 129/6/2 130/6/2 131/6/2
f 131/6/2 130/6/2 132/6/2
f 132/6/2 130/6/2 133/6/2
f 133/6/2 130/6/2 136/6/2
f 136/6/2 130/6/2 137/6/2
f 134/5/2 135/5/2 139/5/2
f 139/5/2 135/5/2 140/5/2
f 137/5/2 138/5/2 141/5/2
f 141/5/2 138/5/2 142/5/2
f 143/4/2 144/4/2 146/4/2
f 146/4/2 144/4/2 147/4/2
f 145/4/2 146/4/2 148/4/2
f 148/4/2 146/4/2 149/4/2
f 150/5/2 151/5/2 152/5/2
f 152/5/2 151/5/2 153/5/2
f 153/5/2 151/5/2 154/5/2
f 154/5/2 151/5/2 155/5/2
f 154/6/2 155/6/2 156/6/2
f 156/6/2 155/6/2 157/6/2
f 156/5/2 157/5/2 160/5/2
f 157/5/2 158/5/2 160/5/2
f 160/5/2 158/5/2 161/5/2
f 159/5/2 160/5/2 164/5/2
f 160/5/2 161/5/2 164/5/2
f 164/5/2 161/5/2 165/5/2
f 165/5/2 161/5/2 166/5/2
f 159/5/2 164/5/2 167/5/2
f 167/5/2 164/5/2 168/5/2
f 159/5/2 167/5/2 169/5/2
f 159/5/2 169/5/2 171/5/2
f 171/5/2 169/5/2 172/5/2
f 170/4/2 171/4/2 173/4/2
f 173/4/2 171/4/2 174/4/2
f 162/4/2 163/4/2 175/4/2
f 175/4/2 163/4/2 176/4/2
f 174/4/2 175/4/2 177/4/2
f 177/4/2 175/4/2 178/4/2
f 179/4/2 180/4/2 183/4/2
f 181/5/2 182/5/2 185/5/2
f 184/5/2 185/5/2 186/5/2
f 182/4/2 183/4/2 187/4/2
f 186/5/2 185/5/2 187/5/2
f 185/5/2 182/5/2 187/5/2
f 186/4/2 187/4/2 189/4/2
f 188/4/2 189/4/2 190/4/2
f 183/4/2 180/4/2 191/4/2
f 190/4/2 189/4/2 191/4/2
f 187/4/2 183/4/2 191/4/2
f 189/4/2 187/4/2 191/4/2
f 194/2/3 193/2/3 192/2/3
f 195/2/3 193/2/3 194/2/3
f 200/4/3 197/4/3 196/4/3
f 204/1/3 199/1/3 198/1/3
f 205/1/3 199/1/3 204/1/3
f 206/4/3 200/4/3 196/4/3
f 206/4/3 201/4/3 200/4/3
f 207/4/3 201/4/3 206/4/3
f 208/7/3 203/7/3 202/7/3
f 209/7/3 203/7/3 208/7/3
f 212/5/3 211/5/3 210/5/3
f 213/5/3 211/5/3 212/5/3
f 214/4/3 206/4/3 196/4/3
f 215/4/3 206/4/3 214/4/3
f 219/4/3 217/4/3 216/4/3
f 220/4/3 217/4/3 219/4/3
f 223/5/3 219/5/3 218/5/3
f 224/5/3 219/5/3 223/5/3
f 225/5/3 219/5/3 224/5/3
f 226/4/3 221/4/3 220/4/3
f 228/5/3 223/5/3 222/5/3
f 228/5/3 224/5/3 223/5/3
f 229/5/3 224/5/3 228/5/3
f 230/9/3 225/9/3 224/9/3
f 230/5/3 224/5/3 229/5/3
f 231/5/3 219/5/3 225/5/3
f 231/9/3 225/9/3 230/9/3
f 232/4/3 227/4/3 226/4/3
f 232/4/3 226/4/3 220/4/3
f 233/4/3 227/4/3 232/4/3
f 234/3/3 229/3/3 228/3/3
f 234/5/3 228/5/3 222/5/3
f 235/3/3 229/3/3 234/3/3
f 236/5/3 231/5/3 230/5/3
f 237/5/3 219/5/3 231/5/3
f 237/5/3 231/5/3 236/5/3
f 239/4/3 227/4/3 233/4/3
f 240/5/3 236/5/3 235/5/3
f 240/5/3 235/5/3 234/5/3
f 240/5/3 234/5/3 222/5/3
f 241/5/3 236/5/3 240/5/3
f 242/9/3 237/9/3 236/9/3
f 242/5/3 236/5/3 241/5/3
f 243/5/3 219/5/3 237/5/3
f 243/9/3 237/9/3 242/9/3
f 244/4/3 239/4/3 238/4/3
f 244/4/3 227/4/3 239/4/3
f 245/4/3 227/4/3 244/4/3
f 246/5/3 242/5/3 241/5/3
f 246/5/3 243/5/3 242/5/3
f 247/5/3 219/5/3 243/5/3
f 247/5/3 243/5/3 246/5/3
f 248/4/3 244/4/3 238/4/3
f 249/4/3 244/4/3 248/4/3
f 250/4/3 248/4/3 247/4/3
f 251/4/3 248/4/3 250/4/3
f 259/5/3 253/5/3 252/5/3
f 260/4/3 254/4/3 253/4/3
f 260/5/3 253/5/3 259/5/3
f 261/4/3 254/4/3 260/4/3
f 264/5/3 256/5/3 255/5/3
f 265/5/3 256/5/3 264/5/3
f 266/5/3 258/5/3 257/5/3
f 267/5/3 258/5/3 266/5/3
f 268/7/3 263/7/3 262/7/3
f 269/6/3 265/6/3 264/6/3
f 269/7/3 263/7/3 268/7/3
f 269/6/3 264/6/3 263/6/3
f 269/6/3 266/6/3 265/6/3
f 270/6/3 266/6/3 269/6/3
f 271/6/3 266/6/3 270/6/3
f 272/6/3 266/6/3 271/6/3
f 273/6/3 266/6/3 272/6/3
f 274/6/3 266/6/3 273/6/3
f 276/5/3 273/5/3 272/5/3
f 277/6/3 274/6/3 273/6/3
f 277/5/3 273/5/3 276/5/3
f 278/5/3 275/5/3 274/5/3
f 278/6/3 274/6/3 277/6/3
f 279/5/3 275/5/3 278/5/3
f 283/5/3 281/5/3 280/5/3
f 284/4/3 282/4/3 281/4/3
f 284/5/3 281/5/3 283/5/3
f 285/4/3 282/4/3 284/4/3
f 288/5/3 287/5/3 286/5/3
f 289/5/3 287/5/3 288/5/3
f 292/5/3 291/5/3 290/5/3
f 293/5/3 291/5/3 292/5/3
f 299/5/3 295/5/3 294/5/3
f 300/6/3 296/6/3 295/6/3
f 300/5/3 295/5/3 299/5/3
f 301/6/3 296/6/3 300/6/3
f 302/7/3 298/7/3 297/7/3
f 303/7/3 298/7/3 302/7/3
f 306/4/3 305/4/3 304/4/3
f 307/4/3 305/4/3 306/4/3
f 310/4/3 309/4/3 308/4/3
f 311/4/3 309/4/3 310/4/3
f 314/2/3 313/2/3 312/2/3
f 315/2/3 313/2/3 314/2/3
f 316/2/4 317/2/4 319/2/4
f 317/7/4 318/7/4 320/7/4
f 319/2/4 317/2/4 320/2/4
f 320/7/4 318/7/4 321/7/4
f 322/5/4 323/5/4 325/5/4
f 323/6/4 324/6/4 326/6/4
f 325/5/4 323/5/4 326/5/4
f 326/6/4 324/6/4 327/6/4
f 328/5/4 329/5/4 334/5/4
f 329/6/4 330/6/4 335/6/4
f 334/5/4 329/5/4 335/5/4
f 330/5/4 331/5/4 336/5/4
f 335/6/4 330/6/4 336/6/4
f 336/5/4 331/5/4 337/5/4
f 332/7/4 333/7/4 338/7/4
f 338/7/4 333/7/4 339/7/4
f 339/7/4 333/7/4 340/7/4
f 333/6/4 334/6/4 341/6/4
f 340/7/4 333/7/4 341/7/4
f 334/6/4 335/6/4 341/6/4
f 335/6/4 336/6/4 341/6/4
f 341/6/4 336/6/4 342/6/4
f 342/5/4 343/5/4 344/5/4
f 344/5/4 343/5/4 345/5/4
f 346/4/4 347/4/4 348/4/4
f 348/4/4 347/4/4 349/4/4
f 349/4/4 350/4/4 353/4/4
f 353/4/4 350/4/4 354/4/4
f 351/5/4 352/5/4 356/5/4
f 356/5/4 352/5/4 357/5/4
f 358/5/4 359/5/4 360/5/4
f 360/5/4 359/5/4 361/5/4
f 354/4/4 355/4/4 363/4/4
f 363/4/4 355/4/4 364/4/4
f 362/4/4 363/4/4 366/4/4
f 366/4/4 363/4/4 367/4/4
f 365/4/4 366/4/4 368/4/4
f 368/4/4 366/4/4 369/4/4
f 370/4/4 371/4/4 372/4/4
f 370/4/4 372/4/4 375/4/4
f 372/4/4 373/4/4 375/4/4
f 374/4/4 375/4/4 376/4/4
f 375/4/4 373/4/4 377/4/4
f 376/4/4 375/4/4 377/4/4
f 377/4/4 373/4/4 378/4/4
f 378/4/4 373/4/4 379/4/4
f 377/4/4 378/4/4 380/4/4
f 380/4/4 378/4/4 381/4/4
f 382/2/4 383/2/4 384/2/4
f 384/2/4 383/2/4 385/2/4
f 388/2/5 387/2/5 386/2/5
f 389/2/5 387/2/5 388/2/5
f 392/2/5 391/2/5 390/2/5
f 393/2/5 391/2/5 392/2/5
f 396/7/5 395/7/5 394/7/5
f 397/7/5 395/7/5 396/7/5
f 401/7/5 399/7/5 398/7/5
f 402/7/5 401/7/5 400/7/5
f 403/7/5 401/7/5 402/7/5
f 404/7/5 401/7/5 403/7/5
f 405/7/5 399/7/5 401/7/5
f 405/7/5 401/7/5 404/7/5
f 410/5/5 407/5/5 406/5/5
f 411/5/5 407/5/5 410/5/5
f 412/5/5 407/5/5 411/5/5
f 413/5/5 409/5/5 408/5/5
f 414/5/5 409/5/5 413/5/5
f 418/5/5 416/5/5 415/5/5
f 419/5/5 416/5/5 418/5/5
f 422/5/5 418/5/5 417/5/5
f 423/5/5 418/5/5 422/5/5
f 425/5/5 421/5/5 420/5/5
f 426/5/5 421/5/5 425/5/5
f 427/5/5 425/5/5 424/5/5
f 428/5/5 425/5/5 427/5/5
f 429/5/5 425/5/5 428/5/5
f 430/5/5 425/5/5 429/5/5
f 431/4/5 429/4/5 428/4/5
f 432/4/5 429/4/5 431/4/5
f 437/5/5 434/5/5 433/5/5
f 438/5/5 434/5/5 437/5/5
f 439/5/5 436/5/5 435/5/5
f 440/5/5 436/5/5 439/5/5
f 447/4/5 442/4/5 441/4/5
f 448/5/5 443/5/5 442/5/5
f 448/4/5 442/4/5 447/4/5
f 449/5/5 443/5/5 448/5/5
f 452/5/5 445/5/5 444/5/5
f 453/4/5 446/4/5 445/4/5
f 453/5/5 445/5/5 452/5/5
f 454/4/5 446/4/5 453/4/5
f 455/4/5 450/4/5 449/4/5
f 455/4/5 449/4/5 448/4/5
f 456/4/5 450/4/5 455/4/5
f 457/4/5 452/4/5 451/4/5
f 457/4/5 453/4/5 452/4/5
f 458/4/5 453/4/5 457/4/5
f 461/1/5 460/1/5 459/1/5
f 462/1/5 460/1/5 461/1/5
f 467/5/5 464/5/5 463/5/5
f 468/5/5 464/5/5 467/5/5
f 469/5/5 466/5/5 465/5/5
f 470/5/5 466/5/5 469/5/5
f 471/4/5 468/4/5 467/4/5
f 472/4/5 468/4/5 471/4/5
f 473/4/5 470/4/5 469/4/5
f 474/4/5 470/4/5 473/4/5
f 479/5/5 476/5/5 475/5/5
f 480/5/5 476/5/5 479/5/5
f 481/5/5 478/5/5 477/5/5
f 482/5/5 478/5/5 481/5/5
f 486/4/5 484/4/5 483/4/5
f 487/4/5 484/4/5 486/4/5
f 489/4/5 486/4/5 485/4/5
f 490/4/5 486/4/5 489/4/5
f 491/4/5 488/4/5 487/4/5
f 492/4/5 488/4/5 491/4/5
f 493/2/6 494/2/6 495/2/6
f 495/2/6 494/2/6 496/2/6
f 497/7/6 498/7/6 499/7/6
f 499/7/6 498/7/6 500/7/6
f 499/2/6 500/2/6 501/2/6
f 501/2/6 500/2/6 502/2/6
f 503/7/6 504/7/6 505/7/6
f 505/7/6 504/7/6 506/7/6
f 507/5/6 508/5/6 511/5/6
f 511/5/6 508/5/6 512/5/6
f 509/5/6 510/5/6 513/5/6
f 513/5/6 510/5/6 514/5/6
f 515/1/6 516/1/6 517/1/6
f 517/1/6 516/1/6 518/1/6
f 519/4/6 520/4/6 524/4/6
f 524/4/6 520/4/6 525/4/6
f 521/4/6 522/4/6 526/4/6
f 526/4/6 522/4/6 527/4/6
f 523/4/6 524/4/6 529/4/6
f 529/4/6 524/4/6 530/4/6
f 527/4/6 528/4/6 533/4/6
f 533/4/6 528/4/6 534/4/6
f 530/4/6 531/4/6 535/4/6
f 535/4/6 531/4/6 536/4/6
f 532/4/6 533/4/6 537/4/6
f 537/4/6 533/4/6 538/4/6
f 539/4/6 540/4/6 543/4/6
f 543/4/6 540/4/6 544/4/6
f 541/4/6 542/4/6 547/4/6
f 547/4/6 542/4/6 548/4/6
f 545/4/6 546/4/6 549/4/6
f 549/4/6 546/4/6 550/4/6
f 548/4/6 549/4/6 551/4/6
f 551/4/6 549/4/6 552/4/6
f 553/4/6 554/4/6 555/4/6
f 555/4/6 554/4/6 556/4/6
