# MagicaVoxel @ Ephtracy

# material
mtllib Tree.mtl
usemtl palette

# normals
vn -1 0 0
vn 1 0 0
vn 0 0 1
vn 0 0 -1
vn 0 -1 0
vn 0 1 0

# texcoords
vt 0.373047 0.5
vt 0.771484 0.5
vt 0.892578 0.5
vt 0.904297 0.5
vt 0.970703 0.5

# verts
v -3.5 0 2.5
v -3.5 0 -2.5
v -3.5 2 2.5
v -3.5 2 -2.5
v -3.5 7 0.5
v -3.5 7 -0.5
v -3.5 9 0.5
v -3.5 9 -0.5
v -3.5 11 0.5
v -3.5 11 -0.5
v -2.5 0 3.5
v -2.5 0 2.5
v -2.5 0 -2.5
v -2.5 0 -3.5
v -2.5 2 3.5
v -2.5 2 2.5
v -2.5 2 -2.5
v -2.5 2 -3.5
v -2.5 6 0.5
v -2.5 6 -0.5
v -2.5 7 1.5
v -2.5 7 0.5
v -2.5 7 -0.5
v -2.5 7 -1.5
v -2.5 9 1.5
v -2.5 9 0.5
v -2.5 9 -0.5
v -2.5 10 1.5
v -2.5 10 0.5
v -2.5 10 -0.5
v -2.5 10 -1.5
v -2.5 11 1.5
v -2.5 11 0.5
v -2.5 11 -0.5
v -2.5 11 -1.5
v -2.5 12 0.5
v -2.5 12 -0.5
v -1.5 6 1.5
v -1.5 6 0.5
v -1.5 6 -0.5
v -1.5 6 -1.5
v -1.5 7 2.5
v -1.5 7 1.5
v -1.5 7 0.5
v -1.5 7 -0.5
v -1.5 7 -1.5
v -1.5 7 -2.5
v -1.5 8 2.5
v -1.5 8 1.5
v -1.5 9 2.5
v -1.5 9 1.5
v -1.5 9 -1.5
v -1.5 9 -2.5
v -1.5 10 1.5
v -1.5 10 -1.5
v -1.5 11 2.5
v -1.5 11 1.5
v -1.5 11 0.5
v -1.5 11 -0.5
v -1.5 11 -1.5
v -1.5 11 -2.5
v -1.5 12 1.5
v -1.5 12 0.5
v -1.5 12 -0.5
v -1.5 12 -1.5
v -1.5 13 0.5
v -1.5 13 -0.5
v -0.5 1 0.5
v -0.5 1 -0.5
v -0.5 6 2.5
v -0.5 6 1.5
v -0.5 6 0.5
v -0.5 6 -0.5
v -0.5 6 -1.5
v -0.5 6 -2.5
v -0.5 7 3.5
v -0.5 7 2.5
v -0.5 7 1.5
v -0.5 7 -1.5
v -0.5 7 -2.5
v -0.5 7 -3.5
v -0.5 8 3.5
v -0.5 8 2.5
v -0.5 9 2.5
v -0.5 9 -2.5
v -0.5 9 -3.5
v -0.5 10 3.5
v -0.5 10 2.5
v -0.5 11 3.5
v -0.5 11 2.5
v -0.5 11 1.5
v -0.5 11 -1.5
v -0.5 11 -2.5
v -0.5 11 -3.5
v -0.5 12 2.5
v -0.5 12 1.5
v -0.5 12 0.5
v -0.5 12 -0.5
v -0.5 12 -1.5
v -0.5 12 -2.5
v -0.5 13 1.5
v -0.5 13 0.5
v -0.5 13 -0.5
v -0.5 13 -1.5
v -0.5 14 0.5
v -0.5 14 -0.5
v 2.5 1 2.5
v 2.5 1 -2.5
v 2.5 2 2.5
v 2.5 2 -2.5
v -2.5 1 2.5
v -2.5 1 -2.5
v -2.5 2 2.5
v -2.5 2 -2.5
v 0.5 1 0.5
v 0.5 1 -0.5
v 0.5 6 2.5
v 0.5 6 1.5
v 0.5 6 0.5
v 0.5 6 -0.5
v 0.5 6 -1.5
v 0.5 6 -2.5
v 0.5 7 3.5
v 0.5 7 2.5
v 0.5 7 1.5
v 0.5 7 -1.5
v 0.5 7 -2.5
v 0.5 7 -3.5
v 0.5 8 3.5
v 0.5 8 2.5
v 0.5 8 -2.5
v 0.5 9 2.5
v 0.5 9 -2.5
v 0.5 9 -3.5
v 0.5 10 3.5
v 0.5 10 2.5
v 0.5 11 3.5
v 0.5 11 2.5
v 0.5 11 1.5
v 0.5 11 -1.5
v 0.5 11 -2.5
v 0.5 11 -3.5
v 0.5 12 2.5
v 0.5 12 1.5
v 0.5 12 0.5
v 0.5 12 -0.5
v 0.5 12 -1.5
v 0.5 12 -2.5
v 0.5 13 1.5
v 0.5 13 0.5
v 0.5 13 -0.5
v 0.5 13 -1.5
v 0.5 14 0.5
v 0.5 14 -0.5
v 1.5 6 1.5
v 1.5 6 0.5
v 1.5 6 -0.5
v 1.5 6 -1.5
v 1.5 7 2.5
v 1.5 7 1.5
v 1.5 7 0.5
v 1.5 7 -0.5
v 1.5 7 -1.5
v 1.5 7 -2.5
v 1.5 8 1.5
v 1.5 8 -1.5
v 1.5 8 -2.5
v 1.5 9 2.5
v 1.5 9 1.5
v 1.5 9 -1.5
v 1.5 9 -2.5
v 1.5 10 2.5
v 1.5 10 1.5
v 1.5 11 2.5
v 1.5 11 1.5
v 1.5 11 0.5
v 1.5 11 -0.5
v 1.5 11 -1.5
v 1.5 11 -2.5
v 1.5 12 1.5
v 1.5 12 0.5
v 1.5 12 -0.5
v 1.5 12 -1.5
v 1.5 13 0.5
v 1.5 13 -0.5
v 2.5 0 3.5
v 2.5 0 2.5
v 2.5 0 -2.5
v 2.5 0 -3.5
v 2.5 2 3.5
v 2.5 2 2.5
v 2.5 2 -2.5
v 2.5 2 -3.5
v 2.5 6 0.5
v 2.5 6 -0.5
v 2.5 7 1.5
v 2.5 7 0.5
v 2.5 7 -0.5
v 2.5 7 -1.5
v 2.5 8 1.5
v 2.5 8 0.5
v 2.5 8 -0.5
v 2.5 8 -1.5
v 2.5 9 1.5
v 2.5 9 0.5
v 2.5 9 -0.5
v 2.5 10 0.5
v 2.5 10 -0.5
v 2.5 11 1.5
v 2.5 11 0.5
v 2.5 11 -0.5
v 2.5 11 -1.5
v 2.5 12 0.5
v 2.5 12 -0.5
v 3.5 0 2.5
v 3.5 0 -2.5
v 3.5 2 2.5
v 3.5 2 -2.5
v 3.5 7 0.5
v 3.5 7 -0.5
v 3.5 8 0.5
v 3.5 8 -0.5
v 3.5 9 0.5
v 3.5 9 -0.5
v 3.5 10 0.5
v 3.5 10 -0.5
v 3.5 11 0.5
v 3.5 11 -0.5
v -2.5 0 3.5
v -2.5 2 3.5
v -0.5 7 3.5
v -0.5 8 3.5
v -0.5 10 3.5
v -0.5 11 3.5
v 0.5 7 3.5
v 0.5 8 3.5
v 0.5 10 3.5
v 0.5 11 3.5
v 2.5 0 3.5
v 2.5 2 3.5
v -3.5 0 2.5
v -3.5 2 2.5
v -2.5 0 2.5
v -2.5 2 2.5
v -1.5 7 2.5
v -1.5 8 2.5
v -1.5 9 2.5
v -1.5 11 2.5
v -0.5 6 2.5
v -0.5 7 2.5
v -0.5 8 2.5
v -0.5 9 2.5
v -0.5 10 2.5
v -0.5 11 2.5
v -0.5 12 2.5
v 0.5 6 2.5
v 0.5 7 2.5
v 0.5 8 2.5
v 0.5 9 2.5
v 0.5 10 2.5
v 0.5 11 2.5
v 0.5 12 2.5
v 1.5 7 2.5
v 1.5 9 2.5
v 1.5 10 2.5
v 1.5 11 2.5
v 2.5 0 2.5
v 2.5 2 2.5
v 3.5 0 2.5
v 3.5 2 2.5
v -2.5 7 1.5
v -2.5 9 1.5
v -2.5 10 1.5
v -2.5 11 1.5
v -1.5 6 1.5
v -1.5 7 1.5
v -1.5 8 1.5
v -1.5 9 1.5
v -1.5 10 1.5
v -1.5 11 1.5
v -1.5 12 1.5
v -0.5 6 1.5
v -0.5 7 1.5
v -0.5 11 1.5
v -0.5 12 1.5
v -0.5 13 1.5
v 0.5 6 1.5
v 0.5 7 1.5
v 0.5 11 1.5
v 0.5 12 1.5
v 0.5 13 1.5
v 1.5 6 1.5
v 1.5 7 1.5
v 1.5 8 1.5
v 1.5 9 1.5
v 1.5 10 1.5
v 1.5 11 1.5
v 1.5 12 1.5
v 2.5 7 1.5
v 2.5 8 1.5
v 2.5 9 1.5
v 2.5 11 1.5
v -3.5 7 0.5
v -3.5 9 0.5
v -3.5 11 0.5
v -2.5 6 0.5
v -2.5 7 0.5
v -2.5 9 0.5
v -2.5 10 0.5
v -2.5 11 0.5
v -2.5 12 0.5
v -1.5 6 0.5
v -1.5 7 0.5
v -1.5 11 0.5
v -1.5 12 0.5
v -1.5 13 0.5
v -0.5 1 0.5
v -0.5 6 0.5
v -0.5 12 0.5
v -0.5 13 0.5
v -0.5 14 0.5
v 0.5 1 0.5
v 0.5 6 0.5
v 0.5 12 0.5
v 0.5 13 0.5
v 0.5 14 0.5
v 1.5 6 0.5
v 1.5 7 0.5
v 1.5 11 0.5
v 1.5 12 0.5
v 1.5 13 0.5
v 2.5 6 0.5
v 2.5 7 0.5
v 2.5 8 0.5
v 2.5 9 0.5
v 2.5 10 0.5
v 2.5 11 0.5
v 2.5 12 0.5
v 3.5 7 0.5
v 3.5 8 0.5
v 3.5 9 0.5
v 3.5 10 0.5
v 3.5 11 0.5
v -2.5 1 -2.5
v -2.5 2 -2.5
v 2.5 1 -2.5
v 2.5 2 -2.5
v -2.5 1 2.5
v -2.5 2 2.5
v 2.5 1 2.5
v 2.5 2 2.5
v -3.5 7 -0.5
v -3.5 9 -0.5
v -3.5 11 -0.5
v -2.5 6 -0.5
v -2.5 7 -0.5
v -2.5 9 -0.5
v -2.5 10 -0.5
v -2.5 11 -0.5
v -2.5 12 -0.5
v -1.5 6 -0.5
v -1.5 7 -0.5
v -1.5 11 -0.5
v -1.5 12 -0.5
v -1.5 13 -0.5
v -0.5 1 -0.5
v -0.5 6 -0.5
v -0.5 12 -0.5
v -0.5 13 -0.5
v -0.5 14 -0.5
v 0.5 1 -0.5
v 0.5 6 -0.5
v 0.5 12 -0.5
v 0.5 13 -0.5
v 0.5 14 -0.5
v 1.5 6 -0.5
v 1.5 7 -0.5
v 1.5 11 -0.5
v 1.5 12 -0.5
v 1.5 13 -0.5
v 2.5 6 -0.5
v 2.5 7 -0.5
v 2.5 8 -0.5
v 2.5 9 -0.5
v 2.5 10 -0.5
v 2.5 11 -0.5
v 2.5 12 -0.5
v 3.5 7 -0.5
v 3.5 8 -0.5
v 3.5 9 -0.5
v 3.5 10 -0.5
v 3.5 11 -0.5
v -2.5 7 -1.5
v -2.5 10 -1.5
v -2.5 11 -1.5
v -1.5 6 -1.5
v -1.5 7 -1.5
v -1.5 9 -1.5
v -1.5 10 -1.5
v -1.5 11 -1.5
v -1.5 12 -1.5
v -0.5 6 -1.5
v -0.5 7 -1.5
v -0.5 11 -1.5
v -0.5 12 -1.5
v -0.5 13 -1.5
v 0.5 6 -1.5
v 0.5 7 -1.5
v 0.5 11 -1.5
v 0.5 12 -1.5
v 0.5 13 -1.5
v 1.5 6 -1.5
v 1.5 7 -1.5
v 1.5 8 -1.5
v 1.5 9 -1.5
v 1.5 11 -1.5
v 1.5 12 -1.5
v 2.5 7 -1.5
v 2.5 8 -1.5
v 2.5 11 -1.5
v -3.5 0 -2.5
v -3.5 2 -2.5
v -2.5 0 -2.5
v -2.5 2 -2.5
v -1.5 7 -2.5
v -1.5 9 -2.5
v -1.5 11 -2.5
v -0.5 6 -2.5
v -0.5 7 -2.5
v -0.5 9 -2.5
v -0.5 11 -2.5
v -0.5 12 -2.5
v 0.5 6 -2.5
v 0.5 7 -2.5
v 0.5 8 -2.5
v 0.5 9 -2.5
v 0.5 11 -2.5
v 0.5 12 -2.5
v 1.5 7 -2.5
v 1.5 8 -2.5
v 1.5 9 -2.5
v 1.5 11 -2.5
v 2.5 0 -2.5
v 2.5 2 -2.5
v 3.5 0 -2.5
v 3.5 2 -2.5
v -2.5 0 -3.5
v -2.5 2 -3.5
v -0.5 7 -3.5
v -0.5 9 -3.5
v -0.5 11 -3.5
v 0.5 7 -3.5
v 0.5 9 -3.5
v 0.5 11 -3.5
v 2.5 0 -3.5
v 2.5 2 -3.5
v -2.5 0 3.5
v 2.5 0 3.5
v -3.5 0 2.5
v -2.5 0 2.5
v 2.5 0 2.5
v 3.5 0 2.5
v -3.5 0 -2.5
v -2.5 0 -2.5
v 2.5 0 -2.5
v 3.5 0 -2.5
v -2.5 0 -3.5
v 2.5 0 -3.5
v -0.5 6 2.5
v 0.5 6 2.5
v -1.5 6 1.5
v -0.5 6 1.5
v 0.5 6 1.5
v 1.5 6 1.5
v -2.5 6 0.5
v -1.5 6 0.5
v -0.5 6 0.5
v 0.5 6 0.5
v 1.5 6 0.5
v 2.5 6 0.5
v -2.5 6 -0.5
v -1.5 6 -0.5
v -0.5 6 -0.5
v 0.5 6 -0.5
v 1.5 6 -0.5
v 2.5 6 -0.5
v -1.5 6 -1.5
v -0.5 6 -1.5
v 0.5 6 -1.5
v 1.5 6 -1.5
v -0.5 6 -2.5
v 0.5 6 -2.5
v -0.5 7 3.5
v 0.5 7 3.5
v -1.5 7 2.5
v -0.5 7 2.5
v 0.5 7 2.5
v 1.5 7 2.5
v -2.5 7 1.5
v -1.5 7 1.5
v -0.5 7 1.5
v 0.5 7 1.5
v 1.5 7 1.5
v 2.5 7 1.5
v -3.5 7 0.5
v -2.5 7 0.5
v -1.5 7 0.5
v 1.5 7 0.5
v 2.5 7 0.5
v 3.5 7 0.5
v -3.5 7 -0.5
v -2.5 7 -0.5
v -1.5 7 -0.5
v 1.5 7 -0.5
v 2.5 7 -0.5
v 3.5 7 -0.5
v -2.5 7 -1.5
v -1.5 7 -1.5
v -0.5 7 -1.5
v 0.5 7 -1.5
v 1.5 7 -1.5
v 2.5 7 -1.5
v -1.5 7 -2.5
v -0.5 7 -2.5
v 0.5 7 -2.5
v 1.5 7 -2.5
v -0.5 7 -3.5
v 0.5 7 -3.5
v -2.5 1 2.5
v 2.5 1 2.5
v -0.5 1 0.5
v 0.5 1 0.5
v -0.5 1 -0.5
v 0.5 1 -0.5
v -2.5 1 -2.5
v 2.5 1 -2.5
v -2.5 2 3.5
v 2.5 2 3.5
v -3.5 2 2.5
v -2.5 2 2.5
v 2.5 2 2.5
v 3.5 2 2.5
v -3.5 2 -2.5
v -2.5 2 -2.5
v 2.5 2 -2.5
v 3.5 2 -2.5
v -2.5 2 -3.5
v 2.5 2 -3.5
v -0.5 11 3.5
v 0.5 11 3.5
v -1.5 11 2.5
v -0.5 11 2.5
v 0.5 11 2.5
v 1.5 11 2.5
v -2.5 11 1.5
v -1.5 11 1.5
v -0.5 11 1.5
v 0.5 11 1.5
v 1.5 11 1.5
v 2.5 11 1.5
v -3.5 11 0.5
v -2.5 11 0.5
v -1.5 11 0.5
v 1.5 11 0.5
v 2.5 11 0.5
v 3.5 11 0.5
v -3.5 11 -0.5
v -2.5 11 -0.5
v -1.5 11 -0.5
v 1.5 11 -0.5
v 2.5 11 -0.5
v 3.5 11 -0.5
v -2.5 11 -1.5
v -1.5 11 -1.5
v -0.5 11 -1.5
v 0.5 11 -1.5
v 1.5 11 -1.5
v 2.5 11 -1.5
v -1.5 11 -2.5
v -0.5 11 -2.5
v 0.5 11 -2.5
v 1.5 11 -2.5
v -0.5 11 -3.5
v 0.5 11 -3.5
v -0.5 12 2.5
v 0.5 12 2.5
v -1.5 12 1.5
v -0.5 12 1.5
v 0.5 12 1.5
v 1.5 12 1.5
v -2.5 12 0.5
v -1.5 12 0.5
v -0.5 12 0.5
v 0.5 12 0.5
v 1.5 12 0.5
v 2.5 12 0.5
v -2.5 12 -0.5
v -1.5 12 -0.5
v -0.5 12 -0.5
v 0.5 12 -0.5
v 1.5 12 -0.5
v 2.5 12 -0.5
v -1.5 12 -1.5
v -0.5 12 -1.5
v 0.5 12 -1.5
v 1.5 12 -1.5
v -0.5 12 -2.5
v 0.5 12 -2.5
v -0.5 13 1.5
v 0.5 13 1.5
v -1.5 13 0.5
v -0.5 13 0.5
v 0.5 13 0.5
v 1.5 13 0.5
v -1.5 13 -0.5
v -0.5 13 -0.5
v 0.5 13 -0.5
v 1.5 13 -0.5
v -0.5 13 -1.5
v 0.5 13 -1.5
v -0.5 14 0.5
v 0.5 14 0.5
v -0.5 14 -0.5
v 0.5 14 -0.5

# faces
f 3/5/1 2/5/1 1/5/1
f 4/5/1 2/5/1 3/5/1
f 7/4/1 6/4/1 5/4/1
f 8/4/1 6/4/1 7/4/1
f 9/3/1 8/3/1 7/3/1
f 10/3/1 8/3/1 9/3/1
f 15/5/1 12/5/1 11/5/1
f 16/5/1 12/5/1 15/5/1
f 17/5/1 14/5/1 13/5/1
f 18/5/1 14/5/1 17/5/1
f 22/3/1 20/3/1 19/3/1
f 23/3/1 20/3/1 22/3/1
f 25/4/1 22/4/1 21/4/1
f 26/4/1 22/4/1 25/4/1
f 27/3/1 24/3/1 23/3/1
f 28/3/1 26/3/1 25/3/1
f 29/3/1 26/3/1 28/3/1
f 30/3/1 24/3/1 27/3/1
f 31/3/1 24/3/1 30/3/1
f 32/4/1 29/4/1 28/4/1
f 33/4/1 29/4/1 32/4/1
f 34/4/1 31/4/1 30/4/1
f 35/4/1 31/4/1 34/4/1
f 36/3/1 34/3/1 33/3/1
f 37/3/1 34/3/1 36/3/1
f 43/3/1 39/3/1 38/3/1
f 44/3/1 39/3/1 43/3/1
f 45/3/1 41/3/1 40/3/1
f 46/3/1 41/3/1 45/3/1
f 48/3/1 43/3/1 42/3/1
f 49/3/1 43/3/1 48/3/1
f 50/4/1 49/4/1 48/4/1
f 51/4/1 49/4/1 50/4/1
f 52/3/1 47/3/1 46/3/1
f 53/3/1 47/3/1 52/3/1
f 54/3/1 51/3/1 50/3/1
f 55/4/1 53/4/1 52/4/1
f 56/3/1 54/3/1 50/3/1
f 57/3/1 54/3/1 56/3/1
f 60/4/1 53/4/1 55/4/1
f 61/4/1 53/4/1 60/4/1
f 62/4/1 58/4/1 57/4/1
f 63/4/1 58/4/1 62/4/1
f 64/3/1 60/3/1 59/3/1
f 65/3/1 60/3/1 64/3/1
f 66/4/1 64/4/1 63/4/1
f 67/4/1 64/4/1 66/4/1
f 72/1/1 69/1/1 68/1/1
f 73/1/1 69/1/1 72/1/1
f 77/3/1 71/3/1 70/3/1
f 78/3/1 71/3/1 77/3/1
f 79/3/1 75/3/1 74/3/1
f 80/3/1 75/3/1 79/3/1
f 82/3/1 77/3/1 76/3/1
f 83/3/1 77/3/1 82/3/1
f 84/4/1 83/4/1 82/4/1
f 85/3/1 81/3/1 80/3/1
f 86/3/1 81/3/1 85/3/1
f 87/4/1 84/4/1 82/4/1
f 88/4/1 84/4/1 87/4/1
f 89/3/1 88/3/1 87/3/1
f 90/3/1 88/3/1 89/3/1
f 93/4/1 86/4/1 85/4/1
f 94/4/1 86/4/1 93/4/1
f 95/4/1 91/4/1 90/4/1
f 96/4/1 91/4/1 95/4/1
f 99/3/1 93/3/1 92/3/1
f 100/3/1 93/3/1 99/3/1
f 101/3/1 97/3/1 96/3/1
f 102/3/1 97/3/1 101/3/1
f 103/4/1 99/4/1 98/4/1
f 104/4/1 99/4/1 103/4/1
f 105/3/1 103/3/1 102/3/1
f 106/3/1 103/3/1 105/3/1
f 109/5/1 108/5/1 107/5/1
f 110/5/1 108/5/1 109/5/1
f 111/5/2 112/5/2 113/5/2
f 113/5/2 112/5/2 114/5/2
f 115/1/2 116/1/2 119/1/2
f 119/1/2 116/1/2 120/1/2
f 117/3/2 118/3/2 124/3/2
f 124/3/2 118/3/2 125/3/2
f 121/3/2 122/3/2 126/3/2
f 126/3/2 122/3/2 127/3/2
f 123/3/2 124/3/2 129/3/2
f 129/3/2 124/3/2 130/3/2
f 127/3/2 128/3/2 131/3/2
f 129/4/2 130/4/2 132/4/2
f 131/3/2 128/3/2 133/3/2
f 133/3/2 128/3/2 134/3/2
f 129/4/2 132/4/2 135/4/2
f 135/4/2 132/4/2 136/4/2
f 135/3/2 136/3/2 137/3/2
f 137/3/2 136/3/2 138/3/2
f 133/4/2 134/4/2 141/4/2
f 141/4/2 134/4/2 142/4/2
f 138/4/2 139/4/2 143/4/2
f 143/4/2 139/4/2 144/4/2
f 140/3/2 141/3/2 147/3/2
f 147/3/2 141/3/2 148/3/2
f 144/3/2 145/3/2 149/3/2
f 149/3/2 145/3/2 150/3/2
f 146/4/2 147/4/2 151/4/2
f 151/4/2 147/4/2 152/4/2
f 150/3/2 151/3/2 153/3/2
f 153/3/2 151/3/2 154/3/2
f 155/3/2 156/3/2 160/3/2
f 160/3/2 156/3/2 161/3/2
f 157/3/2 158/3/2 162/3/2
f 162/3/2 158/3/2 163/3/2
f 159/4/2 160/4/2 165/4/2
f 163/3/2 164/3/2 166/3/2
f 166/3/2 164/3/2 167/3/2
f 159/4/2 165/4/2 168/4/2
f 168/4/2 165/4/2 169/4/2
f 166/4/2 167/4/2 170/4/2
f 170/4/2 167/4/2 171/4/2
f 168/3/2 169/3/2 172/3/2
f 172/3/2 169/3/2 173/3/2
f 172/4/2 173/4/2 174/4/2
f 174/4/2 173/4/2 175/4/2
f 170/3/2 171/3/2 178/3/2
f 178/3/2 171/3/2 179/3/2
f 175/3/2 176/3/2 180/3/2
f 180/3/2 176/3/2 181/3/2
f 177/4/2 178/4/2 182/4/2
f 182/4/2 178/4/2 183/4/2
f 181/3/2 182/3/2 184/3/2
f 184/3/2 182/3/2 185/3/2
f 186/5/2 187/5/2 190/5/2
f 190/5/2 187/5/2 191/5/2
f 188/5/2 189/5/2 192/5/2
f 192/5/2 189/5/2 193/5/2
f 194/3/2 195/3/2 197/3/2
f 197/3/2 195/3/2 198/3/2
f 196/4/2 197/4/2 200/4/2
f 200/4/2 197/4/2 201/4/2
f 198/3/2 199/3/2 202/3/2
f 202/3/2 199/3/2 203/3/2
f 200/3/2 201/3/2 204/3/2
f 204/3/2 201/3/2 205/3/2
f 202/4/2 203/4/2 206/4/2
f 204/4/2 205/4/2 207/4/2
f 206/4/2 203/4/2 208/4/2
f 204/4/2 207/4/2 209/4/2
f 209/4/2 207/4/2 210/4/2
f 208/4/2 203/4/2 211/4/2
f 211/4/2 203/4/2 212/4/2
f 210/3/2 211/3/2 213/3/2
f 213/3/2 211/3/2 214/3/2
f 215/5/2 216/5/2 217/5/2
f 217/5/2 216/5/2 218/5/2
f 219/4/2 220/4/2 221/4/2
f 221/4/2 220/4/2 222/4/2
f 221/3/2 222/3/2 223/3/2
f 223/3/2 222/3/2 224/3/2
f 223/4/2 224/4/2 225/4/2
f 225/4/2 224/4/2 226/4/2
f 225/3/2 226/3/2 227/3/2
f 227/3/2 226/3/2 228/3/2
f 235/3/3 232/3/3 231/3/3
f 236/4/3 233/4/3 232/4/3
f 236/3/3 232/3/3 235/3/3
f 237/3/3 234/3/3 233/3/3
f 237/4/3 233/4/3 236/4/3
f 238/3/3 234/3/3 237/3/3
f 239/5/3 230/5/3 229/5/3
f 240/5/3 230/5/3 239/5/3
f 243/5/3 242/5/3 241/5/3
f 244/5/3 242/5/3 243/5/3
f 250/3/3 246/3/3 245/3/3
f 251/4/3 247/4/3 246/4/3
f 251/3/3 246/3/3 250/3/3
f 252/3/3 248/3/3 247/3/3
f 252/4/3 247/4/3 251/4/3
f 253/3/3 248/3/3 252/3/3
f 254/3/3 248/3/3 253/3/3
f 256/3/3 250/3/3 249/3/3
f 257/3/3 250/3/3 256/3/3
f 261/4/3 255/4/3 254/4/3
f 262/4/3 255/4/3 261/4/3
f 263/4/3 258/4/3 257/4/3
f 263/4/3 259/4/3 258/4/3
f 264/3/3 260/3/3 259/3/3
f 264/4/3 259/4/3 263/4/3
f 265/4/3 261/4/3 260/4/3
f 265/3/3 260/3/3 264/3/3
f 266/4/3 261/4/3 265/4/3
f 269/5/3 268/5/3 267/5/3
f 270/5/3 268/5/3 269/5/3
f 276/4/3 272/4/3 271/4/3
f 277/4/3 272/4/3 276/4/3
f 278/3/3 273/3/3 272/3/3
f 278/4/3 272/4/3 277/4/3
f 279/4/3 274/4/3 273/4/3
f 279/3/3 273/3/3 278/3/3
f 280/4/3 274/4/3 279/4/3
f 282/3/3 276/3/3 275/3/3
f 283/3/3 276/3/3 282/3/3
f 284/4/3 281/4/3 280/4/3
f 285/4/3 281/4/3 284/4/3
f 290/3/3 286/3/3 285/3/3
f 291/3/3 286/3/3 290/3/3
f 292/3/3 288/3/3 287/3/3
f 293/3/3 288/3/3 292/3/3
f 297/3/3 290/3/3 289/3/3
f 298/3/3 290/3/3 297/3/3
f 299/4/3 294/4/3 293/4/3
f 300/3/3 295/3/3 294/3/3
f 300/4/3 294/4/3 299/4/3
f 301/4/3 296/4/3 295/4/3
f 301/3/3 295/3/3 300/3/3
f 301/4/3 297/4/3 296/4/3
f 302/4/3 297/4/3 301/4/3
f 307/4/3 304/4/3 303/4/3
f 308/3/3 305/3/3 304/3/3
f 308/4/3 304/4/3 307/4/3
f 309/3/3 305/3/3 308/3/3
f 310/3/3 305/3/3 309/3/3
f 312/3/3 307/3/3 306/3/3
f 313/3/3 307/3/3 312/3/3
f 314/3/3 311/3/3 310/3/3
f 315/3/3 311/3/3 314/3/3
f 319/4/3 316/4/3 315/4/3
f 320/4/3 316/4/3 319/4/3
f 322/1/3 318/1/3 317/1/3
f 323/1/3 318/1/3 322/1/3
f 325/3/3 321/3/3 320/3/3
f 326/3/3 321/3/3 325/3/3
f 330/3/3 325/3/3 324/3/3
f 331/3/3 325/3/3 330/3/3
f 332/3/3 328/3/3 327/3/3
f 333/3/3 328/3/3 332/3/3
f 337/3/3 330/3/3 329/3/3
f 338/3/3 330/3/3 337/3/3
f 339/4/3 334/4/3 333/4/3
f 340/3/3 335/3/3 334/3/3
f 340/4/3 334/4/3 339/4/3
f 341/4/3 336/4/3 335/4/3
f 341/3/3 335/3/3 340/3/3
f 342/3/3 337/3/3 336/3/3
f 342/4/3 336/4/3 341/4/3
f 343/3/3 337/3/3 342/3/3
f 346/5/3 345/5/3 344/5/3
f 347/5/3 345/5/3 346/5/3
f 348/5/4 349/5/4 350/5/4
f 350/5/4 349/5/4 351/5/4
f 352/4/4 353/4/4 356/4/4
f 353/3/4 354/3/4 357/3/4
f 356/4/4 353/4/4 357/4/4
f 357/3/4 354/3/4 358/3/4
f 358/3/4 354/3/4 359/3/4
f 355/3/4 356/3/4 361/3/4
f 361/3/4 356/3/4 362/3/4
f 359/3/4 360/3/4 363/3/4
f 363/3/4 360/3/4 364/3/4
f 364/4/4 365/4/4 368/4/4
f 368/4/4 365/4/4 369/4/4
f 366/1/4 367/1/4 371/1/4
f 371/1/4 367/1/4 372/1/4
f 369/3/4 370/3/4 374/3/4
f 374/3/4 370/3/4 375/3/4
f 373/3/4 374/3/4 379/3/4
f 379/3/4 374/3/4 380/3/4
f 376/3/4 377/3/4 381/3/4
f 381/3/4 377/3/4 382/3/4
f 378/3/4 379/3/4 386/3/4
f 386/3/4 379/3/4 387/3/4
f 382/4/4 383/4/4 388/4/4
f 383/3/4 384/3/4 389/3/4
f 388/4/4 383/4/4 389/4/4
f 384/4/4 385/4/4 390/4/4
f 389/3/4 384/3/4 390/3/4
f 385/3/4 386/3/4 391/3/4
f 390/4/4 385/4/4 391/4/4
f 391/3/4 386/3/4 392/3/4
f 393/3/4 394/3/4 397/3/4
f 397/3/4 394/3/4 398/3/4
f 394/4/4 395/4/4 399/4/4
f 398/3/4 394/3/4 399/3/4
f 399/4/4 395/4/4 400/4/4
f 396/3/4 397/3/4 402/3/4
f 402/3/4 397/3/4 403/3/4
f 400/3/4 401/3/4 404/3/4
f 404/3/4 401/3/4 405/3/4
f 405/4/4 406/4/4 410/4/4
f 410/4/4 406/4/4 411/4/4
f 407/3/4 408/3/4 412/3/4
f 412/3/4 408/3/4 413/3/4
f 409/4/4 410/4/4 416/4/4
f 416/4/4 410/4/4 417/4/4
f 413/3/4 414/3/4 418/3/4
f 414/4/4 415/4/4 419/4/4
f 418/3/4 414/3/4 419/3/4
f 415/4/4 416/4/4 419/4/4
f 419/4/4 416/4/4 420/4/4
f 421/5/4 422/5/4 423/5/4
f 423/5/4 422/5/4 424/5/4
f 425/3/4 426/3/4 429/3/4
f 426/4/4 427/4/4 430/4/4
f 429/3/4 426/3/4 430/3/4
f 430/4/4 427/4/4 431/4/4
f 428/3/4 429/3/4 433/3/4
f 433/3/4 429/3/4 434/3/4
f 431/3/4 432/3/4 437/3/4
f 437/3/4 432/3/4 438/3/4
f 434/3/4 435/3/4 439/3/4
f 435/4/4 436/4/4 440/4/4
f 439/3/4 435/3/4 440/3/4
f 436/3/4 437/3/4 441/3/4
f 440/4/4 436/4/4 441/4/4
f 441/3/4 437/3/4 442/3/4
f 443/5/4 444/5/4 445/5/4
f 445/5/4 444/5/4 446/5/4
f 449/3/4 450/3/4 452/3/4
f 450/4/4 451/4/4 453/4/4
f 452/3/4 450/3/4 453/3/4
f 453/4/4 451/4/4 454/4/4
f 447/5/4 448/5/4 455/5/4
f 455/5/4 448/5/4 456/5/4
f 460/5/5 458/5/5 457/5/5
f 461/5/5 458/5/5 460/5/5
f 463/5/5 460/5/5 459/5/5
f 464/2/5 461/2/5 460/2/5
f 464/5/5 460/5/5 463/5/5
f 465/5/5 462/5/5 461/5/5
f 465/2/5 461/2/5 464/2/5
f 466/5/5 462/5/5 465/5/5
f 467/5/5 465/5/5 464/5/5
f 468/5/5 465/5/5 467/5/5
f 472/3/5 470/3/5 469/3/5
f 473/3/5 470/3/5 472/3/5
f 476/3/5 472/3/5 471/3/5
f 476/3/5 474/3/5 473/3/5
f 476/3/5 473/3/5 472/3/5
f 477/3/5 474/3/5 476/3/5
f 478/3/5 474/3/5 477/3/5
f 479/3/5 474/3/5 478/3/5
f 481/3/5 476/3/5 475/3/5
f 481/3/5 477/3/5 476/3/5
f 482/3/5 477/3/5 481/3/5
f 483/3/5 477/3/5 482/3/5
f 484/3/5 480/3/5 479/3/5
f 484/3/5 479/3/5 478/3/5
f 485/3/5 480/3/5 484/3/5
f 486/3/5 480/3/5 485/3/5
f 487/3/5 483/3/5 482/3/5
f 487/3/5 485/3/5 484/3/5
f 487/3/5 484/3/5 483/3/5
f 488/3/5 485/3/5 487/3/5
f 489/3/5 485/3/5 488/3/5
f 490/3/5 485/3/5 489/3/5
f 491/3/5 489/3/5 488/3/5
f 492/3/5 489/3/5 491/3/5
f 496/3/5 494/3/5 493/3/5
f 497/3/5 494/3/5 496/3/5
f 500/3/5 496/3/5 495/3/5
f 501/3/5 496/3/5 500/3/5
f 502/4/5 498/4/5 497/4/5
f 503/4/5 498/4/5 502/4/5
f 506/4/5 500/4/5 499/4/5
f 507/4/5 500/4/5 506/4/5
f 508/4/5 504/4/5 503/4/5
f 509/4/5 504/4/5 508/4/5
f 511/4/5 506/4/5 505/4/5
f 512/4/5 506/4/5 511/4/5
f 515/4/5 510/4/5 509/4/5
f 516/4/5 510/4/5 515/4/5
f 517/3/5 513/3/5 512/3/5
f 518/3/5 513/3/5 517/3/5
f 521/3/5 515/3/5 514/3/5
f 522/3/5 515/3/5 521/3/5
f 523/3/5 519/3/5 518/3/5
f 524/3/5 519/3/5 523/3/5
f 525/3/5 521/3/5 520/3/5
f 526/3/5 521/3/5 525/3/5
f 527/3/5 525/3/5 524/3/5
f 528/3/5 525/3/5 527/3/5
f 529/2/6 530/2/6 531/2/6
f 531/2/6 530/2/6 532/2/6
f 529/2/6 531/2/6 533/2/6
f 532/2/6 530/2/6 534/2/6
f 529/2/6 533/2/6 535/2/6
f 533/2/6 534/2/6 535/2/6
f 534/2/6 530/2/6 536/2/6
f 535/2/6 534/2/6 536/2/6
f 537/5/6 538/5/6 540/5/6
f 540/5/6 538/5/6 541/5/6
f 539/5/6 540/5/6 543/5/6
f 543/5/6 540/5/6 544/5/6
f 541/5/6 542/5/6 545/5/6
f 545/5/6 542/5/6 546/5/6
f 544/5/6 545/5/6 547/5/6
f 547/5/6 545/5/6 548/5/6
f 549/3/6 550/3/6 552/3/6
f 552/3/6 550/3/6 553/3/6
f 551/3/6 552/3/6 556/3/6
f 556/3/6 552/3/6 557/3/6
f 553/4/6 554/4/6 558/4/6
f 558/4/6 554/4/6 559/4/6
f 555/4/6 556/4/6 562/4/6
f 562/4/6 556/4/6 563/4/6
f 559/4/6 560/4/6 564/4/6
f 564/4/6 560/4/6 565/4/6
f 561/3/6 562/3/6 567/3/6
f 567/3/6 562/3/6 568/3/6
f 565/3/6 566/3/6 571/3/6
f 571/3/6 566/3/6 572/3/6
f 568/4/6 569/4/6 573/4/6
f 573/4/6 569/4/6 574/4/6
f 570/4/6 571/4/6 577/4/6
f 577/4/6 571/4/6 578/4/6
f 574/4/6 575/4/6 579/4/6
f 579/4/6 575/4/6 580/4/6
f 576/3/6 577/3/6 581/3/6
f 581/3/6 577/3/6 582/3/6
f 580/4/6 581/4/6 583/4/6
f 583/4/6 581/4/6 584/4/6
f 585/4/6 586/4/6 588/4/6
f 588/4/6 586/4/6 589/4/6
f 587/4/6 588/4/6 592/4/6
f 592/4/6 588/4/6 593/4/6
f 589/3/6 590/3/6 594/3/6
f 594/3/6 590/3/6 595/3/6
f 591/3/6 592/3/6 597/3/6
f 597/3/6 592/3/6 598/3/6
f 595/3/6 596/3/6 601/3/6
f 601/3/6 596/3/6 602/3/6
f 598/3/6 599/3/6 603/3/6
f 603/3/6 599/3/6 604/3/6
f 600/4/6 601/4/6 605/4/6
f 605/4/6 601/4/6 606/4/6
f 604/3/6 605/3/6 607/3/6
f 607/3/6 605/3/6 608/3/6
f 609/3/6 610/3/6 612/3/6
f 612/3/6 610/3/6 613/3/6
f 611/4/6 612/4/6 615/4/6
f 615/4/6 612/4/6 616/4/6
f 613/3/6 614/3/6 617/3/6
f 617/3/6 614/3/6 618/3/6
f 616/4/6 617/4/6 619/4/6
f 619/4/6 617/4/6 620/4/6
f 621/3/6 622/3/6 623/3/6
f 623/3/6 622/3/6 624/3/6
